<svg width="32" height="32" viewBox="0 0 32 32" fill="none" xmlns="http://www.w3.org/2000/svg">
<path d="M22.9736 16.0568C22.3586 15.7645 21.7312 15.5127 21.0928 15.3018C23.1605 13.7498 24.5005 11.2784 24.5005 8.5C24.5005 3.81313 20.6874 0 16.0005 0C11.3135 0 7.50046 3.81313 7.50046 8.5C7.50046 11.2815 8.84346 13.7552 10.915 15.3069C9.01702 15.9318 7.23609 16.9041 5.67734 18.1863C2.81909 20.5373 0.831777 23.8166 0.0815892 27.4202C-0.153536 28.5493 0.128152 29.7091 0.854277 30.6019C1.57684 31.4904 2.64828 32 3.79378 32H19.188C19.8783 32 20.438 31.4404 20.438 30.75C20.438 30.0596 19.8783 29.5 19.188 29.5H3.79378C3.26015 29.5 2.93821 29.2021 2.79384 29.0246C2.54453 28.7181 2.44803 28.319 2.52909 27.9297C3.82628 21.6987 9.32228 17.1471 15.6691 16.9936C15.779 16.9979 15.8895 17 16.0005 17C16.1125 17 16.2241 16.9978 16.3351 16.9935C18.2801 17.0391 20.1507 17.483 21.9003 18.3148C22.5239 18.611 23.2695 18.3459 23.5659 17.7224C23.8623 17.0989 23.5971 16.3532 22.9736 16.0568ZM16.3053 14.4923C16.2039 14.4905 16.1023 14.4896 16.0005 14.4896C15.8996 14.4896 15.7987 14.4906 15.698 14.4924C12.5295 14.3344 10.0005 11.707 10.0005 8.5C10.0005 5.19156 12.692 2.5 16.0005 2.5C19.3089 2.5 22.0005 5.19156 22.0005 8.5C22.0005 11.7062 19.4726 14.3331 16.3053 14.4923Z" fill="white"/>
<path d="M30.75 24.8125H27.3125V21.375C27.3125 20.6846 26.7529 20.125 26.0625 20.125C25.3721 20.125 24.8125 20.6846 24.8125 21.375V24.8125H21.375C20.6846 24.8125 20.125 25.3721 20.125 26.0625C20.125 26.7529 20.6846 27.3125 21.375 27.3125H24.8125V30.75C24.8125 31.4404 25.3721 32 26.0625 32C26.7529 32 27.3125 31.4404 27.3125 30.75V27.3125H30.75C31.4404 27.3125 32 26.7529 32 26.0625C32 25.3721 31.4404 24.8125 30.75 24.8125Z" fill="white"/>
</svg>
