<svg width="88" height="88" viewBox="0 0 88 88" fill="none" xmlns="http://www.w3.org/2000/svg">
<g filter="url(#filter0_d)">
<path d="M44 58C57.255 58 68 47.255 68 34C68 20.745 57.255 10 44 10C30.745 10 20 20.745 20 34C20 47.255 30.745 58 44 58Z" fill="#F7931A"/>
<path fill-rule="evenodd" clip-rule="evenodd" d="M53.9841 30.266C54.4541 27.122 52.0601 25.432 48.7861 24.304L49.8481 20.044L47.2561 19.398L46.2221 23.546C45.5401 23.376 44.8401 23.216 44.1441 23.056L45.1861 18.882L42.5941 18.236L41.5321 22.494C40.9788 22.3694 40.4268 22.2394 39.8761 22.104L39.8791 22.092L36.3031 21.199L35.6131 23.968C35.6131 23.968 37.5381 24.408 37.4971 24.436C38.5471 24.698 38.7371 25.393 38.7051 25.944L37.4951 30.797C37.5681 30.815 37.6611 30.842 37.7651 30.883L37.6771 30.861L37.4911 30.815L35.7951 37.613C35.6671 37.932 35.3411 38.41 34.6071 38.229C34.6331 38.266 32.7231 37.759 32.7231 37.759L31.4351 40.726L34.8101 41.567C35.1861 41.662 35.5591 41.759 35.9271 41.855L36.6571 42.045L35.5851 46.352L38.1751 46.998L39.2371 42.736C39.9451 42.928 40.6321 43.106 41.3041 43.272L40.2441 47.515L42.8371 48.161L43.9101 43.861C48.3311 44.697 51.6561 44.36 53.0561 40.361C54.1831 37.141 52.9991 35.284 50.6731 34.073C52.3671 33.683 53.6431 32.568 53.9831 30.266H53.9841ZM48.0601 38.573C47.3251 41.527 42.7011 40.306 40.5851 39.747C40.3951 39.697 40.2251 39.652 40.0801 39.616L41.5041 33.909C41.6801 33.953 41.8961 34.001 42.1411 34.056C44.3291 34.546 48.8131 35.553 48.0601 38.573ZM42.5801 31.407C44.3441 31.877 48.1921 32.905 48.8621 30.22C49.5461 27.474 45.8071 26.646 43.9811 26.242C43.8022 26.2032 43.6239 26.1622 43.4461 26.119L42.1561 31.296C42.2771 31.326 42.4201 31.364 42.5801 31.407Z" fill="white"/>
</g>
<defs>
<filter id="filter0_d" x="0" y="0" width="88" height="88" filterUnits="userSpaceOnUse" color-interpolation-filters="sRGB">
<feFlood flood-opacity="0" result="BackgroundImageFix"/>
<feColorMatrix in="SourceAlpha" type="matrix" values="0 0 0 0 0 0 0 0 0 0 0 0 0 0 0 0 0 0 127 0"/>
<feOffset dy="10"/>
<feGaussianBlur stdDeviation="10"/>
<feColorMatrix type="matrix" values="0 0 0 0 0.779167 0 0 0 0 0.779167 0 0 0 0 0.779167 0 0 0 0.3 0"/>
<feBlend mode="normal" in2="BackgroundImageFix" result="effect1_dropShadow"/>
<feBlend mode="normal" in="SourceGraphic" in2="effect1_dropShadow" result="shape"/>
</filter>
</defs>
</svg>
