<svg width="32" height="32" viewBox="0 0 32 32" fill="none" xmlns="http://www.w3.org/2000/svg">
<path d="M6.86841 9.67963L5.68753 10.8603L5.41291 10.5858C5.04684 10.2196 4.45322 10.2196 4.08709 10.5858C3.72097 10.9518 3.72097 11.5453 4.08709 11.9114L5.02459 12.8488C5.39066 13.2148 5.98428 13.2149 6.35041 12.8488L8.19416 11.0052C8.56029 10.6391 8.56029 10.0456 8.19416 9.67957C7.8281 9.31351 7.23447 9.31351 6.86841 9.67963Z" fill="url(#paint0_linear)"/>
<path d="M10.375 12.2485H16C16.5177 12.2485 16.9375 11.8288 16.9375 11.3112C16.9375 10.7935 16.5177 10.3738 16 10.3738H10.375C9.85725 10.3738 9.4375 10.7935 9.4375 11.3112C9.4375 11.8288 9.85725 12.2485 10.375 12.2485Z" fill="url(#paint1_linear)"/>
<path d="M6.86841 15.3666L5.68753 16.5473L5.41291 16.2728C5.04684 15.9067 4.45322 15.9067 4.08709 16.2728C3.72097 16.6388 3.72097 17.2324 4.08709 17.5984L5.02459 18.5358C5.39078 18.9019 5.98428 18.9018 6.35041 18.5358L8.19416 16.6922C8.56029 16.3261 8.56029 15.7326 8.19416 15.3666C7.8281 15.0005 7.23447 15.0005 6.86841 15.3666Z" fill="url(#paint2_linear)"/>
<path d="M6.86841 20.9652L5.68753 22.1459L5.41291 21.8714C5.04684 21.5053 4.45322 21.5053 4.08709 21.8714C3.72097 22.2374 3.72097 22.831 4.08709 23.197L5.02459 24.1344C5.39078 24.5005 5.98428 24.5004 6.35041 24.1344L8.19416 22.2908C8.56029 21.9247 8.56029 21.3312 8.19416 20.9652C7.8281 20.5992 7.23447 20.5992 6.86841 20.9652Z" fill="url(#paint3_linear)"/>
<path d="M31.3591 15.2349L29.1521 14.4994L28.4164 12.2926C28.1965 11.6329 27.3568 11.4336 26.8641 11.9263L24.2139 14.5762C23.0704 14.0946 21.8845 13.8698 20.6875 13.8737V5.68687H22.5625C23.0802 5.68687 23.5 5.26719 23.5 4.7495V3.31212C23.5 1.48581 22.014 0 20.1875 0H3.3125C1.486 0 0 1.48581 0 3.31212V29.1842C0 29.7019 0.41975 30.1216 0.9375 30.1216H15.2026C21.1155 34.6671 29.7781 30.4543 29.7781 22.9349C29.7781 21.7191 29.5415 20.5448 29.0753 19.4369L31.7254 16.7871C32.2173 16.2954 32.02 15.4552 31.3591 15.2349ZM20.7156 26.0596C18.9925 26.0596 17.5906 24.6579 17.5906 22.9349C17.5906 20.5844 20.0969 19.0856 22.1597 20.1653L20.0527 22.2721C19.6866 22.6382 19.6866 23.2318 20.0527 23.5977C20.4188 23.9639 21.0124 23.9638 21.3785 23.5977L23.4856 21.4909C24.5623 23.5474 23.0721 26.0596 20.7156 26.0596ZM20.1876 1.87481C20.9802 1.87481 21.6251 2.51962 21.6251 3.31212V3.81206H6.625C6.60112 3.50825 6.73213 2.77531 6.29656 1.87481H20.1876ZM1.875 3.31212C1.875 2.51956 2.51988 1.87481 3.3125 1.87481C4.10512 1.87481 4.75 2.51962 4.75 3.31212V4.74944C4.75 5.26712 5.16975 5.68681 5.6875 5.68681H18.8125V14.0751C17.3424 14.3904 16.0036 15.0634 14.8917 15.9982H10.375C9.85725 15.9982 9.4375 16.4179 9.4375 16.9356C9.4375 17.4532 9.85725 17.8729 10.375 17.8729H13.2023C12.4618 18.9683 11.9547 20.2336 11.7521 21.5969H10.375C9.85725 21.5969 9.4375 22.0166 9.4375 22.5343C9.4375 23.0519 9.85725 23.4716 10.375 23.4716H11.6694C11.7738 25.2484 12.3924 26.8889 13.3783 28.2467H1.875C1.875 27.1436 1.875 4.49631 1.875 3.31212ZM20.7156 30.1216C16.7524 30.1216 13.5281 26.8976 13.5281 22.9349C13.5281 17.8706 18.6569 14.3961 23.3375 16.243L24.0238 18.3015L23.5241 18.8011C20.2559 16.5741 15.7156 18.8908 15.7156 22.9349C15.7156 25.6916 17.9586 27.9344 20.7156 27.9344C24.7459 27.9344 27.0851 23.4061 24.8499 20.1268L25.3495 19.6272L27.4076 20.3132C29.2597 25.0087 25.7679 30.1216 20.7156 30.1216ZM27.4948 18.3659L25.8375 17.8136L25.2851 16.1565L27.1173 14.3244L27.5215 15.5369C27.6148 15.8167 27.8345 16.0364 28.1144 16.1297L29.327 16.5339L27.4948 18.3659Z" fill="url(#paint4_linear)"/>
<defs>
<linearGradient id="paint0_linear" x1="3.8125" y1="11.1402" x2="8.35711" y2="11.1656" gradientUnits="userSpaceOnUse">
<stop stop-color="#F99462"/>
<stop offset="1" stop-color="#F99462" stop-opacity="0.65"/>
</linearGradient>
<linearGradient id="paint1_linear" x1="9.4375" y1="11.2487" x2="16.7556" y2="11.3793" gradientUnits="userSpaceOnUse">
<stop stop-color="#F99462"/>
<stop offset="1" stop-color="#F99462" stop-opacity="0.65"/>
</linearGradient>
<linearGradient id="paint2_linear" x1="3.8125" y1="16.8272" x2="8.35711" y2="16.8526" gradientUnits="userSpaceOnUse">
<stop stop-color="#F99462"/>
<stop offset="1" stop-color="#F99462" stop-opacity="0.65"/>
</linearGradient>
<linearGradient id="paint3_linear" x1="3.8125" y1="22.4259" x2="8.35711" y2="22.4513" gradientUnits="userSpaceOnUse">
<stop stop-color="#F99462"/>
<stop offset="1" stop-color="#F99462" stop-opacity="0.65"/>
</linearGradient>
<linearGradient id="paint4_linear" x1="-1.71563e-07" y1="14.9333" x2="31.2331" y2="15.0727" gradientUnits="userSpaceOnUse">
<stop stop-color="#F99462"/>
<stop offset="1" stop-color="#F99462" stop-opacity="0.65"/>
</linearGradient>
</defs>
</svg>
