<svg width="32" height="28" viewBox="0 0 32 28" fill="none" xmlns="http://www.w3.org/2000/svg">
<path d="M27.3125 14.7595H24.1801C23.7538 14.7595 23.3411 14.8177 22.9482 14.9249C22.1734 13.4016 20.5914 12.355 18.7684 12.355H13.2316C11.4086 12.355 9.82662 13.4016 9.05175 14.9249C8.65894 14.8177 8.24619 14.7595 7.81987 14.7595H4.6875C2.10281 14.7595 0 16.8623 0 19.447V24.4544C0 26.0052 1.26169 27.2669 2.8125 27.2669H29.1875C30.7383 27.2669 32 26.0052 32 24.4544V19.447C32 16.8623 29.8972 14.7595 27.3125 14.7595ZM8.54406 17.0426V25.3919H2.8125C2.29556 25.3919 1.875 24.9714 1.875 24.4544V19.447C1.875 17.8962 3.13669 16.6345 4.6875 16.6345H7.81987C8.07438 16.6345 8.32081 16.6691 8.55544 16.7328C8.54869 16.8354 8.54406 16.9385 8.54406 17.0426ZM21.5809 25.3919H10.4191V17.0425C10.4191 15.4917 11.6807 14.23 13.2316 14.23H18.7684C20.3193 14.23 21.5809 15.4917 21.5809 17.0425V25.3919ZM30.125 24.4544C30.125 24.9714 29.7044 25.3919 29.1875 25.3919H23.4559V17.0425C23.4559 16.9384 23.4513 16.8352 23.4446 16.7327C23.6792 16.6691 23.9256 16.6345 24.1801 16.6345H27.3125C28.8633 16.6345 30.125 17.8962 30.125 19.447V24.4544Z" fill="url(#paint0_linear)"/>
<path d="M6.25375 5.90649C3.95694 5.90649 2.08838 7.77506 2.08838 10.0719C2.08832 12.3687 3.95694 14.2372 6.25375 14.2372C8.5505 14.2372 10.4191 12.3687 10.4191 10.0719C10.4191 7.77506 8.55057 5.90649 6.25375 5.90649ZM6.25369 12.3622C4.99075 12.3622 3.96332 11.3348 3.96332 10.0719C3.96332 8.80893 4.99075 7.78149 6.25369 7.78149C7.51663 7.78149 8.54407 8.80893 8.54407 10.0719C8.54407 11.3348 7.51663 12.3622 6.25369 12.3622Z" fill="url(#paint1_linear)"/>
<path d="M15.9999 0.73291C12.9314 0.73291 10.4351 3.22928 10.4351 6.29778C10.4351 9.36629 12.9314 11.8627 15.9999 11.8627C19.0684 11.8627 21.5648 9.36629 21.5648 6.29778C21.5648 3.22935 19.0684 0.73291 15.9999 0.73291ZM15.9999 9.98766C13.9653 9.98766 12.3101 8.33241 12.3101 6.29778C12.3101 4.26322 13.9653 2.60791 15.9999 2.60791C18.0346 2.60791 19.6898 4.26316 19.6898 6.29778C19.6898 8.33241 18.0346 9.98766 15.9999 9.98766Z" fill="url(#paint2_linear)"/>
<path d="M25.7464 5.90649C23.4497 5.90649 21.5811 7.77506 21.5811 10.0719C21.5811 12.3687 23.4497 14.2372 25.7464 14.2372C28.0432 14.2372 29.9118 12.3687 29.9118 10.0719C29.9118 7.77506 28.0432 5.90649 25.7464 5.90649ZM25.7464 12.3622C24.4836 12.3622 23.4561 11.3348 23.4561 10.0719C23.4561 8.80893 24.4836 7.78149 25.7464 7.78149C27.0094 7.78149 28.0368 8.80893 28.0368 10.0719C28.0368 11.3348 27.0094 12.3622 25.7464 12.3622Z" fill="url(#paint3_linear)"/>
<defs>
<linearGradient id="paint0_linear" x1="-1.71563e-07" y1="19.3139" x2="31.2308" y2="19.6129" gradientUnits="userSpaceOnUse">
<stop stop-color="#47C2FF"/>
<stop offset="1" stop-color="#63CBFE" stop-opacity="0.65"/>
</linearGradient>
<linearGradient id="paint1_linear" x1="2.08838" y1="9.79418" x2="10.2195" y2="9.83046" gradientUnits="userSpaceOnUse">
<stop stop-color="#47C2FF"/>
<stop offset="1" stop-color="#63CBFE" stop-opacity="0.65"/>
</linearGradient>
<linearGradient id="paint2_linear" x1="10.4351" y1="5.92679" x2="21.2981" y2="5.97527" gradientUnits="userSpaceOnUse">
<stop stop-color="#47C2FF"/>
<stop offset="1" stop-color="#63CBFE" stop-opacity="0.65"/>
</linearGradient>
<linearGradient id="paint3_linear" x1="21.5811" y1="9.79418" x2="29.7121" y2="9.83046" gradientUnits="userSpaceOnUse">
<stop stop-color="#47C2FF"/>
<stop offset="1" stop-color="#63CBFE" stop-opacity="0.65"/>
</linearGradient>
</defs>
</svg>
