<svg width="546" height="598" viewBox="0 0 546 598" fill="none" xmlns="http://www.w3.org/2000/svg">
<path d="M13.9631 500.359H235.962L240.586 409.263H9.33942L13.9631 500.359Z" fill="#EBEBEB"/>
<path d="M225.439 450.952H132.624L130.894 419.37H227.473L225.439 450.952ZM133.686 449.841H224.39L226.285 420.457H132.069L133.686 449.841Z" fill="#DBDBDB"/>
<path d="M223.759 487.335H136.263L134.848 458.797H225.515L223.759 487.335ZM137.349 486.223H222.697L224.34 459.909H136.023L137.349 486.223Z" fill="#DBDBDB"/>
<path d="M187.969 438.572H172.38L171.395 430.992H188.955L187.969 438.572ZM173.366 437.46H186.984L187.679 432.066H172.671L173.366 437.46Z" fill="#DBDBDB"/>
<path d="M187.969 476.875H172.38L171.395 469.295H188.955L187.969 476.875ZM173.366 475.763H186.984L187.679 470.369H172.671L173.366 475.763Z" fill="#DBDBDB"/>
<path d="M116.265 450.952H23.4504L21.7197 419.37H118.299L116.265 450.952ZM24.5116 449.841H115.216L117.111 420.457H22.8946L24.5116 449.841Z" fill="#DBDBDB"/>
<path d="M114.559 487.335H27.0888L25.674 458.797H116.379L114.559 487.335ZM28.1626 486.223H113.511L115.153 459.909H26.8488L28.1626 486.223Z" fill="#DBDBDB"/>
<path d="M78.7953 438.572H63.2062L62.2208 430.992H79.7427L78.7953 438.572ZM64.1916 437.46H77.8099L78.5047 432.066H63.4968L64.1916 437.46Z" fill="#DBDBDB"/>
<path d="M78.7953 476.875H63.2062L62.2208 469.295H79.7427L78.7953 476.875ZM64.1916 475.763H77.8099L78.4794 470.432H63.4968L64.1916 475.763Z" fill="#DBDBDB"/>
<path d="M33.8725 500.347L32.4702 510.277L29.6657 530.211H24.183V500.347H33.8725Z" fill="#EBEBEB"/>
<path d="M33.8725 500.347L32.4702 510.277H24.183V500.347H33.8725Z" fill="#DBDBDB"/>
<path d="M216.052 500.347L217.455 510.277L220.247 530.211H225.729V500.347H216.052Z" fill="#EBEBEB"/>
<path d="M216.052 500.347L217.455 510.277H225.729V500.347H216.052Z" fill="#DBDBDB"/>
<path d="M507.621 384.806L491.047 385.16L482.633 385.299C479.816 385.362 476.986 385.299 474.169 385.375H473.613V384.806L473.537 370.632V370H474.169L490.895 370.076C496.479 370.076 502.05 370.215 507.621 370.278H508V370.632C508 373.032 507.886 375.42 507.836 377.782L507.621 384.806ZM507.621 384.806L507.444 377.669C507.444 375.319 507.305 372.994 507.28 370.67L507.621 371.024C502.05 371.087 496.479 371.226 490.895 371.226L474.169 371.302L474.801 370.67L474.737 384.806L474.169 384.25C476.923 384.25 479.677 384.25 482.444 384.314L490.756 384.465L507.621 384.806Z" fill="#EBEBEB"/>
<path d="M488.962 402.631L472.388 402.985L463.974 403.124C461.157 403.124 458.327 403.124 455.51 403.2H454.942V402.631V388.495V387.863H455.573L472.299 387.952C477.871 387.952 483.454 388.091 489.025 388.154H489.379V388.495C489.379 390.895 489.278 393.283 489.215 395.645L488.962 402.631ZM488.962 402.631L488.785 395.494C488.722 393.144 488.646 390.819 488.621 388.495L488.962 388.849C483.391 388.912 477.807 389.051 472.236 389.051L455.51 389.127L456.142 388.495L456.079 402.631L455.51 402.075C458.264 402.075 461.018 402.075 463.785 402.138L472.097 402.29L488.962 402.631Z" fill="#EBEBEB"/>
<path d="M526.28 402.631L509.705 402.985L501.292 403.124C498.475 403.124 495.658 403.124 492.828 403.2H492.272V402.631L492.196 388.495V387.863H492.828L509.554 387.952C515.138 387.952 520.709 388.091 526.28 388.154H526.634V388.495C526.634 390.895 526.52 393.283 526.469 395.645L526.28 402.631ZM526.28 402.631L526.103 395.494C526.103 393.144 525.964 390.819 525.939 388.495L526.28 388.849C520.709 388.912 515.138 389.051 509.554 389.051L492.828 389.127L493.459 388.495L493.396 402.631L492.828 402.075C495.594 402.075 498.336 402.075 501.102 402.138L509.415 402.29L526.28 402.631Z" fill="#EBEBEB"/>
<path d="M61.0714 264.085L44.4969 264.439L36.0834 264.578C33.2662 264.578 30.4365 264.578 27.6193 264.654H27.0635V264.085L26.9877 249.949V249.355H27.6193H44.3706C49.9544 249.355 55.5255 249.507 61.0966 249.57H61.4504V249.911C61.4504 252.312 61.3367 254.699 61.2735 257.049L61.0714 264.085ZM61.0714 264.085L60.8945 256.935C60.8945 254.573 60.7555 252.248 60.7303 249.937L61.0714 250.278C55.5002 250.278 49.9291 250.48 44.3453 250.492L27.6193 250.619L28.251 249.987L28.1878 264.123L27.6193 263.555C30.3733 263.555 33.1273 263.555 35.8939 263.631L44.2064 263.77L61.0714 264.085Z" fill="#EBEBEB"/>
<path d="M42.4126 281.91L25.8382 282.264L17.412 282.403C14.6075 282.466 11.7777 282.403 8.96057 282.479H8.40472V281.91L8.34155 267.774V267.143H8.99847L25.7245 267.218C31.2956 267.218 36.8794 267.37 42.4505 267.433H42.8042V267.774C42.8042 270.174 42.7032 272.562 42.64 274.912L42.4126 281.91ZM42.4126 281.91L42.2358 274.773C42.2358 272.411 42.0968 270.086 42.0715 267.774L42.4126 268.115C36.8415 268.178 31.2577 268.317 25.6866 268.33L8.99847 268.406L9.63011 267.774V281.91L9.06163 281.342C11.8156 281.342 14.5696 281.342 17.3362 281.418L25.6487 281.557L42.4126 281.91Z" fill="#EBEBEB"/>
<path d="M79.7431 281.91L63.1687 282.264L54.7551 282.403C51.938 282.466 49.1208 282.403 46.2911 282.479H45.7352V281.91L45.6342 267.774V267.143H46.2658L62.9918 267.218C68.5756 267.218 74.1467 267.37 79.7179 267.433H80.0716V267.774C80.0716 270.174 79.9579 272.562 79.9074 274.912L79.7431 281.91ZM79.7431 281.91L79.5663 274.773C79.5663 272.411 79.4273 270.086 79.402 267.774L79.7431 268.115C74.172 268.178 68.6009 268.317 63.0171 268.33L46.2911 268.406L46.9227 267.774L46.8975 281.91L46.329 281.342C49.0956 281.342 51.8369 281.342 54.6035 281.418L62.916 281.557L79.7431 281.91Z" fill="#EBEBEB"/>
<path d="M77.3678 402.631L60.7934 402.985L52.3672 403.124C49.5627 403.124 46.7329 403.124 43.9158 403.2H43.3599V402.631V388.495V387.863H43.9916L60.7176 387.952C66.2887 387.952 71.8725 388.091 77.4436 388.154H77.7974V388.495C77.7974 390.895 77.6963 393.283 77.6331 395.645L77.3678 402.631ZM77.3678 402.631L77.2162 395.494C77.2162 393.144 77.0773 390.819 77.052 388.495L77.3931 388.849C71.822 388.912 66.2382 389.051 60.6671 389.051L43.941 389.127L44.5727 388.495V402.631L44.0042 402.075C46.7582 402.075 49.5122 402.075 52.2788 402.138L60.5786 402.29L77.3678 402.631Z" fill="#EBEBEB"/>
<path d="M392.282 460.326L375.708 460.679L367.294 460.831C364.477 460.831 361.647 460.831 358.83 460.894H358.274V460.326L358.198 446.202V445.558H358.83L375.556 445.633C381.127 445.633 386.711 445.772 392.282 445.836H392.636V446.177C392.636 448.564 392.535 450.952 392.472 453.314L392.282 460.326ZM392.282 460.326L392.105 453.188C392.042 450.838 391.966 448.514 391.941 446.202L392.282 446.543C386.711 446.606 381.127 446.745 375.556 446.745L358.83 446.821L359.462 446.202L359.398 460.326L358.83 459.77C361.584 459.77 364.338 459.77 367.105 459.77L375.417 459.921L392.282 460.326Z" fill="#EBEBEB"/>
<path d="M505.688 79.2909L489.114 79.6446L480.7 79.7836C477.883 79.7836 475.053 79.7836 472.236 79.8594H471.68V79.2909L471.604 65.1546V64.5229H472.236L488.962 64.5987C494.533 64.5987 500.117 64.7503 505.688 64.8135H506.042V65.1546C506.042 67.5549 505.941 69.9425 505.877 72.2922L505.688 79.2909ZM505.688 79.2909L505.473 72.1533C505.473 69.7909 505.334 67.4664 505.309 65.1546L505.65 65.4957C500.079 65.4957 494.495 65.6978 488.924 65.7104L472.198 65.7862L472.83 65.1546L472.766 79.2909L472.198 78.7224C474.952 78.7224 477.706 78.7224 480.473 78.7982L488.785 78.9371L505.688 79.2909Z" fill="#EBEBEB"/>
<path d="M524.347 97.1161L507.772 97.4698L499.359 97.6087C496.542 97.6719 493.712 97.6087 490.895 97.6719H490.314V97.1034V82.9798V82.3481H490.945L507.671 82.4239C513.255 82.4239 518.826 82.5755 524.397 82.6387H524.751V82.9798C524.751 85.3801 524.637 87.7677 524.587 90.1174L524.347 97.1161ZM524.347 97.1161L524.17 89.9784C524.17 87.6161 524.031 85.2916 524.006 82.9798L524.347 83.3209C518.776 83.384 513.205 83.523 507.621 83.5356L490.895 83.6114L491.526 82.9798V97.1161L490.958 96.5476C493.712 96.5476 496.466 96.5476 499.233 96.6234L507.545 96.7623L524.347 97.1161Z" fill="#EBEBEB"/>
<path d="M53.2138 79.3033L36.6268 79.657L28.2132 79.796C25.3961 79.796 22.5789 79.796 19.7618 79.8718H19.1933V79.3033L19.1049 65.167V64.5354H19.7491L36.4752 64.6238C42.0463 64.6238 47.6174 64.7628 53.2012 64.826H53.5423V65.167C53.5423 67.5673 53.4286 69.9549 53.3781 72.3173L53.2138 79.3033ZM53.2138 79.3033L53.0243 72.1657C53.0243 69.8033 52.8854 67.4789 52.8601 65.167L53.2138 65.5081C47.6301 65.5839 42.0589 65.7103 36.4878 65.7229L19.7618 65.7987L20.3808 65.167L20.3682 79.3033L19.7744 78.8106C22.5284 78.8106 25.2697 78.8106 28.0364 78.8106L36.3488 78.9496L53.2138 79.3033Z" fill="#EBEBEB"/>
<path d="M497.565 0.486328H496.605V117.265H497.565V0.486328Z" fill="#C7C7C7"/>
<path d="M457.317 155.606L460.513 162.63H533.67L536.854 155.606L505.713 134.042H488.457L457.317 155.606Z" fill="#EBEBEB"/>
<path d="M486.297 113.273L488.457 134.042H505.714L507.874 113.273H486.297Z" fill="#DBDBDB"/>
<path d="M457.317 155.606L460.525 162.63H533.67L536.866 155.606H457.317Z" fill="#DBDBDB"/>
<path d="M412.179 0.486328H411.219V94.5765H412.179V0.486328Z" fill="#C7C7C7"/>
<path d="M371.918 132.917L375.127 139.941H448.271L451.468 132.917L420.315 111.353H403.071L371.918 132.917Z" fill="#EBEBEB"/>
<path d="M400.91 90.5845L403.071 111.353H420.315L422.487 90.5845H400.91Z" fill="#DBDBDB"/>
<path d="M371.931 132.917L375.127 139.954H448.284L451.468 132.917H371.931Z" fill="#DBDBDB"/>
<path d="M219.249 597.393C335.255 597.393 429.297 589.203 429.297 579.1C429.297 568.998 335.255 560.808 219.249 560.808C103.242 560.808 9.20068 568.998 9.20068 579.1C9.20068 589.203 103.242 597.393 219.249 597.393Z" fill="#EBEBEB"/>
<path d="M479.715 97.4187H66.1122V388.659H479.715V97.4187Z" fill="white"/>
<path d="M480.031 388.974H65.8469V97.1528H480.081L480.031 388.974ZM66.428 388.317H479.399V97.7592H66.428V388.317Z" fill="#263238"/>
<path opacity="0.1" d="M479.715 97.4187H66.1122V388.659H479.715V97.4187Z" fill="#58D16F"/>
<path d="M209.934 133.321C209.5 133.942 208.893 134.408 208.114 134.719C207.341 135.023 206.438 135.176 205.407 135.176C204.364 135.176 203.438 134.932 202.63 134.446C201.821 133.954 201.194 133.257 200.749 132.354C200.31 131.452 200.084 130.406 200.072 129.217V128.1C200.072 126.173 200.52 124.678 201.417 123.618C202.319 122.557 203.585 122.027 205.214 122.027C206.55 122.027 207.625 122.37 208.439 123.055C209.254 123.735 209.752 124.702 209.934 125.956H208.246C207.93 124.262 206.922 123.416 205.223 123.416C204.092 123.416 203.233 123.814 202.647 124.611C202.067 125.402 201.774 126.551 201.768 128.056V129.102C201.768 130.538 202.097 131.68 202.753 132.53C203.409 133.374 204.297 133.796 205.416 133.796C206.049 133.796 206.602 133.725 207.077 133.585C207.552 133.444 207.944 133.207 208.255 132.873V129.999H205.293V128.628H209.934V133.321ZM217.097 126.949C216.851 126.908 216.584 126.887 216.297 126.887C215.23 126.887 214.507 127.342 214.126 128.25V135H212.5V125.49H214.082L214.108 126.589C214.642 125.739 215.397 125.314 216.376 125.314C216.692 125.314 216.933 125.355 217.097 125.437V126.949ZM217.993 130.157C217.993 129.225 218.175 128.387 218.538 127.643C218.907 126.899 219.417 126.325 220.067 125.921C220.724 125.516 221.471 125.314 222.309 125.314C223.603 125.314 224.649 125.762 225.446 126.659C226.249 127.555 226.65 128.748 226.65 130.236V130.35C226.65 131.276 226.472 132.108 226.114 132.846C225.763 133.579 225.256 134.15 224.594 134.56C223.937 134.97 223.182 135.176 222.326 135.176C221.037 135.176 219.991 134.727 219.188 133.831C218.392 132.934 217.993 131.748 217.993 130.271V130.157ZM219.628 130.35C219.628 131.405 219.871 132.252 220.357 132.89C220.85 133.529 221.506 133.848 222.326 133.848C223.152 133.848 223.809 133.526 224.295 132.882C224.781 132.231 225.024 131.323 225.024 130.157C225.024 129.114 224.775 128.27 224.277 127.626C223.785 126.975 223.129 126.65 222.309 126.65C221.506 126.65 220.858 126.969 220.366 127.608C219.874 128.247 219.628 129.161 219.628 130.35ZM237.109 132.759L238.937 125.49H240.563L237.795 135H236.477L234.165 127.793L231.915 135H230.597L227.837 125.49H229.454L231.326 132.609L233.541 125.49H234.851L237.109 132.759ZM250.847 128.628L254.186 122.203H256.102L251.69 130.227V135H250.003V130.227L245.591 122.203H247.524L250.847 128.628ZM256.489 130.157C256.489 129.225 256.671 128.387 257.034 127.643C257.403 126.899 257.913 126.325 258.563 125.921C259.22 125.516 259.967 125.314 260.805 125.314C262.1 125.314 263.145 125.762 263.942 126.659C264.745 127.555 265.146 128.748 265.146 130.236V130.35C265.146 131.276 264.968 132.108 264.61 132.846C264.259 133.579 263.752 134.15 263.09 134.56C262.434 134.97 261.678 135.176 260.822 135.176C259.533 135.176 258.487 134.727 257.685 133.831C256.888 132.934 256.489 131.748 256.489 130.271V130.157ZM258.124 130.35C258.124 131.405 258.367 132.252 258.853 132.89C259.346 133.529 260.002 133.848 260.822 133.848C261.648 133.848 262.305 133.526 262.791 132.882C263.277 132.231 263.52 131.323 263.52 130.157C263.52 129.114 263.271 128.27 262.773 127.626C262.281 126.975 261.625 126.65 260.805 126.65C260.002 126.65 259.354 126.969 258.862 127.608C258.37 128.247 258.124 129.161 258.124 130.35ZM273.057 134.059C272.424 134.803 271.495 135.176 270.27 135.176C269.257 135.176 268.483 134.883 267.95 134.297C267.423 133.705 267.156 132.832 267.15 131.677V125.49H268.776V131.634C268.776 133.075 269.362 133.796 270.534 133.796C271.776 133.796 272.602 133.333 273.013 132.407V125.49H274.639V135H273.092L273.057 134.059ZM281.714 126.949C281.468 126.908 281.201 126.887 280.914 126.887C279.848 126.887 279.124 127.342 278.743 128.25V135H277.117V125.49H278.699L278.726 126.589C279.259 125.739 280.015 125.314 280.993 125.314C281.31 125.314 281.55 125.355 281.714 125.437V126.949ZM287.936 135V122.203H292.12C293.509 122.203 294.552 122.49 295.249 123.064C295.952 123.638 296.304 124.488 296.304 125.613C296.304 126.211 296.134 126.741 295.794 127.204C295.454 127.661 294.991 128.015 294.405 128.267C295.097 128.461 295.642 128.83 296.04 129.375C296.444 129.914 296.646 130.558 296.646 131.308C296.646 132.457 296.274 133.359 295.53 134.015C294.786 134.672 293.734 135 292.375 135H287.936ZM289.624 129.014V133.62H292.41C293.195 133.62 293.813 133.418 294.265 133.013C294.722 132.603 294.95 132.041 294.95 131.326C294.95 129.785 294.112 129.014 292.436 129.014H289.624ZM289.624 127.661H292.173C292.911 127.661 293.5 127.476 293.939 127.107C294.385 126.738 294.607 126.237 294.607 125.604C294.607 124.901 294.402 124.391 293.992 124.075C293.582 123.753 292.958 123.592 292.12 123.592H289.624V127.661ZM304.768 134.059C304.135 134.803 303.206 135.176 301.981 135.176C300.968 135.176 300.194 134.883 299.661 134.297C299.134 133.705 298.867 132.832 298.861 131.677V125.49H300.487V131.634C300.487 133.075 301.073 133.796 302.245 133.796C303.487 133.796 304.313 133.333 304.724 132.407V125.49H306.35V135H304.803L304.768 134.059ZM314.365 132.477C314.365 132.038 314.198 131.698 313.864 131.458C313.536 131.212 312.959 131.001 312.133 130.825C311.312 130.649 310.659 130.438 310.173 130.192C309.692 129.946 309.335 129.653 309.101 129.313C308.872 128.973 308.758 128.569 308.758 128.1C308.758 127.321 309.086 126.662 309.742 126.123C310.404 125.584 311.248 125.314 312.273 125.314C313.352 125.314 314.225 125.593 314.893 126.149C315.566 126.706 315.903 127.418 315.903 128.285H314.268C314.268 127.84 314.078 127.456 313.697 127.134C313.322 126.811 312.848 126.65 312.273 126.65C311.682 126.65 311.219 126.779 310.885 127.037C310.551 127.295 310.384 127.632 310.384 128.048C310.384 128.44 310.539 128.736 310.85 128.935C311.16 129.135 311.72 129.325 312.528 129.507C313.343 129.688 314.002 129.905 314.506 130.157C315.01 130.409 315.382 130.714 315.622 131.071C315.868 131.423 315.991 131.853 315.991 132.363C315.991 133.213 315.651 133.895 314.972 134.411C314.292 134.921 313.41 135.176 312.326 135.176C311.564 135.176 310.891 135.041 310.305 134.771C309.719 134.502 309.259 134.127 308.925 133.646C308.597 133.16 308.433 132.635 308.433 132.073H310.059C310.088 132.618 310.305 133.052 310.709 133.374C311.119 133.69 311.658 133.848 312.326 133.848C312.941 133.848 313.434 133.725 313.803 133.479C314.178 133.227 314.365 132.893 314.365 132.477ZM319.876 135H318.25V125.49H319.876V135ZM318.118 122.968C318.118 122.704 318.197 122.481 318.355 122.3C318.519 122.118 318.76 122.027 319.076 122.027C319.393 122.027 319.633 122.118 319.797 122.3C319.961 122.481 320.043 122.704 320.043 122.968C320.043 123.231 319.961 123.451 319.797 123.627C319.633 123.802 319.393 123.89 319.076 123.89C318.76 123.89 318.519 123.802 318.355 123.627C318.197 123.451 318.118 123.231 318.118 122.968ZM324.024 125.49L324.077 126.685C324.804 125.771 325.753 125.314 326.925 125.314C328.935 125.314 329.948 126.448 329.966 128.716V135H328.34V128.707C328.334 128.021 328.176 127.514 327.865 127.186C327.56 126.858 327.083 126.694 326.433 126.694C325.905 126.694 325.442 126.835 325.044 127.116C324.645 127.397 324.335 127.766 324.112 128.223V135H322.486V125.49H324.024ZM336.364 135.176C335.075 135.176 334.026 134.754 333.218 133.91C332.409 133.06 332.005 131.927 332.005 130.509V130.21C332.005 129.266 332.184 128.426 332.541 127.687C332.904 126.943 333.408 126.363 334.053 125.947C334.703 125.525 335.406 125.314 336.162 125.314C337.398 125.314 338.359 125.721 339.045 126.536C339.73 127.35 340.073 128.516 340.073 130.034V130.711H333.631C333.654 131.648 333.927 132.407 334.448 132.987C334.976 133.561 335.643 133.848 336.452 133.848C337.026 133.848 337.513 133.731 337.911 133.497C338.31 133.262 338.658 132.952 338.957 132.565L339.95 133.339C339.153 134.563 337.958 135.176 336.364 135.176ZM336.162 126.65C335.506 126.65 334.955 126.89 334.51 127.371C334.064 127.845 333.789 128.513 333.684 129.375H338.447V129.252C338.4 128.426 338.178 127.787 337.779 127.336C337.381 126.879 336.842 126.65 336.162 126.65ZM347.5 132.477C347.5 132.038 347.333 131.698 346.999 131.458C346.671 131.212 346.094 131.001 345.268 130.825C344.447 130.649 343.794 130.438 343.308 130.192C342.827 129.946 342.47 129.653 342.235 129.313C342.007 128.973 341.893 128.569 341.893 128.1C341.893 127.321 342.221 126.662 342.877 126.123C343.539 125.584 344.383 125.314 345.408 125.314C346.486 125.314 347.359 125.593 348.027 126.149C348.701 126.706 349.038 127.418 349.038 128.285H347.403C347.403 127.84 347.213 127.456 346.832 127.134C346.457 126.811 345.982 126.65 345.408 126.65C344.816 126.65 344.353 126.779 344.019 127.037C343.685 127.295 343.518 127.632 343.518 128.048C343.518 128.44 343.674 128.736 343.984 128.935C344.295 129.135 344.854 129.325 345.663 129.507C346.477 129.688 347.137 129.905 347.641 130.157C348.144 130.409 348.517 130.714 348.757 131.071C349.003 131.423 349.126 131.853 349.126 132.363C349.126 133.213 348.786 133.895 348.106 134.411C347.427 134.921 346.545 135.176 345.461 135.176C344.699 135.176 344.025 135.041 343.439 134.771C342.853 134.502 342.393 134.127 342.06 133.646C341.731 133.16 341.567 132.635 341.567 132.073H343.193C343.223 132.618 343.439 133.052 343.844 133.374C344.254 133.69 344.793 133.848 345.461 133.848C346.076 133.848 346.568 133.725 346.937 133.479C347.312 133.227 347.5 132.893 347.5 132.477ZM356.781 132.477C356.781 132.038 356.614 131.698 356.28 131.458C355.952 131.212 355.375 131.001 354.549 130.825C353.728 130.649 353.075 130.438 352.589 130.192C352.108 129.946 351.751 129.653 351.517 129.313C351.288 128.973 351.174 128.569 351.174 128.1C351.174 127.321 351.502 126.662 352.158 126.123C352.82 125.584 353.664 125.314 354.689 125.314C355.768 125.314 356.641 125.593 357.309 126.149C357.982 126.706 358.319 127.418 358.319 128.285H356.685C356.685 127.84 356.494 127.456 356.113 127.134C355.738 126.811 355.264 126.65 354.689 126.65C354.098 126.65 353.635 126.779 353.301 127.037C352.967 127.295 352.8 127.632 352.8 128.048C352.8 128.44 352.955 128.736 353.266 128.935C353.576 129.135 354.136 129.325 354.944 129.507C355.759 129.688 356.418 129.905 356.922 130.157C357.426 130.409 357.798 130.714 358.038 131.071C358.284 131.423 358.407 131.853 358.407 132.363C358.407 133.213 358.067 133.895 357.388 134.411C356.708 134.921 355.826 135.176 354.742 135.176C353.98 135.176 353.307 135.041 352.721 134.771C352.135 134.502 351.675 134.127 351.341 133.646C351.013 133.16 350.849 132.635 350.849 132.073H352.475C352.504 132.618 352.721 133.052 353.125 133.374C353.535 133.69 354.074 133.848 354.742 133.848C355.357 133.848 355.85 133.725 356.219 133.479C356.594 133.227 356.781 132.893 356.781 132.477Z" fill="#3D3D3D" fill-opacity="0.51"/>
<path d="M67.2493 82.8906L67.0471 81.6399L274.139 47.8721L274.24 47.8847L478.995 81.6399L478.78 82.8906L274.139 49.148L67.2493 82.8906Z" fill="#263238"/>
<path d="M278.788 48.4912C278.791 49.4143 278.519 50.3173 278.008 51.0858C277.496 51.8543 276.769 52.4538 275.916 52.8081C275.064 53.1625 274.126 53.2559 273.22 53.0764C272.315 52.897 271.483 52.4528 270.83 51.8001C270.178 51.1474 269.733 50.3156 269.554 49.4102C269.374 48.5047 269.468 47.5664 269.822 46.7141C270.177 45.8618 270.776 45.1339 271.545 44.6227C272.313 44.1114 273.216 43.8398 274.139 43.8423C275.371 43.8456 276.552 44.3365 277.423 45.2076C278.294 46.0787 278.785 47.2593 278.788 48.4912Z" fill="#EBEBEB"/>
<path d="M490.44 79.5684H55.6143V97.4187H490.44V79.5684Z" fill="#37474F"/>
<path opacity="0.1" d="M479.715 97.4187H66.1122V115.951H479.715V97.4187Z" fill="black"/>
<path d="M484.907 388.658H61.1475V393.105H484.907V388.658Z" fill="#37474F"/>
<path d="M274.215 393.105H271.853V408.53H274.215V393.105Z" fill="#37474F"/>
<path d="M272.914 417.196C271.826 417.199 270.763 416.879 269.857 416.276C268.952 415.674 268.246 414.817 267.828 413.813C267.41 412.809 267.299 411.703 267.51 410.637C267.72 409.57 268.243 408.589 269.011 407.82C269.779 407.05 270.758 406.525 271.824 406.312C272.891 406.099 273.996 406.207 275.001 406.623C276.006 407.038 276.865 407.743 277.469 408.647C278.074 409.551 278.396 410.613 278.396 411.701C278.396 413.156 277.819 414.552 276.791 415.582C275.764 416.612 274.369 417.193 272.914 417.196ZM272.914 408.745C272.326 408.742 271.75 408.915 271.26 409.24C270.77 409.565 270.387 410.029 270.161 410.572C269.935 411.115 269.875 411.713 269.989 412.29C270.103 412.867 270.386 413.397 270.802 413.813C271.218 414.229 271.748 414.512 272.325 414.626C272.902 414.74 273.5 414.68 274.043 414.454C274.586 414.228 275.05 413.845 275.375 413.355C275.7 412.865 275.872 412.289 275.87 411.701C275.867 410.918 275.554 410.168 275 409.614C274.447 409.061 273.697 408.748 272.914 408.745Z" fill="#37474F"/>
<path d="M424.345 348.448H386.85V351.669H424.345V348.448Z" fill="#C7C7C7"/>
<path d="M437.521 355.181H386.85V358.403H437.521V355.181Z" fill="#C7C7C7"/>
<path d="M413.733 361.915H386.85V365.136H413.733V361.915Z" fill="#C7C7C7"/>
<path d="M378.487 348.448H370.667V356.268H378.487V348.448Z" fill="#58D16F"/>
<path d="M105.54 157.463L306.82 157.16L441.399 157.463L306.82 157.766L105.54 157.463Z" fill="#C7C7C7"/>
<path d="M105.54 168.947L306.82 168.643L441.399 168.947L306.82 169.25L105.54 168.947Z" fill="#C7C7C7"/>
<path d="M105.54 180.442L306.82 180.139L441.399 180.442L306.82 180.746L105.54 180.442Z" fill="#C7C7C7"/>
<path d="M105.54 191.938L306.82 191.635L441.399 191.938L306.82 192.241L105.54 191.938Z" fill="#C7C7C7"/>
<path d="M105.54 203.422L306.82 203.119L441.399 203.422L306.82 203.725L105.54 203.422Z" fill="#C7C7C7"/>
<path d="M105.54 214.918L306.82 214.615L441.399 214.918L306.82 215.221L105.54 214.918Z" fill="#C7C7C7"/>
<path d="M105.54 226.401L306.82 226.098L441.399 226.401L306.82 226.704L105.54 226.401Z" fill="#C7C7C7"/>
<path d="M105.54 237.897L306.82 237.594L441.399 237.897L306.82 238.2L105.54 237.897Z" fill="#C7C7C7"/>
<path d="M105.54 249.393L306.82 249.09L441.399 249.393L306.82 249.696L105.54 249.393Z" fill="#C7C7C7"/>
<path d="M105.54 260.876L306.82 260.573L441.399 260.876L306.82 261.18L105.54 260.876Z" fill="#C7C7C7"/>
<path d="M105.54 272.372L306.82 272.069L441.399 272.372L306.82 272.675L105.54 272.372Z" fill="#C7C7C7"/>
<path d="M106 284.303L307.281 284L441.86 284.303L307.281 284.606L106 284.303Z" fill="#C7C7C7"/>
<path d="M105.54 295.352L306.82 295.048L441.399 295.352L306.82 295.655L105.54 295.352Z" fill="#C7C7C7"/>
<path d="M105.54 306.848L306.82 306.544L441.399 306.848L306.82 307.151L105.54 306.848Z" fill="#C7C7C7"/>
<path d="M105.54 318.331L306.82 318.04L441.399 318.331L306.82 318.634L105.54 318.331Z" fill="#C7C7C7"/>
<path d="M425.103 150.931L425.633 251.376L425.103 338.354L424.56 251.376L425.103 150.931Z" fill="#C7C7C7"/>
<path d="M404.802 150.931L405.332 251.376L404.802 338.354L404.259 251.376L404.802 150.931Z" fill="#C7C7C7"/>
<path d="M384.5 150.931L385.031 251.376L384.5 338.354L383.957 251.376L384.5 150.931Z" fill="#C7C7C7"/>
<path d="M364.199 150.931L364.743 251.376L364.199 338.354L363.669 251.376L364.199 150.931Z" fill="#C7C7C7"/>
<path d="M343.898 150.931L344.429 251.376L343.898 338.354L343.367 251.376L343.898 150.931Z" fill="#C7C7C7"/>
<path d="M323.597 150.931L324.14 251.376L323.597 338.354L323.067 251.376L323.597 150.931Z" fill="#C7C7C7"/>
<path d="M303.296 150.931L303.839 251.376L303.296 338.354L302.765 251.376L303.296 150.931Z" fill="#C7C7C7"/>
<path d="M282.995 150.931L283.538 251.376L282.995 338.354L282.464 251.376L282.995 150.931Z" fill="#C7C7C7"/>
<path d="M262.694 150.931L263.237 251.376L262.694 338.354L262.163 251.376L262.694 150.931Z" fill="#C7C7C7"/>
<path d="M242.392 150.931L242.936 251.376L242.392 338.354L241.862 251.376L242.392 150.931Z" fill="#C7C7C7"/>
<path d="M222.104 150.931L222.635 251.376L222.104 338.354L221.561 251.376L222.104 150.931Z" fill="#C7C7C7"/>
<path d="M201.803 150.931L202.333 251.376L201.803 338.354L201.26 251.376L201.803 150.931Z" fill="#C7C7C7"/>
<path d="M181.502 150.931L182.032 251.376L181.502 338.354L180.958 251.376L181.502 150.931Z" fill="#C7C7C7"/>
<path d="M161.2 150.931L161.731 251.376L161.2 338.354L160.657 251.376L161.2 150.931Z" fill="#C7C7C7"/>
<path d="M140.899 150.931L141.43 251.376L140.899 338.354L140.356 251.376L140.899 150.931Z" fill="#C7C7C7"/>
<path d="M119.057 149.391L119.891 194.983L120.459 240.563C120.851 270.958 120.977 301.34 121.04 331.735L119.057 330.611H240.131L313.566 330.749L434.653 331.116L441.399 331.785L434.653 332.455L313.566 332.821L240.131 332.96H119.057H117.061V331.836C117.137 301.441 117.25 271.059 117.642 240.664L118.223 195.084L119.057 149.391Z" fill="#C7C7C7"/>
<path d="M119.979 331.469L118.135 329.751L140.546 305.635H181.35L201.462 294.088H221.788L242.367 270.907H282.426L323.029 224.835H343.342L363.644 202.335H404.296L430.131 177.878L431.862 179.71L405.307 204.862H364.768L344.467 227.361H324.166L283.576 273.434H243.504L222.925 296.615H202.131L182.032 308.162H141.645L119.979 331.469Z" fill="#58D16F"/>
<path d="M435.727 188.022L441.399 168.946L422.046 173.57L435.727 188.022Z" fill="#58D16F"/>
<path d="M464.568 409.465C464.883 404.072 465.643 398.714 466.842 393.447C467.811 388.592 469.781 383.992 472.628 379.942C473.942 378.096 475.609 376.528 477.532 375.329C479.456 374.13 481.597 373.323 483.834 372.956C488.23 372.426 492.348 374.384 495.633 377.15C499.713 380.574 502.821 385.109 505.739 389.518C508.944 394.439 511.858 399.543 514.468 404.804C514.557 404.981 514.292 405.12 514.216 404.943C511.933 400.465 509.301 396.173 506.345 392.108C503.674 388.22 500.664 384.576 497.351 381.218C494.332 378.275 490.504 375.521 486.133 375.382C483.992 375.405 481.885 375.927 479.982 376.907C478.078 377.888 476.43 379.299 475.167 381.029C472.236 384.818 470.746 389.455 469.634 394.003C468.481 399.018 467.729 404.116 467.385 409.251C466.526 419.799 466.299 430.411 466.059 440.985C465.92 446.973 465.844 452.961 465.781 458.949L465.705 468.044C465.826 470.971 465.712 473.903 465.364 476.812C465.263 477.405 464.29 477.342 464.202 476.812C463.84 474.057 463.704 471.276 463.798 468.499C463.798 465.636 463.764 462.76 463.697 459.871C463.697 454.287 463.608 448.703 463.633 443.107C463.659 431.914 463.785 420.658 464.568 409.465Z" fill="#263238"/>
<path d="M479.639 401.507C480.195 398.525 481.206 394.647 482.898 392.335C485.956 388.179 489.215 389.986 486.208 394.584C483.943 398.005 482.476 401.89 481.913 405.954C481.913 405.954 487.055 413.293 493.283 416.906C493.017 414.077 492.222 409.744 492.777 405.537C493.965 396.479 499.435 396.984 498.083 404.185C497.096 408.97 496.672 413.854 496.82 418.738C498.886 420.086 501.109 421.176 503.44 421.985C503.086 420.936 502.707 419.673 502.29 418.195C500.092 410.072 505.511 407.533 505.676 412.106C506.03 416.002 506.736 419.858 507.785 423.627C510.754 424.625 513.217 425.307 514.733 425.838C518.618 427.29 522.088 429.671 524.84 432.773C527.661 430.226 530.002 427.192 531.75 423.817C529.868 422.2 526.874 419.774 522.717 416.843C514.936 411.348 517.664 404.4 523.817 408.72C528.276 411.828 531.725 417.563 533.291 420.57C535.4 415.409 536.597 409.92 536.828 404.349C530.739 398.551 515.58 390.554 520.178 390.554C524.284 390.554 533.468 396.567 536.828 398.892C536.743 397.313 536.57 395.74 536.311 394.18C530.55 390.39 511.841 384.528 514.835 382.81C518.106 380.953 531.169 387.004 535.11 388.912C534.37 386.346 533.199 383.924 531.649 381.749C523.69 371.099 509.339 367.423 503.086 369.457C498.652 370.897 499.94 382.09 498.993 381.749C481.18 374.611 473.095 379.677 479.639 401.507ZM523.261 400.244C524.524 398.715 530.373 403.2 528.68 405.65C526.987 408.101 521.631 402.214 523.261 400.281V400.244ZM492.739 390.655C494.281 391.628 492.007 397.313 489.644 395.595C487.623 394.167 491.198 389.708 492.739 390.693V390.655Z" fill="#58D16F"/>
<path d="M495.077 392.436C495.873 390.845 496.719 389.265 497.603 387.737C498.448 386.228 499.434 384.803 500.547 383.48C500.294 383.164 500.054 382.848 499.789 382.532C499.675 382.418 499.865 382.242 499.978 382.355L500.85 383.391C500.905 383.427 500.945 383.48 500.964 383.543C502.063 384.806 503.099 386.221 504.097 387.598C505.845 388.005 507.57 388.506 509.264 389.101C511.007 389.682 512.738 390.289 514.43 391.009C514.607 391.085 514.519 391.375 514.342 391.299C512.662 390.554 510.956 389.834 509.213 389.24C507.47 388.646 505.891 388.255 504.16 387.787C504.703 388.558 505.234 389.329 505.752 390.112C508.892 391.106 511.946 392.352 514.885 393.839C517.98 395.304 520.949 397.009 523.905 398.728C524.082 398.816 523.905 399.081 523.754 398.98C520.861 397.25 517.841 395.771 514.784 394.331C511.916 392.992 508.96 391.893 506.067 390.617C513.331 401.987 517.702 415.049 523.526 427.164C523.602 427.341 523.337 427.493 523.261 427.316C521.48 423.059 519.471 418.928 517.488 414.746C515.757 410.956 514.051 407.166 512.321 403.465C511.803 402.366 511.285 401.267 510.742 400.18C511.07 406.232 510.931 412.396 511.929 418.384C511.929 418.425 511.913 418.463 511.885 418.492C511.856 418.52 511.818 418.536 511.778 418.536C511.737 418.536 511.699 418.52 511.67 418.492C511.642 418.463 511.626 418.425 511.626 418.384C511.209 411.904 510.072 405.537 510.123 399.018C510.123 399.018 510.123 399.018 510.123 398.942C508.859 396.416 507.596 394.015 506.156 391.64C503.756 397.313 501.216 403.01 500.092 409.162C500.092 409.339 499.764 409.263 499.814 409.074C501.444 402.972 502.96 396.858 505.903 391.211C504.359 388.643 502.65 386.179 500.787 383.833C499.978 385.349 498.942 386.764 498.02 388.204C497.098 389.644 496.252 391.034 495.418 392.487C493.629 395.551 492.107 398.763 490.87 402.088C490.87 402.277 490.504 402.176 490.579 401.999C492.083 398.816 493.485 395.569 495.077 392.436Z" fill="#263238"/>
<path d="M437.774 406.218C442.448 401.544 447.88 395.405 455.068 395.417C462.029 395.417 467.145 401.039 470.089 406.787C473.171 412.825 474.27 419.673 475.142 426.33C476.16 434.295 476.775 442.306 476.986 450.333C477.113 454.792 477.1 459.264 476.986 463.724C476.987 468.245 476.645 472.759 475.963 477.228C475.837 477.948 474.7 477.974 474.637 477.228C474.422 473.438 474.637 469.648 474.637 465.934C474.637 462.22 474.637 458.531 474.46 454.83C474.182 447.339 473.639 439.873 472.767 432.432C471.996 425.926 471.39 419.243 469.445 412.977C467.689 407.317 464.391 400.837 458.656 398.348C450.824 394.95 443.181 401.153 438.052 406.395C437.875 406.547 437.647 406.357 437.774 406.218Z" fill="#263238"/>
<path d="M413.986 416.679C413.986 417.626 414.074 418.574 414.137 419.496C416.385 417.827 419.011 416.742 421.78 416.338C428.4 415.63 427.983 420.658 423.562 420.873C420.448 420.914 417.368 421.531 414.478 422.692C415.552 431.434 417.953 438.458 418.268 438.559C424.162 438.224 430.026 437.477 435.816 436.323C434.161 432.811 430.421 428.149 432.329 427.77C434.236 427.391 436.321 431.56 437.382 436.007C441.708 435.19 445.962 434.028 450.103 432.533C447.198 430.006 442.688 426.886 444.419 425.547C446.149 424.208 449.699 428.629 451.847 431.864C453.8 431.053 455.645 430.005 457.342 428.743C453.426 422.983 443.863 421.808 445.101 417.639C446.339 413.47 455.296 419.256 459.313 426.975C464.038 422.073 465.415 415.15 464.922 409.288C460.816 408.808 452.908 409.68 453.476 406.762C454.045 403.844 459.793 404.374 464.442 406.092C464.006 403.756 463.071 401.541 461.7 399.599C457.367 394.04 444.153 401.102 444.153 401.102C444.153 401.102 445.568 387.825 440.528 385.526C437.622 384.263 432.493 384.263 427.351 387.244C430.232 387.484 433.668 388.394 435.121 390.402C436.915 392.929 434.085 394.344 432.291 393.169C431.028 392.322 428.653 389.695 424.395 389.379C422.557 390.905 420.934 392.673 419.57 394.634C419.09 395.316 418.635 396.049 418.18 396.832C420.618 395.734 423.269 395.189 425.942 395.237C428.616 395.285 431.246 395.925 433.643 397.11C439.378 399.953 436.169 405.953 431.242 403.591C426.316 401.229 421.629 399.005 416.399 400.319C414.553 405.034 413.693 410.077 413.872 415.138C416.426 413.265 419.304 411.882 422.361 411.057C428.059 409.566 429.777 412.965 423.524 413.584C420.167 413.956 416.921 415.009 413.986 416.679ZM420.909 407.532C420.517 405.688 424.56 405.157 425.229 406.648C425.798 407.937 421.3 409.377 420.909 407.532ZM455.472 417.753C455.851 416.742 458.555 417.891 458.315 419.142C457.974 420.822 455.106 418.763 455.472 417.753ZM436.397 424.221C438.367 423.437 441.45 428.339 439.29 429.463C437.129 430.588 434.729 424.878 436.397 424.221Z" fill="#58D16F"/>
<path d="M419.089 437.586C422.058 432.622 424.989 427.632 428.109 422.755C429.566 420.49 431.082 418.266 432.657 416.085L431.95 415.921L430.775 415.693C429.865 415.529 428.943 415.403 428.021 415.302C427.099 415.201 426.29 415.176 425.419 415.163C424.485 415.112 423.549 415.163 422.627 415.314C422.513 415.314 422.5 415.163 422.627 415.163C423.562 415.163 424.509 415.074 425.444 415.062C426.379 415.049 427.238 415.062 428.147 415.125C429.057 415.188 429.827 415.264 430.674 415.39L432.051 415.63C432.329 415.63 432.619 415.731 432.885 415.807C434.493 413.601 436.178 411.436 437.938 409.314C432.802 406.806 427.33 405.057 421.692 404.122C421.591 404.122 421.629 403.957 421.692 403.983C427.415 404.771 432.978 406.455 438.178 408.973C439.125 407.811 440.073 406.648 441.033 405.499C441.993 404.349 443.256 402.972 444.229 401.57C444.292 401.481 444.419 401.57 444.355 401.658C443.013 403.129 441.748 404.668 440.565 406.269C442.684 407.751 444.701 409.371 446.604 411.12C448.575 412.864 450.508 414.683 452.377 416.54C452.377 416.603 452.377 416.717 452.276 416.654C450.419 414.809 448.486 413.053 446.49 411.386C444.494 409.718 442.372 408.19 440.363 406.535L438.974 408.354L438.279 409.263V409.326L435.967 412.358C436.865 413.658 437.635 415.041 438.266 416.489C438.936 417.892 439.53 419.344 440.048 420.797C441.124 423.828 441.969 426.936 442.574 430.095C442.574 430.183 442.448 430.234 442.423 430.095C441.793 426.985 440.889 423.937 439.719 420.987C439.151 419.458 438.456 417.98 437.812 416.515C437.167 415.049 436.447 413.874 435.866 412.523C435.209 413.407 434.54 414.291 433.895 415.188L433.339 415.971C433.339 416.035 433.339 416.11 433.264 416.11C431.23 418.953 429.284 421.871 427.389 424.827C427.511 425.027 427.6 425.244 427.655 425.471C427.781 425.825 427.895 426.191 427.996 426.545C428.171 427.271 428.31 428.004 428.413 428.743C428.539 429.451 428.64 430.146 428.703 430.853C428.718 431.66 428.777 432.465 428.88 433.266C428.88 433.38 428.716 433.392 428.741 433.266C428.793 432.512 428.738 431.755 428.577 431.017C428.463 430.259 428.324 429.489 428.147 428.743C427.97 427.998 427.806 427.379 427.604 426.709C427.503 426.368 427.389 426.04 427.276 425.711C427.162 425.383 427.124 425.345 427.074 425.156C426.189 426.545 425.305 427.935 424.446 429.337L419.393 437.675C419.228 437.826 419.001 437.7 419.089 437.586Z" fill="#263238"/>
<path d="M464.871 475.675C464.947 472.857 465.389 470.028 465.692 467.236C465.996 464.444 466.324 461.614 466.627 458.81C467.008 453.343 467.747 447.908 468.838 442.538C469.78 437.913 472.086 433.676 475.458 430.373C477.202 428.632 479.488 427.54 481.938 427.278C484.409 427.203 486.835 427.95 488.836 429.4C491.106 431.08 493.065 433.145 494.622 435.502C496.304 437.837 497.815 440.29 499.144 442.842C499.144 442.943 499.043 443.006 498.993 442.842C496.486 438.583 493.164 434.86 489.215 431.889C487.451 430.462 485.308 429.583 483.05 429.362C481.946 429.347 480.85 429.551 479.824 429.96C478.799 430.37 477.864 430.978 477.075 431.75C473.929 434.78 471.734 438.66 470.758 442.917C469.606 447.864 468.787 452.882 468.307 457.938C467.916 460.907 467.537 463.888 467.145 466.869C466.754 469.851 466.501 472.857 465.882 475.788C465.874 475.855 465.854 475.919 465.822 475.977C465.789 476.036 465.746 476.087 465.694 476.129C465.641 476.171 465.582 476.202 465.517 476.22C465.453 476.239 465.386 476.244 465.32 476.237C465.253 476.229 465.189 476.209 465.131 476.177C465.072 476.144 465.021 476.101 464.979 476.049C464.937 475.996 464.906 475.936 464.888 475.872C464.869 475.808 464.864 475.741 464.871 475.675Z" fill="#263238"/>
<path d="M478.705 453.832C479.579 455.009 480.612 456.059 481.774 456.953C481.307 454.211 480.751 449.373 482.128 446.733C484.288 442.703 486.828 444.711 485.552 448.223C484.263 451.384 483.561 454.753 483.48 458.166C486.404 460.003 489.539 461.483 492.816 462.574C492.468 460.995 492.366 459.372 492.512 457.761C492.942 453.453 496.239 453.529 495.38 458.014C495.064 459.752 494.916 461.516 494.938 463.282C499.697 464.749 504.563 465.847 509.491 466.566C512.009 463.302 514.039 459.689 515.517 455.841C512.018 454.957 504.905 454.755 505.057 452.253C505.259 448.88 512.144 451.47 516.174 453.921C517.111 450.988 517.539 447.915 517.437 444.838C514.277 443.962 511.034 443.424 507.76 443.233C500.534 442.614 500.888 438.521 506.131 438.61C509.921 438.685 514.873 441.048 517.184 442.273C515.681 432.445 508.19 426.154 502.177 425.914C492.07 425.509 495.708 438.079 495.708 438.079C495.708 438.079 488.861 433.266 482.393 433.392C475.925 433.519 471.794 444.219 478.705 453.832ZM505.701 435.654C505.474 434.239 509.984 433.898 510.224 435.654C510.527 437.751 505.929 437.094 505.701 435.654ZM512.952 450.409C512.864 449.487 514.809 449.322 515.252 450.485C515.58 451.243 513.054 451.318 512.952 450.409ZM488.685 451.268C490.213 451.483 491.085 456.927 488.457 456.814C486.524 456.738 487.396 451.078 488.685 451.268Z" fill="#58D16F"/>
<path d="M490.794 457.319C491.047 456.637 491.274 455.942 491.489 455.26C491.283 455.954 491.115 456.658 490.984 457.369C490.958 457.508 490.744 457.445 490.794 457.319Z" fill="#263238"/>
<path d="M491.489 455.272C491.489 455.108 491.59 454.944 491.628 454.78C491.577 454.931 491.577 455.096 491.489 455.272Z" fill="#263238"/>
<path d="M447.981 470.205L448.689 485.251L450.52 524.021H490.516L492.348 485.251L493.056 470.205H447.981Z" fill="#37474F"/>
<path d="M447.981 470.205L448.689 485.251H492.348L493.056 470.205H447.981Z" fill="#263238"/>
<path d="M445.126 476.281H495.898V464.115H445.126V476.281Z" fill="#37474F"/>
<path d="M487.282 524.021H480.258V530.388H487.282V524.021Z" fill="#37474F"/>
<path d="M487.282 524.021H480.258V527.205H487.282V524.021Z" fill="#263238"/>
<path d="M460.766 524.021H453.755V530.388H460.766V524.021Z" fill="#37474F"/>
<path d="M460.766 524.021H453.755V527.205H460.766V524.021Z" fill="#263238"/>
<path d="M9.33972 530.223L75.2585 529.92L141.19 529.807L273.027 529.592L404.865 529.807L470.796 529.92L536.715 530.223L470.796 530.539L404.865 530.653L273.027 530.855L141.19 530.64L75.2585 530.539L9.33972 530.223Z" fill="#263238"/>
<path opacity="0.1" d="M66.1121 388.495H479.715L352.337 476.875H327.475L66.1121 388.495Z" fill="#58D16F"/>
<path d="M408.844 498.831H264.235V506.688H408.844V498.831Z" fill="#37474F"/>
<path d="M400.936 506.689H272.156V514.546H400.936V506.689Z" fill="#455A64"/>
<path d="M272.168 579.782H268.985L278.232 514.546H286.343L272.168 579.782Z" fill="#455A64"/>
<path d="M286.343 514.559L285.395 521.924H277.613L278.232 514.559H286.343Z" fill="#263238"/>
<path d="M400.923 579.782H404.094L394.847 514.546H386.737L400.923 579.782Z" fill="#455A64"/>
<path d="M386.749 514.559L387.696 521.924H395.466L394.847 514.559H386.749Z" fill="#263238"/>
<path d="M372.347 472.2H299.354C295.14 472.2 291.724 475.617 291.724 479.831V487.512C291.724 491.726 295.14 495.142 299.354 495.142H372.347C376.562 495.142 379.978 491.726 379.978 487.512V479.831C379.978 475.617 376.562 472.2 372.347 472.2Z" fill="#DBDBDB"/>
<path d="M334.057 477.077H300.908V478.606H334.057V477.077Z" fill="#263238"/>
<path d="M334.057 479.628H300.908V481.157H334.057V479.628Z" fill="#263238"/>
<path d="M334.057 482.193H300.908V483.722H334.057V482.193Z" fill="#263238"/>
<path d="M334.057 484.745H300.908V486.274H334.057V484.745Z" fill="#263238"/>
<path d="M370.794 477.077H337.645V478.606H370.794V477.077Z" fill="#263238"/>
<path d="M370.794 479.628H337.645V481.157H370.794V479.628Z" fill="#263238"/>
<path d="M370.794 482.193H337.645V483.722H370.794V482.193Z" fill="#263238"/>
<path d="M370.794 484.745H337.645V486.274H370.794V484.745Z" fill="#263238"/>
<path d="M314.35 488.661H302.563V492.514H314.35V488.661Z" fill="#A6A6A6"/>
<path d="M326.705 489.103H320.552C320.157 489.103 319.778 489.26 319.498 489.54C319.219 489.819 319.062 490.198 319.062 490.594C319.062 490.989 319.219 491.368 319.498 491.648C319.778 491.927 320.157 492.084 320.552 492.084H326.705C327.1 492.084 327.479 491.927 327.759 491.648C328.038 491.368 328.195 490.989 328.195 490.594C328.195 490.198 328.038 489.819 327.759 489.54C327.479 489.26 327.1 489.103 326.705 489.103Z" fill="#A6A6A6"/>
<path d="M360.826 488.244H351.137C350.514 488.244 349.916 488.492 349.475 488.932C349.035 489.373 348.787 489.971 348.787 490.594C348.787 491.217 349.035 491.815 349.475 492.255C349.916 492.696 350.514 492.944 351.137 492.944H360.826C361.449 492.944 362.047 492.696 362.488 492.255C362.928 491.815 363.176 491.217 363.176 490.594C363.176 489.971 362.928 489.373 362.488 488.932C362.047 488.492 361.449 488.244 360.826 488.244Z" fill="#C7C7C7"/>
<path d="M340.854 490.645C340.854 491.169 340.698 491.682 340.407 492.119C340.115 492.555 339.701 492.895 339.216 493.096C338.731 493.296 338.198 493.349 337.683 493.247C337.169 493.144 336.696 492.892 336.325 492.521C335.954 492.15 335.701 491.677 335.599 491.162C335.496 490.648 335.549 490.114 335.75 489.629C335.951 489.145 336.291 488.73 336.727 488.439C337.163 488.147 337.676 487.992 338.201 487.992C338.55 487.99 338.895 488.058 339.218 488.19C339.541 488.323 339.834 488.518 340.08 488.765C340.327 489.012 340.522 489.305 340.655 489.627C340.788 489.95 340.855 490.296 340.854 490.645Z" fill="#A6A6A6"/>
<path d="M353.272 490.645C353.272 490.94 353.184 491.228 353.021 491.473C352.857 491.718 352.624 491.909 352.352 492.022C352.079 492.135 351.779 492.164 351.49 492.107C351.201 492.049 350.935 491.907 350.727 491.699C350.519 491.49 350.377 491.225 350.319 490.936C350.262 490.646 350.291 490.347 350.404 490.074C350.517 489.802 350.708 489.569 350.953 489.405C351.198 489.241 351.486 489.154 351.781 489.154C352.176 489.154 352.556 489.311 352.835 489.591C353.115 489.87 353.272 490.249 353.272 490.645Z" fill="#A6A6A6"/>
<path d="M357.466 490.645C357.466 490.94 357.379 491.228 357.215 491.473C357.051 491.718 356.818 491.909 356.546 492.022C356.273 492.135 355.974 492.164 355.684 492.107C355.395 492.049 355.13 491.907 354.921 491.699C354.713 491.49 354.571 491.225 354.513 490.936C354.456 490.646 354.485 490.347 354.598 490.074C354.711 489.802 354.902 489.569 355.147 489.405C355.392 489.241 355.68 489.154 355.975 489.154C356.371 489.154 356.75 489.311 357.029 489.591C357.309 489.87 357.466 490.249 357.466 490.645Z" fill="#A6A6A6"/>
<path d="M361.66 490.645C361.66 490.94 361.573 491.228 361.409 491.473C361.245 491.718 361.012 491.909 360.74 492.022C360.468 492.135 360.168 492.164 359.879 492.107C359.59 492.049 359.324 491.907 359.115 491.699C358.907 491.49 358.765 491.225 358.707 490.936C358.65 490.646 358.679 490.347 358.792 490.074C358.905 489.802 359.096 489.569 359.341 489.405C359.586 489.241 359.875 489.154 360.17 489.154C360.565 489.154 360.944 489.311 361.224 489.591C361.503 489.87 361.66 490.249 361.66 490.645Z" fill="#A6A6A6"/>
<path d="M312.897 489.28H303.991V491.908H312.897V489.28Z" fill="#455A64"/>
<path d="M325.921 489.482H321.323C321.028 489.482 320.745 489.6 320.537 489.808C320.328 490.017 320.211 490.299 320.211 490.594C320.211 490.889 320.328 491.172 320.537 491.38C320.745 491.589 321.028 491.706 321.323 491.706H325.921C326.216 491.706 326.499 491.589 326.707 491.38C326.916 491.172 327.033 490.889 327.033 490.594C327.033 490.299 326.916 490.017 326.707 489.808C326.499 489.6 326.216 489.482 325.921 489.482Z" fill="#37474F"/>
<path d="M339.982 490.644C339.982 491.002 339.876 491.351 339.678 491.648C339.479 491.945 339.197 492.177 338.867 492.313C338.537 492.45 338.174 492.486 337.823 492.416C337.473 492.347 337.151 492.174 336.898 491.922C336.645 491.669 336.473 491.347 336.404 490.997C336.334 490.646 336.37 490.283 336.507 489.953C336.643 489.623 336.875 489.341 337.172 489.142C337.469 488.944 337.818 488.838 338.176 488.838C338.413 488.836 338.649 488.882 338.869 488.972C339.089 489.062 339.289 489.195 339.457 489.363C339.625 489.531 339.758 489.731 339.848 489.951C339.938 490.171 339.984 490.407 339.982 490.644Z" fill="#263238"/>
<path d="M352.842 490.644C352.839 490.923 352.726 491.19 352.527 491.386C352.329 491.583 352.061 491.693 351.781 491.693C351.503 491.693 351.237 491.582 351.04 491.386C350.843 491.189 350.733 490.922 350.733 490.644C350.733 490.365 350.843 490.097 351.039 489.898C351.235 489.7 351.502 489.586 351.781 489.583C352.062 489.586 352.33 489.699 352.528 489.897C352.726 490.096 352.839 490.364 352.842 490.644Z" fill="#455A64"/>
<path d="M355.975 491.642C356.555 491.642 357.024 491.173 357.024 490.594C357.024 490.015 356.555 489.545 355.975 489.545C355.396 489.545 354.927 490.015 354.927 490.594C354.927 491.173 355.396 491.642 355.975 491.642Z" fill="#58D16F"/>
<path d="M361.231 490.644C361.227 490.923 361.114 491.19 360.915 491.386C360.717 491.583 360.449 491.693 360.169 491.693C359.891 491.693 359.625 491.582 359.428 491.386C359.231 491.189 359.121 490.922 359.121 490.644C359.121 490.365 359.231 490.097 359.427 489.898C359.623 489.7 359.89 489.586 360.169 489.583C360.45 489.586 360.718 489.699 360.916 489.897C361.114 490.096 361.227 490.364 361.231 490.644Z" fill="white"/>
<path d="M352.324 490.645C352.324 490.789 352.267 490.927 352.165 491.029C352.063 491.13 351.925 491.188 351.781 491.188C351.637 491.188 351.499 491.13 351.397 491.029C351.295 490.927 351.238 490.789 351.238 490.645C351.238 490.5 351.295 490.362 351.397 490.26C351.499 490.159 351.637 490.101 351.781 490.101C351.925 490.101 352.063 490.159 352.165 490.26C352.267 490.362 352.324 490.5 352.324 490.645Z" fill="#263238"/>
<path d="M355.975 491.137C356.275 491.137 356.519 490.894 356.519 490.594C356.519 490.294 356.275 490.051 355.975 490.051C355.675 490.051 355.432 490.294 355.432 490.594C355.432 490.894 355.675 491.137 355.975 491.137Z" fill="#263238"/>
<path d="M360.725 490.645C360.722 490.79 360.662 490.928 360.558 491.03C360.454 491.131 360.315 491.188 360.169 491.188C360.025 491.188 359.887 491.131 359.785 491.029C359.683 490.927 359.626 490.789 359.626 490.645C359.626 490.499 359.683 490.36 359.785 490.256C359.886 490.152 360.024 490.092 360.169 490.089C360.317 490.089 360.458 490.147 360.563 490.252C360.667 490.356 360.725 490.497 360.725 490.645Z" fill="#263238"/>
<path d="M309.928 495.129H303.119V497.53H309.928V495.129Z" fill="#37474F"/>
<path d="M308.766 497.53H304.281V499.134H308.766V497.53Z" fill="#263238"/>
<path d="M367.433 497.53H362.949V499.134H367.433V497.53Z" fill="#263238"/>
<path d="M368.596 495.129H361.786V497.53H368.596V495.129Z" fill="#37474F"/>
<path d="M211.328 572.759C208.612 573.631 128.544 572.62 125.626 570.713C124.514 570.005 130.136 494.675 130.136 494.675L181.931 495.193L176.423 545.598C176.423 545.598 205.845 559.217 208.839 561.655C211.833 564.093 214.044 571.849 211.328 572.759Z" fill="#F97853"/>
<path d="M212.212 573.807C209.357 574.742 128.506 573.984 125.424 571.988C124.236 571.243 125.942 544.575 125.942 544.436H175.956V545.32C175.956 545.32 207.033 559.57 210.191 562.134C213.349 564.699 215.067 572.898 212.212 573.807Z" fill="#58D16F"/>
<path d="M211.997 570.649C198.253 570.182 142.794 569.601 129.176 570.182C129.062 570.182 129.062 570.257 129.176 570.27C142.782 571.028 198.24 571.154 211.985 570.864C212.275 570.864 212.275 570.649 211.997 570.649Z" fill="#263238"/>
<path d="M181.817 544.638C176.41 543.577 169.791 544.347 165.622 548.162C165.458 548.301 165.622 548.529 165.849 548.478C171.031 546.86 176.372 545.801 181.779 545.32C181.87 545.325 181.959 545.294 182.026 545.233C182.094 545.173 182.134 545.088 182.139 544.998C182.144 544.907 182.113 544.819 182.053 544.751C181.993 544.684 181.908 544.643 181.817 544.638Z" fill="#263238"/>
<path d="M185.696 547.025C180.301 545.964 173.669 546.735 169.513 550.55C169.349 550.689 169.513 550.916 169.728 550.866C174.914 549.246 180.259 548.187 185.67 547.707C185.761 547.711 185.849 547.678 185.915 547.616C185.982 547.555 186.021 547.469 186.024 547.379C186.027 547.289 185.995 547.2 185.933 547.134C185.872 547.068 185.786 547.029 185.696 547.025Z" fill="#263238"/>
<path d="M189.574 549.413C184.18 548.352 177.56 549.123 173.391 552.938C173.227 553.089 173.391 553.317 173.619 553.254C178.8 551.633 184.141 550.574 189.549 550.095C189.639 550.099 189.727 550.066 189.794 550.004C189.86 549.943 189.899 549.857 189.902 549.767C189.906 549.676 189.873 549.588 189.811 549.522C189.75 549.456 189.664 549.417 189.574 549.413Z" fill="#263238"/>
<path d="M179.657 545.181H123.958C123.958 545.181 135.328 414.771 134.873 412.535C134.317 409.617 131.083 396.454 126.649 379.247C125.285 373.866 123.807 368.093 122.266 362.105C118.109 345.922 113.536 328.223 109.544 312.836C103.556 289.781 98.882 271.867 98.882 271.867H146.091C146.091 271.867 151.599 289.301 158.535 311.99C169.829 348.878 184.925 399.637 186.416 411.979C188.816 431.876 179.657 545.181 179.657 545.181Z" fill="#37474F"/>
<path d="M177.194 535.681C168.679 535.504 171.13 535.428 162.615 535.352C158.446 535.352 131.096 535.074 127.243 535.719C127.155 535.719 127.155 535.87 127.243 535.896C131.134 536.54 158.484 536.3 162.615 536.249C171.13 536.173 168.679 536.11 177.194 535.921C177.219 535.913 177.241 535.896 177.257 535.875C177.272 535.853 177.281 535.827 177.281 535.801C177.281 535.774 177.272 535.748 177.257 535.727C177.241 535.705 177.219 535.689 177.194 535.681Z" fill="#263238"/>
<path d="M107.46 278.234L116.126 308.819L124.59 339.466C127.407 349.674 130.123 359.919 132.839 370.164C135.556 380.41 138.234 390.655 140.735 400.964C141.329 403.553 141.998 406.13 142.453 408.745C142.592 409.402 142.68 410.084 142.807 410.741C142.807 411.108 142.87 411.512 142.807 411.853L142.731 412.851L142.428 416.805L141.165 432.647L138.638 464.343L136.111 496.026L133.421 527.697L135.53 495.976L137.766 464.267L140.154 432.533L141.329 416.679L141.632 412.712V411.727C141.632 411.411 141.632 411.158 141.632 410.855C141.518 410.223 141.43 409.592 141.291 408.935C140.786 406.408 140.154 403.781 139.56 401.204C134.595 380.624 129.062 360.159 123.693 339.668L107.46 278.234Z" fill="#263238"/>
<path d="M144.955 271.842C141.67 297.196 129.795 339.314 125.26 373.802C114.61 332.013 98.8695 271.842 98.8695 271.842H144.955Z" fill="#263238"/>
<path d="M31.1695 572.316C33.8982 573.163 101.156 573.466 104.062 571.521C105.186 570.8 105.578 559.456 105.666 545.737V545.307C105.666 542.477 112.197 494.978 112.197 494.978L61.3875 496.026L55.5132 545.914V546.76C55.5132 546.76 36.5637 558.648 33.5697 561.136C30.5757 563.625 28.4281 571.495 31.1695 572.316Z" fill="#F97853"/>
<path d="M27.847 573.807C30.702 574.742 103.026 573.984 106.171 571.988C107.359 571.243 105.653 544.575 105.653 544.436H55.5763V545.32C55.5763 545.32 33.0012 559.57 29.8809 562.134C26.7606 564.699 24.9919 572.898 27.847 573.807Z" fill="#58D16F"/>
<path d="M28.0617 570.649C41.8064 570.182 88.6999 569.601 102.356 570.182C102.47 570.182 102.47 570.257 102.356 570.27C88.7504 571.028 41.8064 571.154 28.0617 570.864C27.7712 570.864 27.7712 570.649 28.0617 570.649Z" fill="#263238"/>
<path d="M53.0749 545.926C58.3807 544.448 65.0383 544.663 69.4977 548.175C69.662 548.314 69.4977 548.554 69.2956 548.516C64.0191 547.305 58.6274 546.665 53.2139 546.609C53.131 546.61 53.0501 546.583 52.9853 546.531C52.9205 546.48 52.8759 546.407 52.8594 546.326C52.8428 546.244 52.8553 546.16 52.8947 546.087C52.9341 546.014 52.9979 545.957 53.0749 545.926Z" fill="#263238"/>
<path d="M49.424 548.605C54.7172 547.127 61.3874 547.342 65.8468 550.866C66.0237 550.993 65.8468 551.245 65.6447 551.195C60.3208 549.985 54.8833 549.345 49.424 549.287C49.3493 549.267 49.2833 549.222 49.2364 549.16C49.1894 549.099 49.1639 549.024 49.1639 548.946C49.1639 548.869 49.1894 548.793 49.2364 548.732C49.2833 548.67 49.3493 548.625 49.424 548.605Z" fill="#263238"/>
<path d="M45.7098 551.283C51.0156 549.805 57.6732 550.02 62.1326 553.532C62.3095 553.67 62.1326 553.91 61.9432 553.873C56.6495 552.659 51.2414 552.016 45.8109 551.952C45.7276 551.955 45.6464 551.927 45.5825 551.873C45.5186 551.82 45.4765 551.745 45.464 551.662C45.4516 551.58 45.4697 551.496 45.515 551.426C45.5603 551.356 45.6296 551.305 45.7098 551.283Z" fill="#263238"/>
<path d="M144.954 271.842C144.954 271.842 137.791 315.463 137.299 316.866C137.299 316.866 134.646 318.129 129.845 320.352L108.963 545.522L52.9862 545.749L83.8611 271.842H144.954Z" fill="#37474F"/>
<path d="M107.043 535.567C98.4903 535.428 100.954 535.34 92.4013 535.302C88.2071 535.302 60.7178 535.15 56.8016 535.82C56.7132 535.82 56.7258 535.972 56.8016 535.997C60.7178 536.629 88.2198 536.262 92.4013 536.212C100.954 536.085 98.4903 536.035 107.043 535.82C107.076 535.82 107.108 535.807 107.132 535.783C107.156 535.759 107.169 535.727 107.169 535.694C107.169 535.66 107.156 535.628 107.132 535.604C107.108 535.581 107.076 535.567 107.043 535.567Z" fill="#263238"/>
<path d="M139.636 315.514C134.066 317.832 128.71 320.635 123.63 323.889C123.598 323.917 123.576 323.954 123.568 323.996C123.56 324.037 123.565 324.08 123.584 324.117C123.603 324.155 123.634 324.185 123.672 324.203C123.71 324.222 123.753 324.227 123.794 324.218C129.201 321.59 134.709 319.063 139.952 316.145C140.03 316.1 140.088 316.027 140.114 315.941C140.14 315.854 140.132 315.761 140.091 315.681C140.051 315.6 139.981 315.538 139.897 315.507C139.812 315.476 139.719 315.478 139.636 315.514Z" fill="#263238"/>
<path d="M137.577 290.526C136.692 295.743 136.2 301.049 135.619 306.305C135.467 307.568 135.315 308.831 135.189 310.094C135.15 311.258 134.839 312.396 134.28 313.417C133.143 315.173 131.109 315.944 129.226 316.803C129.012 316.891 129.1 317.232 129.34 317.156C131.322 316.68 133.151 315.711 134.659 314.339C136.339 312.571 136.288 309.88 136.541 307.593C137.296 301.942 137.718 296.252 137.804 290.551C137.855 290.412 137.589 290.387 137.577 290.526Z" fill="#263238"/>
<path d="M131.222 292.118C131.033 295.908 130.616 299.698 130.3 303.399C130.149 305.243 130.022 307.1 129.909 308.957C129.795 310.815 129.567 312.747 129.631 314.668C129.631 314.698 129.643 314.727 129.664 314.748C129.685 314.769 129.714 314.781 129.744 314.781C129.774 314.781 129.803 314.769 129.825 314.748C129.846 314.727 129.858 314.698 129.858 314.668C130.174 312.874 130.212 311.017 130.363 309.21C130.515 307.404 130.641 305.42 130.755 303.513C130.957 299.723 131.071 295.933 131.412 292.143C131.424 292.004 131.222 292.004 131.222 292.118Z" fill="#263238"/>
<path d="M128.696 325.936L125.702 351.543L122.581 377.137L116.139 428.288L109.418 479.413L105.956 504.957L102.381 530.489L105.375 504.882L108.508 479.287L114.951 428.136L121.659 377.011L125.121 351.467L128.696 325.936Z" fill="#263238"/>
<path d="M128.595 220.3C142.491 232.402 168.262 248.977 178.634 251.478C190.168 254.27 211.631 225.719 225.793 208.21C228.61 204.723 202.952 181.176 200.135 185.041C192.77 195.148 178.129 217.887 175.324 218.14C173.025 218.367 150.702 211.381 138.145 207.301C118.147 200.744 118.905 211.709 128.595 220.3Z" fill="#F97853"/>
<path d="M238.451 192.974C235.571 199.291 224.555 210.104 220.891 211.671C217.227 213.237 198.354 195.122 198.783 191.067C199.213 187.011 210.608 166.268 216.987 163.021C223.367 159.775 241.445 186.355 238.451 192.974Z" fill="#F97853"/>
<path d="M200.11 187.189C200.355 181.529 199.772 175.865 198.379 170.374C196.497 163.893 192.959 154.482 196.408 153.332C203.483 150.983 212.288 174.467 212.288 174.467C212.288 174.467 214.511 185.445 207.702 188.363C206.451 188.887 205.08 189.054 203.74 188.847C202.4 188.639 201.144 188.065 200.11 187.189Z" fill="#F97853"/>
<path d="M208.182 169.982C210.368 172.976 212.718 171.031 212.718 171.031C212.718 171.031 207.74 176.236 209.66 179.874C211.581 183.512 216.356 180.013 216.71 179.773C216.444 180.051 211.998 184.952 214.297 188.401C216.596 191.85 220.98 187.782 221.257 187.517C221.093 187.845 218.996 192.38 221.346 194.591C225.376 198.381 231.048 187.011 235.369 185.748C235.369 185.748 238.325 192.823 238.451 193.012C238.451 193.012 244.073 182.249 242.064 176.526C241.784 175.689 241.227 174.973 240.486 174.495C239.744 174.017 238.861 173.807 237.984 173.898C237.984 173.898 240.169 170.627 238.438 167.86C237.554 166.445 234.484 166.597 234.484 166.597C234.951 165.837 235.198 164.962 235.198 164.07C235.198 163.178 234.951 162.303 234.484 161.543C233.145 159.648 230.277 160.103 230.277 160.103C230.277 160.103 243.719 147.875 240.965 144.628C236.24 139.044 211.682 165.99 208.473 165.725C206.818 165.573 207.235 168.668 208.182 169.982Z" fill="#F97853"/>
<path d="M229.759 160.09C229.823 160.09 229.759 159.964 229.759 159.989C223.005 161.871 216.986 165.766 212.503 171.157C212.364 171.321 212.288 172.42 212.503 172.168C216.583 167.531 223.279 163.097 229.759 160.09Z" fill="#263238"/>
<path d="M234.547 166.483C234.623 166.483 234.547 166.344 234.547 166.357C227.127 168.513 220.721 173.249 216.482 179.71C216.343 179.937 216.482 180.291 216.634 180.038C219.653 175.781 228.698 169.174 234.547 166.483Z" fill="#263238"/>
<path d="M221.131 188.06C225.325 181.744 231.111 177.486 237.693 173.924C237.781 173.924 237.693 173.76 237.63 173.785C233.928 174.644 229.974 177.36 227.068 179.722C224.334 181.871 222.209 184.698 220.904 187.921C220.853 188.047 221.03 188.199 221.131 188.06Z" fill="#263238"/>
<path d="M212.591 171.031C212.427 171.233 213.248 171.233 213.096 171.461C211.391 173.798 208.536 178.156 210.14 179.975C211.404 181.428 214.259 180.72 215.194 179.975L217.72 178.207L216.002 180.733C215.234 181.845 214.65 183.074 214.271 184.371C214.067 184.966 213.989 185.597 214.043 186.224C214.098 186.851 214.283 187.459 214.587 188.01C214.874 188.518 215.327 188.911 215.87 189.123C216.414 189.335 217.014 189.352 217.569 189.172C218.806 188.758 219.916 188.031 220.79 187.062L223.317 184.472L221.788 187.719C221.372 188.627 221.066 189.581 220.878 190.562C220.67 191.487 220.736 192.453 221.068 193.341C221.238 193.733 221.513 194.071 221.863 194.316C222.213 194.561 222.625 194.705 223.051 194.73C224.012 194.635 224.927 194.272 225.692 193.682C227.36 192.425 228.927 191.04 230.378 189.538C231.136 188.806 231.894 188.073 232.703 187.378C233.457 186.623 234.367 186.041 235.368 185.673C234.414 186.144 233.556 186.791 232.842 187.58C232.109 188.338 231.414 189.121 230.707 189.917C229.331 191.548 227.804 193.045 226.146 194.389C225.26 195.134 224.175 195.604 223.026 195.741C222.392 195.748 221.771 195.57 221.237 195.229C220.703 194.888 220.28 194.399 220.019 193.821C219.57 192.734 219.456 191.537 219.691 190.385C219.868 189.284 220.196 188.213 220.664 187.201L221.649 187.858C220.633 189.023 219.325 189.895 217.859 190.385C217.031 190.652 216.134 190.612 215.333 190.271C214.564 189.932 213.917 189.368 213.475 188.654C213.089 187.959 212.854 187.19 212.786 186.397C212.719 185.604 212.82 184.806 213.084 184.056C213.513 182.628 214.18 181.283 215.055 180.076L215.813 180.834C214.549 181.681 211.442 182.83 209.168 180.834C206.679 177.815 211.618 172.029 212.591 171.031Z" fill="#263238"/>
<path d="M196.295 188.364L227.372 214.375C227.372 214.375 190.509 255.091 180.554 253.145C170.599 251.2 140.76 233.968 126.649 220.123C112.538 206.277 124.919 202.992 135.05 205.784C145.182 208.576 173.644 217.52 175.084 217.47C177.851 217.356 196.295 188.364 196.295 188.364Z" fill="#58D16F"/>
<path d="M219.577 217.988C218.44 217.104 217.404 216.017 216.343 215.044C215.282 214.072 214.158 213.112 213.059 212.164C210.928 210.336 208.822 208.496 206.742 206.643C202.447 202.854 198.227 199.064 193.743 195.539C193.743 195.539 193.591 195.539 193.642 195.653C197.554 199.786 201.7 203.692 206.06 207.351C208.22 209.221 210.393 211.065 212.604 212.871C213.715 213.794 214.852 214.703 216.015 215.575C217.177 216.447 218.415 217.23 219.514 218.102C219.552 218.228 219.666 218.064 219.577 217.988Z" fill="#263238"/>
<path opacity="0.1" d="M126.662 220.11C136.983 230.216 155.718 242.192 168.944 248.622L124.236 205.43C119.36 206.921 117.832 211.456 126.662 220.11Z" fill="black"/>
<path d="M159.457 299.053C158.345 300.481 78.3659 306.267 77.9238 305.799C76.6605 304.536 91.82 223.243 106.575 205.898C110.934 200.769 125.841 202.462 127.584 203.738C132.182 207.111 136.427 213.768 139.952 222.422C147.077 239.729 160.43 297.802 159.457 299.053Z" fill="white"/>
<path d="M110.795 203.409C110.795 203.409 120.636 244.492 120.636 255.583C120.636 273.269 119.448 309.412 119.448 309.412H73.856C73.856 309.412 83.4318 269.997 84.4298 265.386C85.4278 260.775 94.0435 232.996 94.0435 232.996C94.0435 232.996 102.773 203.409 110.795 203.409Z" fill="#58D16F"/>
<path d="M127.584 203.409C132.295 213.574 136.153 224.112 139.118 234.916C143.476 251.402 151.448 308.187 151.448 308.187L162.615 300.026C162.615 300.026 147.279 240.727 142.503 228.385C137.728 216.042 131.424 205.153 130.944 204.849C129.929 204.154 128.788 203.665 127.584 203.409Z" fill="#58D16F"/>
<path d="M126.371 214.956C126.99 222.094 127.736 229.219 128.506 236.344C129.277 243.469 130.161 250.568 131.033 257.681C131.905 264.793 132.827 271.893 133.799 278.992L135.29 289.629C135.833 293.167 136.326 296.716 136.907 300.254C136.617 296.679 136.238 293.116 135.909 289.554L134.772 278.866C134.002 271.754 133.117 264.641 132.246 257.529C131.374 250.417 130.452 243.317 129.479 236.217C128.506 229.118 127.508 222.031 126.371 214.956Z" fill="#263238"/>
<path d="M123.794 237.417C123.821 237.683 123.926 237.936 124.096 238.143C124.267 238.349 124.494 238.501 124.751 238.578C125.007 238.655 125.281 238.654 125.537 238.575C125.793 238.496 126.02 238.343 126.189 238.135C126.357 237.927 126.461 237.674 126.485 237.407C126.51 237.14 126.455 236.872 126.327 236.637C126.199 236.402 126.004 236.21 125.767 236.086C125.529 235.961 125.26 235.91 124.994 235.939C124.64 235.977 124.315 236.154 124.09 236.431C123.865 236.708 123.759 237.062 123.794 237.417Z" fill="#263238"/>
<path d="M125.752 251.111C125.763 251.292 125.811 251.469 125.892 251.632C125.973 251.794 126.085 251.939 126.223 252.056C126.361 252.174 126.521 252.263 126.694 252.318C126.867 252.373 127.05 252.392 127.23 252.374C127.418 252.372 127.603 252.33 127.774 252.252C127.945 252.174 128.097 252.061 128.222 251.921C128.347 251.781 128.441 251.616 128.498 251.437C128.556 251.259 128.576 251.07 128.556 250.883C128.537 250.697 128.479 250.516 128.386 250.353C128.293 250.19 128.167 250.048 128.016 249.936C127.865 249.825 127.693 249.746 127.509 249.704C127.326 249.663 127.137 249.66 126.952 249.696C126.61 249.734 126.294 249.902 126.071 250.165C125.848 250.428 125.734 250.767 125.752 251.111Z" fill="#263238"/>
<path d="M127.748 264.805C127.773 265.067 127.875 265.315 128.04 265.519C128.204 265.723 128.426 265.874 128.676 265.953C128.926 266.033 129.193 266.037 129.446 265.966C129.698 265.894 129.924 265.75 130.096 265.552C130.267 265.353 130.376 265.108 130.409 264.848C130.443 264.588 130.399 264.323 130.284 264.088C130.168 263.852 129.986 263.656 129.76 263.523C129.534 263.39 129.274 263.326 129.012 263.34C128.831 263.349 128.654 263.395 128.492 263.475C128.33 263.554 128.185 263.666 128.067 263.803C127.949 263.94 127.86 264.099 127.805 264.272C127.75 264.444 127.731 264.625 127.748 264.805Z" fill="#263238"/>
<path d="M129.681 278.512C129.708 278.778 129.813 279.031 129.983 279.238C130.154 279.444 130.381 279.596 130.638 279.673C130.894 279.75 131.168 279.749 131.424 279.67C131.68 279.591 131.907 279.438 132.076 279.23C132.244 279.022 132.348 278.769 132.372 278.502C132.397 278.235 132.342 277.967 132.214 277.732C132.086 277.497 131.891 277.305 131.654 277.181C131.416 277.056 131.148 277.005 130.881 277.034C130.705 277.051 130.534 277.103 130.378 277.187C130.222 277.271 130.084 277.385 129.973 277.522C129.861 277.66 129.778 277.818 129.728 277.988C129.678 278.158 129.662 278.336 129.681 278.512Z" fill="#263238"/>
<path d="M131.639 292.206C131.704 292.537 131.89 292.832 132.162 293.033C132.433 293.234 132.77 293.326 133.105 293.291C133.441 293.256 133.752 293.097 133.976 292.845C134.2 292.593 134.322 292.266 134.317 291.928C134.253 291.597 134.066 291.302 133.795 291.101C133.524 290.9 133.187 290.808 132.851 290.843C132.516 290.878 132.205 291.037 131.981 291.289C131.757 291.542 131.635 291.869 131.639 292.206Z" fill="#263238"/>
<path d="M102.44 242.713L95.1783 304.619L142.731 310.197L149.993 248.29L102.44 242.713Z" fill="#455A64"/>
<path d="M114.289 247.838L136.826 250.454L137.619 243.627L115.081 241.011L114.289 247.838Z" fill="#A6A6A6"/>
<path d="M120.219 241.598L122.998 241.914L123.365 238.769L130.111 239.552L129.744 242.697L132.524 243.026L133.181 237.278L120.851 235.85L120.219 241.598Z" fill="#A6A6A6"/>
<path d="M99.9556 210.559C74.9171 234.966 45.0907 281.582 55.1592 289.275C64.3559 296.299 98.1112 300.531 112.349 300.733C116.543 300.797 116.353 268.178 111.881 268.115C106.462 268.027 92.9317 266.586 92.4137 266.422C91.3147 266.056 103.518 230.09 108.432 218.948C114.509 205.14 108.723 202.007 99.9556 210.559Z" fill="#F97853"/>
<path d="M154.277 271.412C154.553 272.389 154.527 273.426 154.205 274.388C153.883 275.35 153.279 276.193 152.471 276.806C153.792 277.917 154.686 279.454 154.997 281.152C155.427 284.171 150.879 286.205 150.879 286.205C152.031 287.651 152.715 289.414 152.837 291.259C152.951 294.189 148.656 296.855 148.656 296.855C148.973 298.749 148.601 300.694 147.607 302.338C144.777 306.633 136.932 306.431 131.942 306.355C126.952 306.279 112.866 301.403 110.087 300.746L110.289 268.709C110.289 268.709 132.763 262.67 138.612 263.592C143.628 264.262 153.09 267.711 154.277 271.412Z" fill="#F97853"/>
<path d="M152.307 276.301C147.254 274.217 141.872 273.775 136.516 272.953C136.496 272.961 136.48 272.973 136.468 272.99C136.456 273.007 136.45 273.028 136.45 273.048C136.45 273.069 136.456 273.089 136.468 273.106C136.48 273.123 136.496 273.136 136.516 273.143C141.847 273.85 146.963 275.669 152.256 276.541C152.284 276.54 152.312 276.53 152.333 276.512C152.355 276.493 152.37 276.469 152.376 276.441C152.381 276.413 152.378 276.384 152.365 276.359C152.353 276.334 152.332 276.313 152.307 276.301Z" fill="#263238"/>
<path d="M150.854 285.738C149.661 285.372 148.425 285.168 147.178 285.132C145.914 285.006 144.55 284.905 143.236 284.816C140.6 284.656 137.96 284.559 135.315 284.526C135.202 284.526 135.164 284.703 135.315 284.715C137.943 284.879 140.571 285.081 143.186 285.359C144.449 285.498 145.801 285.65 147.115 285.814C148.338 286.045 149.584 286.138 150.829 286.092C150.866 286.081 150.898 286.059 150.922 286.029C150.946 285.999 150.961 285.962 150.964 285.924C150.966 285.886 150.957 285.847 150.938 285.814C150.918 285.781 150.889 285.755 150.854 285.738Z" fill="#263238"/>
<path d="M148.618 296.741C147.535 296.431 146.408 296.303 145.283 296.362L141.67 296.198C139.269 296.072 136.869 295.945 134.469 295.731C134.355 295.731 134.33 295.908 134.469 295.92C136.907 296.148 139.333 296.4 141.771 296.615L145.358 296.893C146.445 297.089 147.557 297.089 148.643 296.893L148.618 296.741Z" fill="#263238"/>
<path d="M128.557 330.206C128.568 330.189 128.574 330.169 128.574 330.149C128.574 330.129 128.568 330.109 128.557 330.092C128.54 330.081 128.52 330.074 128.5 330.074C128.48 330.074 128.46 330.081 128.443 330.092C128.443 330.256 128.317 330.42 128.241 330.585C128.236 330.61 128.239 330.636 128.25 330.659C128.262 330.682 128.281 330.7 128.304 330.711C128.316 330.715 128.328 330.716 128.34 330.715C128.352 330.714 128.364 330.71 128.375 330.704C128.385 330.698 128.395 330.69 128.402 330.681C128.41 330.671 128.415 330.66 128.418 330.648L128.557 330.206Z" fill="#263238"/>
<path d="M111.452 266.372L107.447 305.066C107.447 305.066 55.9299 296.729 52.2663 287.254C47.8069 275.682 78.2776 230.886 94.5867 214.766C110.896 198.646 114.799 205.165 108.685 220.565C102.571 235.964 93.3361 264.211 93.5256 264.894C93.715 265.576 111.452 266.372 111.452 266.372Z" fill="#58D16F"/>
<path d="M100.373 302.035C100.461 300.594 100.764 299.129 100.954 297.702C101.143 296.274 101.308 294.809 101.459 293.356C101.745 290.56 102.049 287.768 102.369 284.98C103 279.321 103.771 273.61 104.112 267.976C104.112 267.956 104.104 267.937 104.09 267.923C104.076 267.908 104.056 267.9 104.036 267.9C104.016 267.9 103.997 267.908 103.983 267.923C103.968 267.937 103.96 267.956 103.96 267.976C102.789 273.548 101.946 279.183 101.434 284.854C101.122 287.684 100.849 290.522 100.613 293.368C100.486 294.809 100.385 296.261 100.322 297.714C100.259 299.167 100.322 300.632 100.208 302.06C100.171 302.148 100.36 302.161 100.373 302.035Z" fill="#263238"/>
<path d="M63.6234 270.528C66.799 269.121 70.0759 267.956 73.4265 267.041C72.8833 267.041 72.3527 267.117 71.8095 267.193C70.5462 267.344 69.4219 267.534 68.2344 267.786C68.1586 267.786 68.1081 267.673 68.2344 267.647C69.4036 267.24 70.616 266.968 71.8474 266.839C72.4538 266.839 73.1107 266.75 73.6666 266.738H74.4245C80.8534 265.029 87.5242 264.414 94.1572 264.919C94.184 264.919 94.2097 264.929 94.2287 264.948C94.2476 264.967 94.2583 264.993 94.2583 265.02C94.2583 265.046 94.2476 265.072 94.2287 265.091C94.2097 265.11 94.184 265.121 94.1572 265.121C83.7681 265.199 73.4697 267.062 63.7118 270.629L63.6234 270.528Z" fill="#263238"/>
<path d="M99.7284 265.69C98.1366 265.69 96.5575 265.601 94.9658 265.45C94.5404 265.419 94.1181 265.356 93.7025 265.26C93.5852 265.234 93.471 265.196 93.3614 265.147C93.3614 265.147 93.3614 265.147 93.2224 265.008C93.1993 264.938 93.1993 264.863 93.2224 264.793C93.2224 264.704 93.2224 264.666 93.2224 264.603L93.3361 263.997C93.513 263.201 93.7277 262.443 93.9299 261.672C94.7889 258.603 95.7995 255.596 96.7723 252.564C97.745 249.532 98.8315 246.563 99.9305 243.582C101.03 240.601 102.154 237.645 103.392 234.739C102.533 237.796 101.585 240.828 100.625 243.847L97.6692 252.893L94.612 261.9C94.372 262.658 94.1194 263.403 93.9046 264.161C93.8506 264.339 93.8084 264.521 93.7783 264.704C93.7749 264.742 93.7749 264.78 93.7783 264.818C93.7783 264.818 93.7783 264.818 93.7783 264.742C93.7783 264.666 93.7783 264.742 93.7783 264.742L93.9804 264.831C94.3341 264.932 94.7384 264.995 95.1174 265.071C96.5828 265.298 98.1619 265.475 99.7284 265.69Z" fill="#263238"/>
<path d="M103.607 238.693C103.291 239.497 102.866 240.254 102.343 240.942C101.863 241.648 101.285 242.282 100.625 242.824C100.941 242.02 101.366 241.263 101.889 240.575C102.369 239.869 102.947 239.235 103.607 238.693Z" fill="#263238"/>
<path d="M95.3826 302.843C92.1612 302.477 88.9903 301.833 85.8321 301.163C84.253 300.784 82.6865 300.418 81.1326 299.976C79.5788 299.533 78.0249 299.079 76.509 298.498C79.6798 299.129 82.8254 299.875 85.9711 300.544C89.1167 301.214 92.2623 301.959 95.3826 302.843Z" fill="#263238"/>
<path d="M126.889 214.109C122.897 216.421 114.812 211.09 111.553 205.885C111.338 205.532 111.022 190.865 110.845 187.909C110.845 187.302 129.656 191.332 129.656 191.332C128.812 195.087 128.43 198.93 128.519 202.778C128.547 203.204 128.615 203.627 128.721 204.041C128.721 204.041 128.721 204.167 128.721 204.243C129.277 206.466 128.923 212.934 126.889 214.109Z" fill="#F97853"/>
<path d="M128.759 204.192C128.134 204.315 127.5 204.382 126.864 204.394C117.124 204.761 112.968 193.025 111.553 187.883C114.989 188.199 129.656 191.319 129.656 191.319C128.811 195.082 128.433 198.935 128.532 202.79C128.548 203.217 128.612 203.64 128.721 204.053C128.721 204.053 128.759 204.116 128.759 204.192Z" fill="#263238"/>
<path d="M107.826 165.005C105.742 171.574 108.988 190.637 113.625 194.933C120.333 201.161 131.437 201.881 136.768 193.783C141.922 185.938 137.248 161.165 132.069 157.249C124.426 151.488 110.909 155.316 107.826 165.005Z" fill="#F97853"/>
<path d="M124.224 176.754C124.224 176.754 124.135 176.829 124.148 176.88C124.4 178.143 124.476 179.672 123.377 180.291C123.377 180.291 123.377 180.367 123.377 180.291C124.792 179.874 124.666 177.929 124.224 176.754Z" fill="#263238"/>
<path d="M122.859 175.604C120.762 175.793 121.293 179.962 123.226 179.785C125.158 179.609 124.615 175.452 122.859 175.604Z" fill="#263238"/>
<path d="M131.968 175.49C131.968 175.49 132.081 175.49 132.081 175.592C132.208 176.855 132.561 178.358 133.787 178.649V178.712C132.334 178.699 131.879 176.741 131.968 175.49Z" fill="#263238"/>
<path d="M132.953 174C135.012 173.583 135.694 177.79 133.787 178.118C131.879 178.447 131.222 174.353 132.953 174Z" fill="#263238"/>
<path d="M121.356 173.254C121.937 173.166 122.455 172.976 123.024 172.837C123.634 172.768 124.206 172.502 124.653 172.079C124.772 171.923 124.836 171.732 124.836 171.536C124.836 171.34 124.772 171.149 124.653 170.993C124.359 170.731 124 170.553 123.613 170.477C123.226 170.402 122.826 170.432 122.455 170.564C121.657 170.716 120.947 171.168 120.472 171.827C120.384 171.976 120.338 172.146 120.34 172.319C120.341 172.492 120.39 172.661 120.482 172.808C120.573 172.955 120.702 173.075 120.857 173.153C121.011 173.232 121.183 173.267 121.356 173.254Z" fill="#263238"/>
<path d="M134.393 171.498C133.817 171.53 133.239 171.53 132.663 171.498C132.06 171.609 131.438 171.516 130.894 171.233C130.739 171.11 130.629 170.94 130.581 170.748C130.533 170.556 130.55 170.353 130.629 170.172C130.838 169.84 131.132 169.57 131.481 169.39C131.83 169.21 132.22 169.127 132.612 169.149C133.413 169.064 134.216 169.285 134.861 169.768C135.024 169.878 135.15 170.037 135.219 170.222C135.287 170.407 135.297 170.609 135.245 170.8C135.194 170.991 135.084 171.161 134.931 171.286C134.778 171.411 134.59 171.485 134.393 171.498Z" fill="#263238"/>
<path d="M125.121 188.629C125.474 188.894 125.828 189.273 126.308 189.248C126.784 189.179 127.24 189.011 127.647 188.755C127.647 188.755 127.736 188.755 127.71 188.755C127.561 189.033 127.338 189.264 127.066 189.425C126.795 189.585 126.485 189.668 126.169 189.665C125.896 189.633 125.639 189.519 125.432 189.339C125.224 189.159 125.076 188.92 125.007 188.654C124.969 188.629 125.07 188.591 125.121 188.629Z" fill="#263238"/>
<path d="M125.992 184.586C126.384 185.057 126.869 185.442 127.417 185.716C127.965 185.99 128.564 186.147 129.176 186.178C129.71 186.212 130.246 186.169 130.767 186.052C130.871 186.039 130.973 186.013 131.071 185.976L131.349 185.9C131.416 185.878 131.474 185.833 131.513 185.773C131.552 185.714 131.57 185.643 131.563 185.572C131.569 185.526 131.569 185.479 131.563 185.433V185.319C131.475 184.321 131.184 182.792 131.184 182.792C131.576 182.931 133.534 183.525 133.433 183.007C132.755 178.538 131.625 174.148 130.06 169.907C130.047 169.88 130.026 169.859 129.999 169.847C129.972 169.834 129.942 169.832 129.914 169.839C129.885 169.847 129.86 169.864 129.843 169.888C129.826 169.912 129.818 169.941 129.82 169.97C130.426 174.101 131.753 178.106 132.422 182.249C131.728 182.025 131.004 181.902 130.275 181.883C130.136 181.883 130.881 184.776 130.881 185.231C130.078 185.416 129.246 185.438 128.434 185.294C127.622 185.151 126.848 184.846 126.156 184.397C125.992 184.397 125.904 184.498 125.992 184.586Z" fill="#263238"/>
<path d="M130.111 185.786C129.616 186.541 128.938 187.159 128.14 187.58C127.694 187.785 127.198 187.855 126.712 187.782C125.651 187.593 125.55 186.645 125.676 185.811C125.748 185.377 125.871 184.953 126.043 184.548C127.234 185.38 128.658 185.814 130.111 185.786Z" fill="#263238"/>
<path d="M128.14 187.58C127.694 187.785 127.198 187.855 126.712 187.782C125.651 187.593 125.55 186.645 125.676 185.811C126.226 185.785 126.769 185.945 127.217 186.266C127.664 186.587 127.989 187.05 128.14 187.58Z" fill="#FF99BA"/>
<path d="M108.685 183.184C112.627 182.54 112.311 179.659 112.639 176.046C112.968 172.433 112.791 164.993 116.909 162.416C121.028 159.838 124.401 162.908 127.571 162.416C129.668 162.087 129.909 159.889 131.614 159.586C133.319 159.283 135.884 163.982 135.884 163.982C134.76 160.761 133.42 156.971 132.094 155.935C124.514 150.162 108.306 155.316 105.211 165.018C104.011 168.732 107.169 176.413 108.685 183.184Z" fill="#263238"/>
<path d="M111.995 180.872C111.995 180.872 107.649 174.758 104.87 176.311C102.091 177.865 105.388 186.759 108.66 187.946C109.071 188.13 109.514 188.228 109.964 188.235C110.414 188.242 110.861 188.158 111.278 187.988C111.694 187.819 112.072 187.566 112.389 187.246C112.705 186.926 112.954 186.546 113.119 186.127L111.995 180.872Z" fill="#F97853"/>
<path d="M105.88 178.838C105.88 178.838 105.88 178.838 105.88 178.927C108.192 179.836 109.418 181.959 110.277 184.157C110.143 183.928 109.961 183.732 109.744 183.58C109.527 183.428 109.28 183.326 109.019 183.279C108.759 183.232 108.491 183.242 108.235 183.309C107.979 183.375 107.74 183.497 107.535 183.664C107.535 183.664 107.535 183.803 107.535 183.791C107.938 183.658 108.371 183.654 108.776 183.778C109.182 183.903 109.538 184.15 109.797 184.485C110.228 185.05 110.596 185.66 110.896 186.304C110.997 186.507 111.376 186.393 111.287 186.153C111.325 183.184 109.026 179.104 105.88 178.838Z" fill="#263238"/>
<path d="M128.557 202.323L125.222 213.099L111.174 200.984L107.851 205.519C107.851 205.519 122.266 225.428 122.266 224.468L125.815 215.133L132.536 220.868L130.73 205.216L128.557 202.323Z" fill="white"/>
<path d="M132.094 213.074C131.715 210.547 131.399 207.894 130.894 205.342C130.894 205.254 130.73 205.229 130.717 205.342C130.401 207.869 131.98 217.735 132.107 220.11C131.829 219.857 125.904 215.057 125.79 215.171C124.982 216.674 122.367 223.47 122.202 224.089C119.916 220.931 111.237 209.461 108.597 206.504C108.521 206.429 108.395 206.504 108.458 206.605C110.517 209.978 122.038 225.441 122.19 225.378C123.595 222.152 124.831 218.854 125.891 215.499C126.914 216.573 132.94 222.005 132.928 221.626C132.803 218.762 132.525 215.907 132.094 213.074Z" fill="#263238"/>
</svg>
