<svg width="498" height="396" viewBox="0 0 498 396" fill="none" xmlns="http://www.w3.org/2000/svg">
<path d="M397.523 253.439L354.918 247.766L355.256 251.992L318.825 256.848C318.825 256.848 287.36 251.502 308.056 381.058H348.474L356.33 313.939H360.112L364.478 381.058H406.5C427.195 251.49 397.523 253.439 397.523 253.439Z" fill="#8E716C"/>
<path d="M343.023 313.998H373.944" stroke="#3D3D3F" stroke-width="1.2333" stroke-miterlimit="10" stroke-linecap="round" stroke-linejoin="round"/>
<path d="M422.655 191.34C419.013 185.527 398.539 185.725 397.453 185.597C391.92 184.943 401.002 228.996 412.523 267.505C414.729 274.882 422.853 278.734 429.95 275.723C430.032 275.688 430.102 275.652 430.184 275.629C435.798 273.248 438.985 267.295 437.864 261.307C432.367 232.253 426.869 198.075 422.655 191.34Z" fill="#FFA681"/>
<path d="M427.534 207.273L401.387 217.417L398.936 205.009L426.005 198.262L427.534 207.273Z" fill="#F97853"/>
<path d="M432.472 232.09C432.472 232.09 420.087 248.723 420.682 247.953C421.277 247.183 430.394 221.071 430.394 221.071L432.472 232.09Z" fill="#F97853"/>
<path d="M450.179 209.736L414.682 255.727C410.025 261.762 411.507 270.493 417.904 274.649C424.289 278.792 432.857 276.61 436.487 269.921L466.031 215.409L450.179 209.736Z" fill="#FFA681"/>
<path d="M459.366 221.537C451.673 219.051 447.448 210.799 449.934 203.106C452.42 195.414 460.673 191.188 468.365 193.675C476.058 196.161 480.283 204.414 477.797 212.106C475.311 219.81 467.058 224.024 459.366 221.537Z" fill="#FFA681"/>
<path d="M474.54 198.811C474.54 198.811 478.544 194.655 471.435 191.737C464.326 188.819 455.537 189.484 449.922 203.118L474.54 198.811Z" fill="#FFA681"/>
<path d="M481.906 169.734L496.765 176.177C497.594 176.539 497.897 177.52 497.442 178.372L477.89 214.896C477.435 215.748 476.396 216.145 475.567 215.783L460.708 209.339C459.879 208.978 459.576 207.997 460.031 207.145L479.583 170.621C480.038 169.78 481.077 169.384 481.906 169.734Z" fill="#372F5F"/>
<path d="M480.482 169.092L495.341 175.535C496.17 175.897 496.473 176.877 496.018 177.73L476.466 214.254C476.011 215.106 474.972 215.503 474.143 215.141L459.284 208.697C458.455 208.336 458.152 207.355 458.607 206.503L478.159 169.979C478.626 169.138 479.665 168.73 480.482 169.092Z" fill="#261B43"/>
<path d="M478.812 172.804L491.874 178.477L475.929 208.242L462.879 202.581L478.812 172.804Z" fill="#E6E6E6"/>
<path d="M491.874 178.477L462.879 202.581L478.812 172.804L491.874 178.477Z" fill="white"/>
<path d="M467.175 190.511C467.175 190.511 470.49 191.153 473.466 192.846C474.785 193.593 475.451 195.11 475.089 196.581C474.75 197.923 473.63 198.916 472.264 199.091L464.537 200.06C464.537 200.06 460.509 207.005 455.233 207.787L460.066 195.589L467.175 190.511Z" fill="#FFA681"/>
<path d="M368.481 133.42C367.629 133.42 423.285 141.124 432.46 204.565L403.581 208.989L397.757 256.894H317.203L301.211 168.391C301.211 168.391 319.059 142.816 352.198 133.42H368.481Z" fill="#58D16F"/>
<path d="M403.593 209.001L406.091 181.302" stroke="#3D3D3F" stroke-width="1.2333" stroke-miterlimit="10" stroke-linecap="round" stroke-linejoin="round"/>
<path d="M373.769 134.33V112.292H347.937V134.587C346.618 134.984 344.412 135.778 341.004 137.4L361.151 149.4L381.742 137.4C381.742 137.4 378.473 135.509 373.769 134.33Z" fill="#FFA681"/>
<path d="M347.704 114.989C347.704 114.989 352.338 127.303 364.723 126.241C376.104 125.261 374.294 108.195 374.294 108.195L347.704 114.989Z" fill="#3D3D3F"/>
<path d="M336.44 98.5999C332.389 102.277 323.343 88.3395 327.253 84.4291C331.164 80.5187 334.152 86.6586 334.152 86.6586L335.903 90.8141L337.222 96.4404L337.537 97.9112L336.44 98.5999Z" fill="#F97853"/>
<path d="M329.144 89.3784C329.144 89.3784 332.214 88.0011 334.934 92.4367" stroke="#3D3D3F" stroke-width="0.9928" stroke-miterlimit="10" stroke-linecap="round" stroke-linejoin="round"/>
<path d="M384.321 98.1797C388.045 102.183 398.247 89.0633 394.675 84.8377C391.103 80.6122 387.613 86.4719 387.613 86.4719L385.524 90.464L383.738 95.9735L383.306 97.421L384.321 98.1797Z" fill="#F97853"/>
<path d="M392.376 89.6001C392.376 89.6001 389.434 87.966 386.352 92.1682" stroke="#3D3D3F" stroke-width="0.9928" stroke-miterlimit="10" stroke-linecap="round" stroke-linejoin="round"/>
<path d="M329.343 71.1573C329.343 89.5886 343.397 98.3315 360.742 98.3315C378.088 98.3315 392.142 89.5886 392.142 71.1573C392.142 52.726 378.088 40.1777 360.742 40.1777C343.397 40.1777 329.343 52.7143 329.343 71.1573Z" fill="#3D3D3F"/>
<path d="M333.615 72.4413C333.615 83.7639 335.214 93.5223 336.813 100.456C338.377 107.238 342.778 111.989 348.988 115.806L350.12 116.506C356.692 120.545 365.19 120.638 371.867 116.751C378.602 112.829 383.318 107.646 384.765 100.363C387.403 87.114 387.695 72.453 387.695 72.453C387.695 72.453 390.204 43.878 361.046 44.4383C331.876 44.9753 333.615 72.4413 333.615 72.4413Z" fill="#FFA681"/>
<path d="M358.875 88.7363V92.6934C358.875 92.9269 358.921 93.1486 359.003 93.3588C359.33 94.1642 360.264 94.5494 361.104 94.3276L362.913 93.849" stroke="#3D3D3F" stroke-width="1.2316" stroke-miterlimit="10" stroke-linecap="round" stroke-linejoin="round"/>
<path d="M354.241 73.4099L339.743 76.8067C339.743 76.8067 340.397 73.1181 346.326 71.7757C352.268 70.4334 354.241 73.4099 354.241 73.4099Z" fill="#3D3D3F"/>
<path d="M367.104 73.4099L381.1 76.8067C381.1 76.8067 380.469 73.1181 374.738 71.7757C369.018 70.4334 367.104 73.4099 367.104 73.4099Z" fill="#3D3D3F"/>
<path d="M348.731 86.4952C350.078 86.4952 351.171 85.4029 351.171 84.0556C351.171 82.7082 350.078 81.616 348.731 81.616C347.384 81.616 346.291 82.7082 346.291 84.0556C346.291 85.4029 347.384 86.4952 348.731 86.4952Z" fill="#3D3D3F"/>
<path d="M374.353 84.0556C374.353 85.3979 373.255 86.4952 371.913 86.4952C370.559 86.4952 369.474 85.3979 369.474 84.0556C369.474 82.7132 370.571 81.616 371.913 81.616C373.255 81.616 374.353 82.7132 374.353 84.0556Z" fill="#3D3D3F"/>
<path d="M351.182 98.9385H370.034C370.034 98.9385 361.676 109.094 351.182 98.9385Z" fill="white"/>
<path d="M355.046 92.3529C359.103 88.2958 359.103 81.7181 355.046 77.6611C350.989 73.6041 344.411 73.604 340.354 77.6611C336.297 81.7181 336.297 88.2958 340.354 92.3528C344.411 96.4099 350.989 96.4099 355.046 92.3529Z" stroke="#C98BD2" stroke-width="1.3423" stroke-miterlimit="10"/>
<path d="M380.584 92.3494C384.641 88.2924 384.641 81.7147 380.584 77.6576C376.527 73.6006 369.949 73.6006 365.892 77.6576C361.835 81.7147 361.835 88.2924 365.892 92.3494C369.949 96.4064 376.527 96.4064 380.584 92.3494Z" stroke="#C98BD2" stroke-width="1.3423" stroke-miterlimit="10"/>
<path d="M358.104 85.001C358.104 85.001 360.567 82.7015 362.855 85.001" stroke="#C98BD2" stroke-width="1.3423" stroke-miterlimit="10"/>
<path d="M337.315 85.0011L334.035 84.9194" stroke="#C98BD2" stroke-width="1.3423" stroke-miterlimit="10"/>
<path d="M383.633 85.0011L386.936 84.9194" stroke="#C98BD2" stroke-width="1.3423" stroke-miterlimit="10"/>
<path d="M387.31 81.9079C387.31 81.9079 375.649 66.1497 378.333 50.1697C378.333 50.1697 386.983 54.5236 389.247 65.7645C391.5 77.0171 387.31 81.9079 387.31 81.9079Z" fill="#3D3D3F"/>
<path d="M333.592 82.9818C333.592 82.9818 347.132 65.0758 344.447 49.1074C344.447 49.1074 335.051 54.5353 332.798 65.7761C330.545 77.017 333.592 82.9818 333.592 82.9818Z" fill="#3D3D3F"/>
<path d="M386.341 56.4612C386.341 56.4612 371.365 72.8498 330.405 70.0484C330.405 70.0484 336.673 45.9908 356.528 43.4344C356.528 43.4344 379.442 40.703 386.341 56.4612Z" fill="#3D3D3F"/>
<path d="M404.62 40.4283C406.342 29.762 399.092 19.719 388.425 17.9968C377.759 16.2745 367.716 23.5252 365.994 34.1915C364.271 44.8579 371.522 54.9008 382.188 56.623C392.855 58.3453 402.898 51.0947 404.62 40.4283Z" fill="#3D3D3F"/>
<path d="M146.325 251.303L109.894 246.447L110.221 242.21L67.6157 247.883C67.6157 247.883 37.1731 251.747 57.8689 381.303H98.14L105.027 308.383H108.809L115.848 381.116L156.702 381.303C177.398 251.758 146.325 251.303 146.325 251.303Z" fill="#3D3D3F"/>
<path d="M143.617 76.1999C138.691 70.3985 134.734 63.6283 131.384 54.1384C127.777 43.948 115.988 48.0919 115.988 48.0919C115.988 48.0919 106.159 35.4503 91.3698 39.8509C76.5804 44.2515 71.4443 54.7804 71.1408 67.2936C70.8373 79.8068 60.9972 81.7561 53.4216 96.2304C40.0446 121.782 62.5614 143.307 103.568 137.33L103.626 136.933C107.665 138.159 112.614 138.696 118.649 138.334C167.908 135.416 163.157 99.1836 143.617 76.1999Z" fill="#3D3D3F"/>
<path d="M127.497 95.1565C131.547 98.8334 140.594 84.8961 136.684 80.9857C132.773 77.0754 129.785 83.2153 129.785 83.2153L128.034 87.3708L126.715 92.997L126.4 94.4678L127.497 95.1565Z" fill="#F97853"/>
<path d="M134.792 85.9234C134.792 85.9234 131.723 84.546 129.003 88.9816" stroke="#3D3D3F" stroke-width="0.9928" stroke-miterlimit="10" stroke-linecap="round" stroke-linejoin="round"/>
<path d="M79.6153 94.7246C75.8917 98.7284 65.6897 85.6082 69.2615 81.3826C72.8334 77.1571 76.3236 83.0168 76.3236 83.0168L78.413 87.0089L80.1989 92.5068L80.6308 93.9542L79.6153 94.7246Z" fill="#F97853"/>
<path d="M71.5728 86.1451C71.5728 86.1451 74.5143 84.5109 77.5959 88.7131" stroke="#3D3D3F" stroke-width="0.9928" stroke-miterlimit="10" stroke-linecap="round" stroke-linejoin="round"/>
<path d="M134.594 67.7022C134.594 86.1335 120.54 94.8764 103.194 94.8764C85.8486 94.8764 71.8062 86.1335 71.8062 67.7022C71.8062 49.2709 85.8602 36.7227 103.206 36.7227C120.552 36.7227 134.594 49.2592 134.594 67.7022Z" fill="#3D3D3F"/>
<path d="M115.999 108.837H90.1675V142.279H115.999V108.837Z" fill="#FFA681"/>
<path d="M86.3972 106.759C86.3972 106.759 93.5876 121.105 102.436 123.346C104.793 123.942 107.326 123.743 109.603 122.938C112.929 121.759 117.155 116.798 117.867 111.3L118.205 108.16C118.194 108.16 102.459 116.728 86.3972 106.759Z" fill="#3D3D3F"/>
<path d="M130.322 68.986C130.322 80.3086 128.723 90.067 127.123 97.0006C125.559 103.783 121.159 108.533 114.949 112.35L113.817 113.051C107.245 117.089 98.747 117.183 92.0701 113.296C85.335 109.374 80.6192 104.191 79.1717 96.9072C76.5337 83.6586 76.2419 68.9976 76.2419 68.9976C76.2419 68.9976 73.7322 40.4227 102.891 40.983C132.061 41.5199 130.322 68.986 130.322 68.986Z" fill="#FFA681"/>
<path d="M101.245 86.8337V89.18C101.245 89.4134 101.292 89.6352 101.373 89.8453C101.7 90.6507 102.634 91.0359 103.474 90.8142L105.284 90.3356" stroke="#3D3D3F" stroke-width="1.2298" stroke-miterlimit="10" stroke-linecap="round" stroke-linejoin="round"/>
<path d="M107.326 71.3441L122.84 75.021C122.84 75.021 122.139 71.0289 115.789 69.5815C109.439 68.1341 107.326 71.3441 107.326 71.3441Z" fill="#3D3D3F"/>
<path d="M99.1788 71.3441L83.4673 75.021C83.4673 75.021 84.1793 71.0289 90.611 69.5815C97.0427 68.1341 99.1788 71.3441 99.1788 71.3441Z" fill="#3D3D3F"/>
<path d="M93.5526 80.9741C93.5526 82.3165 92.4553 83.402 91.1129 83.402C89.7589 83.402 88.6733 82.3165 88.6733 80.9741C88.6733 79.6317 89.7706 78.5461 91.1129 78.5461C92.4553 78.5461 93.5526 79.6317 93.5526 80.9741Z" fill="#3D3D3F"/>
<path d="M116.723 80.9741C116.723 82.3165 115.626 83.402 114.283 83.402C112.941 83.402 111.844 82.3165 111.844 80.9741C111.844 79.6317 112.941 78.5461 114.283 78.5461C115.626 78.5461 116.723 79.6317 116.723 80.9741Z" fill="#3D3D3F"/>
<path d="M91.9418 94.8762H113.396C113.396 94.8762 111.879 100.771 102.155 100.771C94.7432 100.771 91.9418 94.8762 91.9418 94.8762Z" fill="white"/>
<path d="M76.6271 78.4526C76.6271 78.4526 88.2882 62.6944 85.6034 46.7144C85.6034 46.7144 76.9539 51.0683 74.6894 62.3092C72.4366 73.5617 76.6271 78.4526 76.6271 78.4526Z" fill="#3D3D3F"/>
<path d="M130.345 77.9276C130.345 77.9276 116.805 61.6207 119.49 45.6523C119.49 45.6523 128.886 51.0802 131.139 62.3211C133.392 73.5619 130.345 77.9276 130.345 77.9276Z" fill="#3D3D3F"/>
<path d="M77.6075 53.0177C77.6075 53.0177 90.9846 71.0055 131.956 68.1924C131.956 68.1924 127.275 42.5473 107.42 39.9909C107.408 39.9793 84.4945 37.2478 77.6075 53.0177Z" fill="#3D3D3F"/>
<path d="M40.2665 332.557C39.6711 333.491 74.3626 181.628 64.0672 183.916C63.1217 184.126 45.0873 185.796 42.4142 191.247C34.6402 207.052 29.0723 331.402 29.0723 331.402L40.2665 332.557Z" fill="#FFA681"/>
<path d="M29.0489 331.402C29.0489 331.402 23.4576 357.339 44.597 360.175C45.9861 360.362 47.3401 359.545 47.7954 358.214L47.8537 358.039C48.3557 356.568 47.6203 355.004 46.2079 354.374C42.7644 352.833 37.4183 348.934 40.068 340.098C40.068 340.098 43.1263 339.724 44.8071 345.421C45.239 346.891 46.8849 347.627 48.2506 346.938C49.1844 346.471 49.7097 345.467 49.5813 344.428C49.0794 340.436 47.0717 330.83 39.3676 328.25L29.0489 331.402Z" fill="#FFA681"/>
<path d="M36.1693 227.736C36.1693 227.736 56.1531 255.879 56.2581 255.342C56.3632 254.793 63.2501 215.818 63.2501 215.818L38.9941 205.312L36.1693 227.736Z" fill="#F97853"/>
<path d="M91.6967 136.781C92.5488 136.781 42.2975 137.68 33.111 201.122L61.9895 205.546L67.8142 253.451H148.38L164.371 164.948C164.371 164.948 153.002 145.769 119.863 136.385L91.6967 136.781Z" fill="#58D16F"/>
<path d="M67.1372 144.451C67.1372 144.451 74.2343 153.882 103.334 153.882C132.166 153.882 139.532 143.96 139.532 143.96C139.532 143.96 122.536 134.47 102.821 131.389C102.821 131.389 85.2183 134.529 67.1372 144.451Z" fill="#FFA681"/>
<path d="M165.968 345.42L171.84 381.081H233.449V345.42H165.968Z" fill="#005683"/>
<path d="M301.886 345.42L300.277 381.116H236.661L234.406 345.42H301.886Z" fill="#005683"/>
<path d="M341.433 234.996C345.32 277.87 341.751 302.22 342.883 381.116H304.947L299.423 241.894L341.433 234.996Z" fill="#FFA681"/>
<path d="M304.034 268.45C304.034 268.45 327.169 266.337 342.986 255.902L342.566 246.715L304.011 251.968L304.034 268.45Z" fill="#F97853"/>
<path d="M266.914 136.267C266.914 136.267 340.406 154.745 353.725 248.034C353.725 248.034 317.761 263.629 281.715 256.917L289.828 225.716L266.914 136.267Z" fill="#26BE6C"/>
<path d="M47.3962 175.056L102.118 239.676L85.3677 286.834C85.3677 286.834 43.7776 229.007 25.0895 184.312L47.3962 175.056Z" fill="#FFA681"/>
<path d="M49.1937 177.39C49.1937 177.39 29.9803 188.246 25.0895 184.324C16.545 177.46 9.49463 152.341 9.49463 152.341C9.49463 152.341 45.4234 138.8 45.0849 139.325C44.7464 139.851 49.1937 177.39 49.1937 177.39Z" fill="#FFA681"/>
<path d="M49.1938 177.39C48.8552 175.453 56.3141 154.593 58.8822 146.761C59.5008 144.87 58.1935 142.804 56.1507 142.407C54.82 142.15 52.7073 142.314 51.7034 144.228L42.692 159.636L49.1938 177.39Z" fill="#FFA681"/>
<path d="M48.5401 154.827L42.3535 124.046C41.9917 122.003 39.9256 120.591 37.8712 120.976C36.0969 121.315 34.918 122.89 35.1281 124.676L37.8245 147.602L48.5401 154.827Z" fill="#FFA681"/>
<path d="M36.237 143.469L27.8326 121.489C27.1322 119.563 24.9728 118.501 23.0585 119.143C21.4009 119.704 20.4671 121.373 20.864 123.089L27.0972 148.489L36.237 143.469Z" fill="#FFA681"/>
<path d="M27.2022 149.96L16.5683 128.365C15.5878 126.357 13.1599 125.435 11.1755 126.299C9.30788 127.116 8.47912 129.229 9.27286 131.166L17.7473 151.559L27.2022 149.96Z" fill="#FFA681"/>
<path d="M9.49467 152.341L1.14864 139.104C0.459945 137.551 1.09028 135.8 2.60774 135.112C4.05516 134.446 5.84109 134.972 6.77492 136.326L17.7473 151.547L9.49467 152.341Z" fill="#FFA681"/>
<path d="M46.8593 152.516C46.8593 152.516 34.3344 151.197 33.0387 167.9" stroke="#3D3D3F" stroke-width="1.5317" stroke-miterlimit="10" stroke-linecap="round" stroke-linejoin="round"/>
<path d="M74.2785 264.785C74.2785 264.785 84.5739 300.398 105.083 295.671C125.592 290.943 157.552 247.135 157.552 247.135L150.397 172.348L92.8382 243.19L74.2785 264.785Z" fill="#FFA681"/>
<path d="M110.686 221.175C110.686 221.175 130.121 250.485 146.696 260.828L157.552 247.135L115.682 214.743L110.686 221.175Z" fill="#F97853"/>
<path d="M195.71 134.656C195.71 134.656 138.654 147.52 108.246 213.833C108.246 213.833 126.619 241.509 156.07 253.812L175.785 229.661L195.71 134.656Z" fill="#26BE6C"/>
<path d="M195.71 134.446C173.427 145.874 159.408 161.037 159.408 161.037L163.809 354.875H304.267L303.812 162.041C303.812 162.041 286.104 144.718 266.914 136.267C250.619 129.1 211.55 126.322 195.71 134.446Z" fill="#26BE6C"/>
<path d="M262.175 228.902C251.39 228.902 242.635 220.16 242.635 209.362V189.822H281.704V209.362C281.704 220.148 272.961 228.902 262.175 228.902Z" stroke="#3D3D3F" stroke-width="1.3968" stroke-miterlimit="10" stroke-linecap="round" stroke-linejoin="round"/>
<path d="M304.034 257.641L305.855 194.234" stroke="#3D3D3F" stroke-width="1.3968" stroke-miterlimit="10" stroke-linecap="round" stroke-linejoin="round"/>
<path d="M161.568 247.077L158.533 192.11" stroke="#3D3D3F" stroke-width="1.3968" stroke-miterlimit="10" stroke-linecap="round" stroke-linejoin="round"/>
<path d="M197.356 63.6511L191.497 34.691C191.17 32.3331 190.248 28.6911 191.368 25.271C193.224 19.6097 200.041 8.74238 211.69 13.715L214.212 25.1776C214.212 25.1776 202.119 27.6173 197.263 43.4455L197.356 63.6511Z" fill="#3D3D3F"/>
<path d="M210.838 19.6914C210.628 23.4967 207.267 40.1538 195.454 46.2119C195.454 46.2119 185.112 24.022 210.838 19.6914Z" fill="#3D3D3F"/>
<path d="M252.265 129.112V79.9229H206.928V129.112L193.434 135.263C193.434 135.263 196.598 155.644 230.075 156.099C263.553 156.555 266.914 136.267 266.914 136.267L252.265 129.112Z" fill="#FFA681"/>
<path d="M211.69 13.7032C211.69 13.7032 220.013 -8.2533 245.67 3.41948C261.206 10.4815 265.549 19.9481 267.405 26.66C268.023 28.8895 268.268 32.403 268.093 34.4924L261.883 63.6393L237.651 23.3099L214.212 25.1775L211.69 13.7032Z" fill="#3D3D3F"/>
<path d="M261.895 63.6509C261.895 63.6509 264.953 58.7834 271.257 61.1763C277.56 63.5692 274.712 78.8839 265.257 80.8332C265.257 80.8332 261.872 81.5686 259.21 79.2457C259.199 79.2457 261.533 67.9348 261.895 63.6509Z" fill="#F97853"/>
<path d="M270.008 66.581C270.008 66.581 264.732 64.8184 260.973 72.5925" stroke="#3D3D3F" stroke-width="1.3968" stroke-miterlimit="10" stroke-linecap="round" stroke-linejoin="round"/>
<path d="M197.356 63.6509C197.356 63.6509 194.298 58.7834 187.995 61.1763C181.691 63.5692 184.54 78.8839 193.995 80.8332C193.995 80.8332 197.38 81.5686 200.041 79.2457C200.053 79.2457 197.718 67.9348 197.356 63.6509Z" fill="#F97853"/>
<path d="M189.244 66.581C189.244 66.581 194.52 64.8184 198.278 72.5925" stroke="#3D3D3F" stroke-width="1.3968" stroke-miterlimit="10" stroke-linecap="round" stroke-linejoin="round"/>
<path d="M262.525 49.1183C262.525 58.3515 261.627 77.6582 255.942 89.1209C250.619 99.8832 241.806 105.673 230.25 106.023C218.694 106.373 210.091 101.914 203.193 87.942C196.294 73.9697 196.621 49.2817 196.621 49.2817C196.621 49.2817 196.621 16.3062 229.211 16.3062C263.541 16.3178 262.525 49.1183 262.525 49.1183Z" fill="#FFA681"/>
<path d="M207.267 94.8289C207.267 94.8289 211.06 114.101 227.834 116.307C247.129 118.851 252.265 95.3191 252.265 95.3191C252.265 95.3191 243.744 106 230.25 106.023C215.216 106.035 207.267 94.8289 207.267 94.8289Z" fill="#3D3D3F"/>
<path d="M227.25 62.8105V70.4445C227.25 70.7714 227.309 71.0865 227.425 71.3784C227.881 72.5106 229.176 73.0476 230.355 72.7324L232.888 72.0554" stroke="#3D3D3F" stroke-width="1.3968" stroke-miterlimit="10" stroke-linecap="round" stroke-linejoin="round"/>
<path d="M217.632 59.1687C217.632 60.8029 216.301 62.1336 214.667 62.1336C213.033 62.1336 211.702 60.8029 211.702 59.1687C211.702 57.5346 213.033 56.2039 214.667 56.2039C216.301 56.2039 217.632 57.5229 217.632 59.1687Z" fill="#3D3D3F"/>
<path d="M245.448 59.1687C245.448 60.8029 244.117 62.1336 242.483 62.1336C240.849 62.1336 239.518 60.8029 239.518 59.1687C239.518 57.5346 240.849 56.2039 242.483 56.2039C244.117 56.2039 245.448 57.5229 245.448 59.1687Z" fill="#3D3D3F"/>
<path d="M234.884 44.4025L254.833 49.5502C254.833 49.5502 253.923 43.9589 245.763 41.9162C237.604 39.8968 234.884 44.4025 234.884 44.4025Z" fill="#3D3D3F"/>
<path d="M222.488 44.4025L202.539 49.5502C202.539 49.5502 203.449 43.9589 211.609 41.9162C219.768 39.8968 222.488 44.4025 222.488 44.4025Z" fill="#3D3D3F"/>
<path d="M218.519 78.1252C218.519 78.1252 221.461 80.3781 229.2 80.3781C236.238 80.3781 240.627 78.1252 240.627 78.1252" stroke="#3D3D3F" stroke-width="1.3968" stroke-miterlimit="10" stroke-linecap="round" stroke-linejoin="round"/>
<path d="M213.862 72.639C220.824 72.639 226.468 66.9948 226.468 60.0324C226.468 53.0699 220.824 47.4258 213.862 47.4258C206.899 47.4258 201.255 53.0699 201.255 60.0324C201.255 66.9948 206.899 72.639 213.862 72.639Z" stroke="white" stroke-width="1.9514" stroke-miterlimit="10"/>
<path d="M244.829 72.639C251.792 72.639 257.436 66.9948 257.436 60.0324C257.436 53.0699 251.792 47.4258 244.829 47.4258C237.867 47.4258 232.223 53.0699 232.223 60.0324C232.223 66.9948 237.867 72.639 244.829 72.639Z" stroke="white" stroke-width="1.9514" stroke-miterlimit="10"/>
<path d="M226.468 60.0324C226.468 60.0324 229.456 57.2426 232.223 60.0324" stroke="white" stroke-width="1.9514" stroke-miterlimit="10"/>
<path d="M201.255 60.0325L197.029 59.9275" stroke="white" stroke-width="1.9514" stroke-miterlimit="10"/>
<path d="M257.448 60.0324L262.164 59.9507" stroke="white" stroke-width="1.9514" stroke-miterlimit="10"/>
<path d="M207.267 20.4385C207.267 20.4385 213.325 37.6442 240.639 37.1072C259.199 36.7454 263.634 50.1807 263.634 50.1807C263.634 50.1807 260.401 20.1467 259.549 20.4385C258.697 20.7187 231.301 13.1313 231.301 13.1313L207.267 20.4385Z" fill="#3D3D3F"/>
<path d="M437 385.339V386.232C437 391.385 433.565 395.571 429.337 395.571H31.6632C27.4248 395.571 24 391.385 24 386.232V385.339C24 380.186 27.4349 376 31.6632 376H429.337C433.565 376 437 380.186 437 385.339Z" fill="#1CB56C"/>
<path d="M437 385.339V385.792H24V385.339C24 380.186 27.4349 376 31.6632 376H429.337C433.565 376 437 380.186 437 385.339Z" fill="#58D16F"/>
</svg>
