<svg width="72" height="72" viewBox="0 0 72 73" fill="none" xmlns="http://www.w3.org/2000/svg">
<circle cx="36" cy="36.3928" r="36" fill="url(#paint0_linear)"/>
<g clip-path="url(#clip0)">
<path d="M36.0589 22.5749C36.3488 22.5749 36.576 22.3267 36.576 22.0301V18.8626C36.576 18.566 36.3488 18.3178 36.0589 18.3178C35.769 18.3178 35.5417 18.566 35.5417 18.8626V22.0301C35.5417 22.3267 35.769 22.5749 36.0589 22.5749Z" fill="white" stroke="white" stroke-width="0.15"/>
<path d="M27.7543 25.9069L27.7543 25.907C27.9566 26.1218 28.2865 26.1218 28.4888 25.907L28.4889 25.9069C28.6887 25.6945 28.6887 25.352 28.4889 25.1397L26.3809 22.8999L26.3809 22.8999C26.1786 22.6851 25.8487 22.6849 25.6463 22.8999L25.6463 22.8999C25.4464 23.1123 25.4464 23.4548 25.6463 23.6671C25.6463 23.6671 25.6463 23.6671 25.6463 23.6671L27.7543 25.9069Z" fill="white" stroke="white" stroke-width="0.15"/>
<path d="M24.8339 33.4118H21.8527C21.5628 33.4118 21.3355 33.66 21.3355 33.9566C21.3355 34.2532 21.5628 34.5015 21.8527 34.5015H24.8338C25.1237 34.5015 25.351 34.2532 25.351 33.9566C25.351 33.66 25.1237 33.4118 24.8339 33.4118Z" fill="white" stroke="white" stroke-width="0.15"/>
<path d="M27.7543 42.0063L27.7543 42.0063L25.6463 44.246L25.6463 44.246C25.4464 44.4584 25.4464 44.8009 25.6463 45.0133L25.6463 45.0133C25.8487 45.2281 26.1785 45.2281 26.3809 45.0133L26.3809 45.0133L28.4889 42.7735L28.4889 42.7735C28.6887 42.5611 28.6887 42.2186 28.4889 42.0063L28.4888 42.0063C28.2865 41.7915 27.9566 41.7915 27.7543 42.0063Z" fill="white" stroke="white" stroke-width="0.15"/>
<path d="M43.6288 42.0063L43.6288 42.0063C43.4289 42.2188 43.4289 42.5612 43.6288 42.7736L45.7367 45.0133L45.7368 45.0133C45.9391 45.2282 46.269 45.2282 46.4713 45.0133L46.4713 45.0133C46.6712 44.8009 46.6712 44.4584 46.4713 44.2461L44.3634 42.0063L44.3633 42.0063C44.161 41.7915 43.8311 41.7914 43.6288 42.0063Z" fill="white" stroke="white" stroke-width="0.15"/>
<path d="M50.2649 33.4118H47.2838C46.9939 33.4118 46.7666 33.66 46.7666 33.9566C46.7666 34.2532 46.9939 34.5015 47.2838 34.5015H50.2649C50.5548 34.5015 50.7821 34.2532 50.7821 33.9566C50.7821 33.66 50.5548 33.4118 50.2649 33.4118Z" fill="white" stroke="white" stroke-width="0.15"/>
<path d="M45.7368 22.8999L45.7367 22.8999L43.6288 25.1397L43.6288 25.1397C43.4289 25.3521 43.4289 25.6946 43.6288 25.9069L43.6288 25.907C43.8311 26.1218 44.161 26.1218 44.3633 25.907L44.3634 25.9069L46.4713 23.6671L46.4713 23.6671C46.6712 23.4547 46.6712 23.1122 46.4713 22.8999L46.4713 22.8999C46.269 22.685 45.9391 22.685 45.7368 22.8999Z" fill="white" stroke="white" stroke-width="0.15"/>
<path d="M28.09 28.9547L28.1587 28.9849L28.09 28.9547C27.9717 29.2242 28.0797 29.5479 28.3392 29.6765C28.6016 29.8066 28.9096 29.6838 29.0288 29.4123L29.0288 29.4123C30.3114 26.4909 33.0723 24.6069 36.0589 24.6069C40.3412 24.6069 43.8348 28.3698 43.8348 33.0071C43.8348 35.2089 43.0518 37.2894 41.6313 38.8658C40.8189 39.7672 40.1116 40.643 39.9124 41.8612H32.319C32.072 40.5974 31.2552 39.7055 30.5345 38.9185L30.5309 38.9147C29.0818 37.3323 28.2829 35.2345 28.2829 33.0071C28.2829 32.4571 28.3325 31.9071 28.43 31.3723C28.4832 31.0813 28.3049 30.7931 28.0215 30.7347L28.0214 30.7346C27.7366 30.6764 27.4676 30.8743 27.4143 31.1665L27.488 31.18L27.4143 31.1665C27.3042 31.769 27.2485 32.3883 27.2485 33.0071C27.2485 35.5167 28.1494 37.8837 29.7865 39.6713C30.7205 40.691 31.3597 41.4841 31.3597 42.6432L31.3599 42.6564L31.3599 42.6579L31.3852 45.4128C31.3852 45.413 31.3852 45.4131 31.3852 45.4132C31.3853 46.3175 31.8319 47.1147 32.5054 47.5675V48.0438C32.5054 49.3762 33.5266 50.4679 34.7913 50.4679H37.5034C38.7682 50.4679 39.7893 49.3762 39.7893 48.0438V47.5675C40.4629 47.1146 40.9095 46.3173 40.9095 45.4128V45.4128L40.8345 45.4128L40.9095 45.4127V45.4126V45.4122L40.9095 45.4105L40.9095 45.4039L40.9095 45.3783L40.9094 45.2807L40.9089 44.9324C40.9086 44.644 40.908 44.2591 40.9072 43.8733C40.9065 43.4875 40.9055 43.1007 40.9044 42.8084C40.9038 42.6622 40.9032 42.5396 40.9026 42.4526C40.9023 42.4091 40.9019 42.3743 40.9016 42.3499L40.901 42.3207L40.9007 42.3114C40.9841 41.2534 41.5871 40.4976 42.3815 39.616C43.9861 37.8352 44.8692 35.4878 44.8692 33.0071C44.8692 27.7797 40.9222 23.5173 36.0589 23.5173C34.356 23.5173 32.7035 24.0417 31.2803 25.033L31.3189 25.0885L31.2803 25.033C29.8958 25.9975 28.7929 27.3538 28.09 28.9547ZM38.7549 48.0438C38.7549 48.7839 38.1891 49.3783 37.5033 49.3783H34.7913C34.1055 49.3783 33.5397 48.7839 33.5397 48.0438V47.9481C33.6216 47.9573 33.7047 47.9622 33.789 47.9622H38.5056C38.59 47.9622 38.6731 47.9573 38.7549 47.9481V48.0438ZM38.5056 46.8726H33.789C33.0517 46.8726 32.4419 46.2453 32.4201 45.4565H36.8253C37.1152 45.4565 37.3425 45.2083 37.3425 44.9117C37.3425 44.6151 37.1152 44.3669 36.8253 44.3669H32.4195V42.9508H39.8621L39.8744 44.3669H38.8888C38.5989 44.3669 38.3717 44.6151 38.3717 44.9117C38.3717 45.2083 38.5989 45.4565 38.8888 45.4565H39.8745C39.8527 46.2453 39.2429 46.8726 38.5056 46.8726Z" fill="white" stroke="white" stroke-width="0.15"/>
<path d="M38.8731 33.0249L38.8731 33.0249L39.7486 31.8273L39.7495 31.826C39.9049 31.6222 39.865 31.2942 39.6689 31.1393L39.6664 31.1373L39.6665 31.1372C39.4797 30.9762 39.1778 31.0151 39.0324 31.223L39.0315 31.2242L39.0315 31.2242L35.8526 35.5741C35.6657 35.8427 35.2617 35.8573 35.0565 35.6055L33.0643 33.2635L33.0643 33.2635C32.8958 33.0654 32.6094 33.0507 32.4239 33.2287C32.2357 33.4094 32.2204 33.7216 32.3912 33.9223L35.1622 37.1798L35.1635 37.1812L35.1635 37.1812C35.34 37.3999 35.6945 37.3868 35.8562 37.1534L35.8573 37.1518L35.8573 37.1518L37.6075 34.757L37.6075 34.757L37.668 34.8013C37.8178 34.5962 38.0956 34.5592 38.2884 34.7183C38.4813 34.8774 38.5162 35.1726 38.3665 35.3775L38.8731 33.0249ZM38.8731 33.0249C38.7005 33.2611 38.7398 33.6012 38.964 33.7862M38.8731 33.0249L39.6927 33.6897C39.5181 33.9286 39.1909 33.9736 38.964 33.7862M35.4119 34.3905L38.2117 30.5593C38.455 30.2263 38.8071 30.0126 39.2032 29.9596C39.5994 29.906 39.9913 30.0211 40.3054 30.2802M35.4119 34.3905L39.6321 33.6454L39.6927 33.6897L40.5681 32.4919C40.8114 32.1591 40.9177 31.7459 40.8683 31.3291C40.8189 30.9122 40.6195 30.5393 40.3054 30.2802M35.4119 34.3905L33.8345 32.5361L33.8345 32.536C33.2836 31.8886 32.3371 31.8374 31.7269 32.4234L31.7269 32.4234C31.4322 32.7064 31.2595 33.0939 31.2395 33.5135L31.2395 33.5135C31.2196 33.933 31.3547 34.3367 31.6207 34.6496L31.6208 34.6496L34.3913 37.9064C34.9807 38.6319 36.1417 38.5871 36.6774 37.8159L35.4119 34.3905ZM40.3054 30.2802L40.2577 30.3381L40.3054 30.2802C40.3054 30.2802 40.3054 30.2802 40.3054 30.2802ZM38.964 33.7862C38.964 33.7862 38.964 33.7862 38.964 33.7862L39.0117 33.7284L38.964 33.7862Z" fill="white" stroke="white" stroke-width="0.15"/>
</g>
<defs>
<linearGradient id="paint0_linear" x1="-4.51527e-07" y1="33.9928" x2="125.859" y2="32.8468" gradientUnits="userSpaceOnUse">
<stop stop-color="#6EE781" stop-opacity="0.84"/>
<stop offset="1" stop-color="#58D16F"/>
</linearGradient>
<clipPath id="clip0">
<rect width="30.1176" height="32" fill="white" transform="translate(21 18.3928)"/>
</clipPath>
</defs>
</svg>
