<svg width="88" height="88" viewBox="0 0 88 88" fill="none" xmlns="http://www.w3.org/2000/svg">
<g filter="url(#filter0_d)">
<path d="M20 34C20 20.745 30.745 10 44 10C57.255 10 68 20.745 68 34C68 47.255 57.255 58 44 58C30.745 58 20 47.255 20 34Z" fill="white"/>
<path d="M40.213 46.123L40.631 43.466L39.699 43.444H35.249L38.342 23.834C38.3514 23.7742 38.3818 23.7197 38.4279 23.6805C38.4739 23.6412 38.5325 23.6198 38.593 23.62H46.097C48.588 23.62 50.307 24.138 51.205 25.16C51.625 25.64 51.894 26.142 52.023 26.695C52.159 27.274 52.162 27.965 52.029 28.81L52.019 28.871V29.412L52.44 29.651C52.795 29.839 53.076 30.054 53.292 30.301C53.652 30.711 53.885 31.232 53.983 31.851C54.085 32.487 54.051 33.243 53.885 34.101C53.693 35.086 53.383 35.944 52.963 36.647C52.5932 37.2762 52.0959 37.8212 51.503 38.247C50.9075 38.6605 50.2411 38.9611 49.537 39.134C48.812 39.323 47.986 39.418 47.079 39.418H46.495C46.078 39.418 45.672 39.568 45.354 39.838C45.034 40.113 44.824 40.488 44.759 40.9L44.715 41.14L43.975 45.823L43.942 45.995C43.933 46.05 43.918 46.077 43.895 46.095C43.8735 46.1126 43.8468 46.1224 43.819 46.123H40.213Z" fill="#253B80"/>
<path d="M52.8379 28.934C52.8159 29.077 52.7899 29.224 52.7609 29.374C51.7709 34.454 48.3859 36.21 44.0619 36.21H41.8609C41.6058 36.2101 41.359 36.3013 41.1652 36.4672C40.9714 36.6332 40.8433 36.8629 40.8039 37.115L39.6769 44.264L39.3569 46.29C39.3441 46.3705 39.3488 46.4527 39.3708 46.5312C39.3928 46.6096 39.4316 46.6823 39.4845 46.7443C39.5373 46.8063 39.603 46.8561 39.677 46.8902C39.751 46.9244 39.8315 46.942 39.9129 46.942H43.8179C44.0415 46.942 44.2578 46.8622 44.4279 46.717C44.598 46.5719 44.7107 46.3708 44.7459 46.15L44.7849 45.951L45.5199 41.286L45.5669 41.03C45.6015 40.8088 45.714 40.6071 45.8842 40.4615C46.0544 40.3159 46.271 40.236 46.4949 40.236H47.0789C50.8619 40.236 53.8239 38.7 54.6889 34.256C55.0509 32.398 54.8639 30.848 53.9069 29.758C53.6036 29.4207 53.2414 29.1415 52.8379 28.934Z" fill="#179BD7"/>
<path d="M51.8039 28.52C51.4881 28.4288 51.1668 28.3577 50.8419 28.307C50.1997 28.2085 49.5506 28.1614 48.9009 28.166H43.0189C42.795 28.1651 42.5782 28.2447 42.4081 28.3903C42.2379 28.5358 42.1257 28.7377 42.0919 28.959L40.8409 36.884L40.8049 37.115C40.8443 36.8631 40.9722 36.6335 41.1658 36.4676C41.3595 36.3016 41.606 36.2103 41.8609 36.21H44.0629C48.3869 36.21 51.7729 34.454 52.7629 29.374C52.7919 29.224 52.8169 29.077 52.8389 28.934C52.578 28.7968 52.3061 28.6818 52.0259 28.59C51.9523 28.5655 51.8783 28.5422 51.8039 28.52Z" fill="#222D65"/>
<path d="M42.6131 28.258C42.7398 28.1973 42.8786 28.1658 43.0191 28.166H48.9001C49.5971 28.166 50.2481 28.212 50.8411 28.308C51.2428 28.371 51.6391 28.4653 52.0261 28.59C52.3181 28.687 52.5891 28.802 52.8401 28.934C53.1341 27.056 52.8371 25.778 51.8221 24.62C50.7021 23.346 48.6821 22.8 46.0981 22.8H38.5941C38.0661 22.8 37.6161 23.184 37.5341 23.706L34.4081 43.518C34.3935 43.61 34.399 43.7041 34.4243 43.7937C34.4495 43.8834 34.4939 43.9666 34.5543 44.0374C34.6148 44.1083 34.6898 44.1653 34.7744 44.2044C34.8589 44.2435 34.9509 44.2638 35.0441 44.264H39.6771L40.8401 36.884L42.0921 28.959C42.1155 28.8087 42.1751 28.6665 42.2659 28.5445C42.3567 28.4225 42.4759 28.3245 42.6131 28.259V28.258Z" fill="#253B80"/>
</g>
<defs>
<filter id="filter0_d" x="0" y="0" width="88" height="88" filterUnits="userSpaceOnUse" color-interpolation-filters="sRGB">
<feFlood flood-opacity="0" result="BackgroundImageFix"/>
<feColorMatrix in="SourceAlpha" type="matrix" values="0 0 0 0 0 0 0 0 0 0 0 0 0 0 0 0 0 0 127 0"/>
<feOffset dy="10"/>
<feGaussianBlur stdDeviation="10"/>
<feColorMatrix type="matrix" values="0 0 0 0 0.779167 0 0 0 0 0.779167 0 0 0 0 0.779167 0 0 0 0.3 0"/>
<feBlend mode="normal" in2="BackgroundImageFix" result="effect1_dropShadow"/>
<feBlend mode="normal" in="SourceGraphic" in2="effect1_dropShadow" result="shape"/>
</filter>
</defs>
</svg>
