<svg width="32" height="33" viewBox="0 0 32 33" fill="none" xmlns="http://www.w3.org/2000/svg">
<g clip-path="url(#clip0)">
<path d="M11.3125 5.39282C11.6577 5.39282 11.9375 5.113 11.9375 4.76782C11.9375 4.42264 11.6577 4.14282 11.3125 4.14282C10.9673 4.14282 10.6875 4.42264 10.6875 4.76782C10.6875 5.113 10.9673 5.39282 11.3125 5.39282Z" fill="white"/>
<path d="M16.3125 13.7409C16.3125 15.3226 17.5699 16.3839 19.3102 17.8529C19.6193 18.1138 19.939 18.3836 20.2781 18.6776C20.3956 18.7794 20.5416 18.8303 20.6875 18.8303C20.8334 18.8303 20.9794 18.7794 21.0969 18.6776C21.4374 18.3824 21.7583 18.1116 22.0685 17.8497C23.6487 16.5158 25.0625 15.3951 25.0625 13.7409C25.0625 12.249 23.9644 11.0803 22.5625 11.0803C21.6704 11.0803 21.0722 11.5308 20.6875 12.0131C20.3028 11.5308 19.7046 11.0803 18.8125 11.0803C17.4106 11.0803 16.3125 12.249 16.3125 13.7409ZM20.0851 13.4971C20.1601 13.7679 20.4061 13.9569 20.687 13.9569C20.9679 13.9569 21.2139 13.7711 21.2889 13.5004C21.3028 13.4526 21.6378 12.3303 22.5625 12.3303C23.3744 12.3303 23.8125 13.0571 23.8125 13.7409C23.8125 14.8681 22.4109 15.9248 21.2622 16.8945C21.0753 17.0523 20.8846 17.2133 20.6875 17.3813C20.4917 17.2144 20.3022 17.0544 20.1164 16.8977C18.5238 15.5534 17.5625 14.742 17.5625 13.7409C17.5625 13.0571 18.0006 12.3303 18.8125 12.3303C19.7372 12.3303 20.0722 13.4526 20.0851 13.4971Z" fill="white"/>
<path d="M13.8125 28.0178C13.8125 27.6727 13.5326 27.3928 13.1875 27.3928H9.4375C9.09238 27.3928 8.8125 27.6727 8.8125 28.0178C8.8125 28.3629 9.09238 28.6428 9.4375 28.6428H13.1875C13.5326 28.6428 13.8125 28.3629 13.8125 28.0178Z" fill="white"/>
<path d="M11.3125 32.3928C11.6577 32.3928 11.9375 32.113 11.9375 31.7678C11.9375 31.4226 11.6577 31.1428 11.3125 31.1428C10.9673 31.1428 10.6875 31.4226 10.6875 31.7678C10.6875 32.113 10.9673 32.3928 11.3125 32.3928Z" fill="white"/>
<path d="M16.9375 0.392822H5.6875C4.309 0.392822 3.1875 1.51432 3.1875 2.89282V29.8928C3.1875 31.2713 4.309 32.3928 5.6875 32.3928H8.5C8.84513 32.3928 9.125 32.1129 9.125 31.7678C9.125 31.4227 8.84513 31.1428 8.5 31.1428H5.6875C4.99825 31.1428 4.4375 30.5821 4.4375 29.8928V2.89282C4.4375 2.20357 4.99825 1.64282 5.6875 1.64282H16.9375C17.6267 1.64282 18.1875 2.20357 18.1875 2.89282V6.78488C14.852 7.85951 12.5625 10.9721 12.5625 14.5178C12.5625 15.9362 12.9456 17.3358 13.6731 18.5841L12.5946 21.8202C12.5197 22.0448 12.5782 22.2924 12.7456 22.4598C12.913 22.6271 13.1604 22.6855 13.3851 22.6108L16.6212 21.5323C17.1213 21.824 17.6458 22.06 18.1875 22.239V29.8928C18.1875 30.5821 17.6267 31.1428 16.9375 31.1428H14.125C13.7799 31.1428 13.5 31.4227 13.5 31.7678C13.5 32.1129 13.7799 32.3928 14.125 32.3928H16.9375C18.316 32.3928 19.4375 31.2713 19.4375 29.8928V22.5436C19.8507 22.6093 20.2687 22.6428 20.6875 22.6428C25.1677 22.6428 28.8125 18.998 28.8125 14.5178C28.8125 10.0376 25.1677 6.39282 20.6875 6.39282C20.2675 6.39282 19.8494 6.42532 19.4375 6.48888V2.89282C19.4375 1.51432 18.316 0.392822 16.9375 0.392822V0.392822ZM20.6875 7.64282C24.4784 7.64282 27.5625 10.7269 27.5625 14.5178C27.5625 18.3087 24.4784 21.3928 20.6875 21.3928C19.3826 21.3928 18.1307 21.0138 17.032 20.3195C16.8736 20.2193 16.6784 20.1956 16.5005 20.2549L14.1756 21.0297L14.9504 18.7048C15.0097 18.5269 14.986 18.3319 14.8859 18.1734C14.1836 17.0618 13.8125 15.7978 13.8125 14.5178C13.8125 10.7319 16.8716 7.64282 20.6875 7.64282Z" fill="white"/>
</g>
<defs>
<clipPath id="clip0">
<rect width="32" height="32" fill="white" transform="translate(0 0.392822)"/>
</clipPath>
</defs>
</svg>
