<svg width="72" height="73" viewBox="0 0 72 73" fill="none" xmlns="http://www.w3.org/2000/svg">
<circle cx="36" cy="36.3928" r="36" fill="url(#paint0_linear)"/>
<path d="M46.4064 36.8988C46.0835 36.8988 45.8407 37.1884 45.8407 37.5209C45.8407 37.8424 45.6097 38.084 45.3494 38.084C45.089 38.084 44.858 37.8424 44.858 37.5209C44.858 37.1883 44.6152 36.8988 44.2924 36.8988C43.9695 36.8988 43.7267 37.1884 43.7267 37.5209C43.7267 38.5065 44.4441 39.3283 45.3494 39.3283C46.2546 39.3283 46.9721 38.5065 46.9721 37.5209C46.9721 37.1882 46.7292 36.8988 46.4064 36.8988Z" fill="white" stroke="white" stroke-width="0.2"/>
<mask id="path-3-outside-1" maskUnits="userSpaceOnUse" x="19" y="17.3928" width="34" height="37" fill="black">
<rect fill="white" x="19" y="17.3928" width="34" height="37"/>
<path d="M50.7778 37.0837L49.467 36.613C49.2991 36.5526 49.1668 36.4024 49.1131 36.211C48.8369 35.2262 48.42 34.3016 47.8741 33.4629C47.6252 33.0807 47.3486 32.7156 47.0463 32.3681C47.2397 31.4169 47.3448 30.3405 47.3312 29.4105C47.3117 28.08 47.0746 27.2997 46.6063 27.0247C46.3541 26.8764 45.5866 26.426 41.4324 28.5582C41.3341 28.6086 41.2422 28.6708 41.1571 28.742C40.8771 28.6576 40.5908 28.5795 40.3028 28.5095C40.2681 28.501 40.2324 28.4935 40.1974 28.4852C40.5341 27.6607 40.7306 26.7651 40.7676 25.8407C40.7791 25.5525 40.5801 25.3085 40.3231 25.2957C40.0668 25.2814 39.8485 25.5058 39.8371 25.7939C39.7764 27.314 39.214 28.7442 38.2536 29.8211C37.6798 30.4645 37.0079 30.9319 36.2919 31.2262C35.0501 31.0308 33.7852 31.0308 32.5434 31.2262C31.8272 30.9319 31.1554 30.4645 30.5816 29.8211C29.557 28.6722 28.9927 27.1448 28.9927 25.52C28.9927 23.8952 29.557 22.3677 30.5816 21.2189C31.6062 20.0699 32.9686 19.4372 34.4176 19.4372C35.8666 19.4372 37.229 20.0699 38.2536 21.2189C38.6654 21.6805 39.0056 22.2074 39.2649 22.7846C39.3806 23.0422 39.6607 23.1459 39.8904 23.0162C40.1201 22.8865 40.2126 22.5725 40.0969 22.315C39.7929 21.6381 39.3944 21.0209 38.9123 20.4803C37.7118 19.1342 36.1155 18.3928 34.4177 18.3928C32.7199 18.3928 31.1236 19.1342 29.9231 20.4803C28.7225 21.8265 28.0613 23.6162 28.0613 25.5199C28.0613 27.4236 28.7225 29.2134 29.9231 30.5595C30.2694 30.9478 30.6461 31.2818 31.0446 31.5615C31.0448 31.5615 31.0449 31.5614 31.045 31.5614C30.7554 31.6458 30.4681 31.7406 30.1839 31.8471C29.9399 31.9385 29.8083 32.2343 29.8899 32.5079C29.9714 32.7814 30.2353 32.929 30.4792 32.8376C33.0189 31.8856 35.8164 31.8856 38.3562 32.8376C38.4052 32.856 38.4549 32.8647 38.5039 32.8647C38.6987 32.8647 38.8803 32.7265 38.9455 32.5079C39.0271 32.2344 38.8954 31.9385 38.6515 31.8471C38.3673 31.7406 38.0799 31.6457 37.7904 31.5614C37.7905 31.5614 37.7906 31.5615 37.7908 31.5615C38.1893 31.2818 38.566 30.9478 38.9123 30.5595C39.2187 30.216 39.4891 29.8409 39.7239 29.4422C39.8523 29.4702 39.9797 29.4995 40.1053 29.53C40.2726 29.5707 40.4391 29.6144 40.6041 29.6603C40.5989 29.6831 40.5936 29.7057 40.5893 29.7287C40.3621 30.9372 40.3769 32.0061 40.6331 32.9054C40.8633 33.7137 41.2789 34.3686 41.8681 34.852C42.5625 35.4216 43.4009 35.6676 44.1603 35.6676C44.7319 35.6676 45.2588 35.5281 45.6458 35.2824C46.0836 35.0044 46.4503 34.4186 46.7406 33.5391C46.8748 33.7147 47.002 33.8946 47.1219 34.0788C47.6079 34.8254 47.979 35.6483 48.2248 36.5244C48.3691 37.039 48.7273 37.4439 49.183 37.6076L50.4937 38.0784C50.8377 38.202 51.0688 38.5569 51.0688 38.9618V41.3988C51.0688 41.8037 50.8377 42.1587 50.4937 42.2822L48.3819 43.0407C48.0441 43.1621 47.7581 43.4225 47.5768 43.7738C46.7471 45.3816 45.4427 46.712 43.6995 47.7282C43.4981 47.8457 43.3586 48.0559 43.3166 48.3049L42.6402 52.3206C42.6216 52.4313 42.5351 52.5115 42.4347 52.5115H40.2355C40.1351 52.5115 40.0486 52.4312 40.0299 52.3206L39.6553 50.1013C39.5816 49.6647 39.2163 49.3746 38.8232 49.4414C37.8759 49.602 36.8997 49.6834 35.9221 49.6834C35.1947 49.6834 34.4766 49.6379 33.7877 49.5481C33.4067 49.499 33.0519 49.7902 32.9807 50.2119L32.6247 52.3206C32.606 52.4313 32.5196 52.5115 32.4191 52.5115H30.2199C30.1195 52.5115 30.0331 52.4312 30.0141 52.319L29.3629 48.5262C29.3209 48.2818 29.1841 48.074 28.9871 47.9561C26.0156 46.1774 24.445 43.2058 24.445 39.3628C24.445 37.421 24.8239 35.704 25.5711 34.2593C26.2683 32.9111 27.2867 31.7963 28.5979 30.9459C28.8205 30.8015 28.8966 30.4821 28.7678 30.2324C28.6391 29.9828 28.3542 29.8976 28.1315 30.0419C25.5891 31.6909 24.0556 34.2351 23.6334 37.4664V37.4663C23.5886 37.4617 23.5438 37.4574 23.4991 37.4522C23.5072 37.1036 23.4509 36.7518 23.3284 36.4104C23.0582 35.6573 22.5033 35.1138 21.9144 35.0257C21.4504 34.956 21.0089 35.1769 20.7024 35.6309C20.2581 36.2892 20.3306 36.8102 20.4695 37.1313C20.7041 37.6732 21.307 38.0565 22.3076 38.2975C22.2801 38.3437 22.2498 38.3901 22.2167 38.4367C21.6255 39.268 20.929 39.4518 20.4767 39.4691C20.212 39.4792 20 39.7175 20 40.0146V40.0171C20 40.3101 20.2062 40.549 20.4672 40.5624C20.5007 40.5642 20.5356 40.5651 20.572 40.5651C21.1443 40.5651 22.0627 40.3284 22.9451 39.0878C23.0844 38.892 23.1979 38.6854 23.2851 38.472C23.373 38.4831 23.4574 38.4927 23.5383 38.5011C23.5383 38.5009 23.5383 38.5007 23.5384 38.5005C23.5225 38.7835 23.5137 39.0706 23.5137 39.3628C23.5137 41.5371 23.976 43.4759 24.8877 45.1253C25.7283 46.646 26.9319 47.8911 28.4661 48.8275L29.0992 52.5148C29.2011 53.118 29.6724 53.5558 30.2199 53.5558H32.4191C32.9667 53.5558 33.438 53.118 33.5398 52.5148L33.8617 50.6081C34.5302 50.6875 35.2223 50.7277 35.922 50.7277C36.882 50.7277 37.8409 50.6527 38.7754 50.5047L39.1147 52.5149C39.2166 53.1181 39.6879 53.5559 40.2354 53.5559H42.4346C42.9821 53.5559 43.4534 53.1181 43.5553 52.5146L44.2139 48.6049C46.0744 47.5018 47.4768 46.0527 48.3829 44.2968C48.4482 44.1703 48.5487 44.0774 48.666 44.0353L50.7778 43.2768C51.5088 43.0141 52 42.2594 52 41.3987V38.9617C52 38.101 51.5088 37.3463 50.7778 37.0837ZM46.3299 30.8778C46.1506 32.5966 45.6698 34.0668 45.1867 34.3736C44.6376 34.7224 43.3698 34.7897 42.4179 34.009C41.4649 33.2273 41.1477 31.8217 41.5005 29.944C41.5005 29.944 41.5005 29.944 41.5005 29.944C41.5359 29.7554 41.6554 29.5922 41.8201 29.5077C44.1516 28.3111 45.4958 27.9197 45.9952 27.9197C46.0706 27.9197 46.1267 27.9286 46.1641 27.945C46.3141 28.1242 46.5108 29.1432 46.3299 30.8778ZM21.3076 36.6753C21.2594 36.5638 21.3731 36.368 21.4453 36.261C21.5596 36.0917 21.6649 36.0571 21.7444 36.0571C21.7612 36.0571 21.7769 36.0586 21.7913 36.0608C22.0054 36.0928 22.3054 36.357 22.4644 36.8C22.5018 36.9043 22.5504 37.077 22.5618 37.2924C21.9171 37.1427 21.4162 36.9268 21.3076 36.6753Z"/>
</mask>
<path d="M50.7778 37.0837L49.467 36.613C49.2991 36.5526 49.1668 36.4024 49.1131 36.211C48.8369 35.2262 48.42 34.3016 47.8741 33.4629C47.6252 33.0807 47.3486 32.7156 47.0463 32.3681C47.2397 31.4169 47.3448 30.3405 47.3312 29.4105C47.3117 28.08 47.0746 27.2997 46.6063 27.0247C46.3541 26.8764 45.5866 26.426 41.4324 28.5582C41.3341 28.6086 41.2422 28.6708 41.1571 28.742C40.8771 28.6576 40.5908 28.5795 40.3028 28.5095C40.2681 28.501 40.2324 28.4935 40.1974 28.4852C40.5341 27.6607 40.7306 26.7651 40.7676 25.8407C40.7791 25.5525 40.5801 25.3085 40.3231 25.2957C40.0668 25.2814 39.8485 25.5058 39.8371 25.7939C39.7764 27.314 39.214 28.7442 38.2536 29.8211C37.6798 30.4645 37.0079 30.9319 36.2919 31.2262C35.0501 31.0308 33.7852 31.0308 32.5434 31.2262C31.8272 30.9319 31.1554 30.4645 30.5816 29.8211C29.557 28.6722 28.9927 27.1448 28.9927 25.52C28.9927 23.8952 29.557 22.3677 30.5816 21.2189C31.6062 20.0699 32.9686 19.4372 34.4176 19.4372C35.8666 19.4372 37.229 20.0699 38.2536 21.2189C38.6654 21.6805 39.0056 22.2074 39.2649 22.7846C39.3806 23.0422 39.6607 23.1459 39.8904 23.0162C40.1201 22.8865 40.2126 22.5725 40.0969 22.315C39.7929 21.6381 39.3944 21.0209 38.9123 20.4803C37.7118 19.1342 36.1155 18.3928 34.4177 18.3928C32.7199 18.3928 31.1236 19.1342 29.9231 20.4803C28.7225 21.8265 28.0613 23.6162 28.0613 25.5199C28.0613 27.4236 28.7225 29.2134 29.9231 30.5595C30.2694 30.9478 30.6461 31.2818 31.0446 31.5615C31.0448 31.5615 31.0449 31.5614 31.045 31.5614C30.7554 31.6458 30.4681 31.7406 30.1839 31.8471C29.9399 31.9385 29.8083 32.2343 29.8899 32.5079C29.9714 32.7814 30.2353 32.929 30.4792 32.8376C33.0189 31.8856 35.8164 31.8856 38.3562 32.8376C38.4052 32.856 38.4549 32.8647 38.5039 32.8647C38.6987 32.8647 38.8803 32.7265 38.9455 32.5079C39.0271 32.2344 38.8954 31.9385 38.6515 31.8471C38.3673 31.7406 38.0799 31.6457 37.7904 31.5614C37.7905 31.5614 37.7906 31.5615 37.7908 31.5615C38.1893 31.2818 38.566 30.9478 38.9123 30.5595C39.2187 30.216 39.4891 29.8409 39.7239 29.4422C39.8523 29.4702 39.9797 29.4995 40.1053 29.53C40.2726 29.5707 40.4391 29.6144 40.6041 29.6603C40.5989 29.6831 40.5936 29.7057 40.5893 29.7287C40.3621 30.9372 40.3769 32.0061 40.6331 32.9054C40.8633 33.7137 41.2789 34.3686 41.8681 34.852C42.5625 35.4216 43.4009 35.6676 44.1603 35.6676C44.7319 35.6676 45.2588 35.5281 45.6458 35.2824C46.0836 35.0044 46.4503 34.4186 46.7406 33.5391C46.8748 33.7147 47.002 33.8946 47.1219 34.0788C47.6079 34.8254 47.979 35.6483 48.2248 36.5244C48.3691 37.039 48.7273 37.4439 49.183 37.6076L50.4937 38.0784C50.8377 38.202 51.0688 38.5569 51.0688 38.9618V41.3988C51.0688 41.8037 50.8377 42.1587 50.4937 42.2822L48.3819 43.0407C48.0441 43.1621 47.7581 43.4225 47.5768 43.7738C46.7471 45.3816 45.4427 46.712 43.6995 47.7282C43.4981 47.8457 43.3586 48.0559 43.3166 48.3049L42.6402 52.3206C42.6216 52.4313 42.5351 52.5115 42.4347 52.5115H40.2355C40.1351 52.5115 40.0486 52.4312 40.0299 52.3206L39.6553 50.1013C39.5816 49.6647 39.2163 49.3746 38.8232 49.4414C37.8759 49.602 36.8997 49.6834 35.9221 49.6834C35.1947 49.6834 34.4766 49.6379 33.7877 49.5481C33.4067 49.499 33.0519 49.7902 32.9807 50.2119L32.6247 52.3206C32.606 52.4313 32.5196 52.5115 32.4191 52.5115H30.2199C30.1195 52.5115 30.0331 52.4312 30.0141 52.319L29.3629 48.5262C29.3209 48.2818 29.1841 48.074 28.9871 47.9561C26.0156 46.1774 24.445 43.2058 24.445 39.3628C24.445 37.421 24.8239 35.704 25.5711 34.2593C26.2683 32.9111 27.2867 31.7963 28.5979 30.9459C28.8205 30.8015 28.8966 30.4821 28.7678 30.2324C28.6391 29.9828 28.3542 29.8976 28.1315 30.0419C25.5891 31.6909 24.0556 34.2351 23.6334 37.4664V37.4663C23.5886 37.4617 23.5438 37.4574 23.4991 37.4522C23.5072 37.1036 23.4509 36.7518 23.3284 36.4104C23.0582 35.6573 22.5033 35.1138 21.9144 35.0257C21.4504 34.956 21.0089 35.1769 20.7024 35.6309C20.2581 36.2892 20.3306 36.8102 20.4695 37.1313C20.7041 37.6732 21.307 38.0565 22.3076 38.2975C22.2801 38.3437 22.2498 38.3901 22.2167 38.4367C21.6255 39.268 20.929 39.4518 20.4767 39.4691C20.212 39.4792 20 39.7175 20 40.0146V40.0171C20 40.3101 20.2062 40.549 20.4672 40.5624C20.5007 40.5642 20.5356 40.5651 20.572 40.5651C21.1443 40.5651 22.0627 40.3284 22.9451 39.0878C23.0844 38.892 23.1979 38.6854 23.2851 38.472C23.373 38.4831 23.4574 38.4927 23.5383 38.5011C23.5383 38.5009 23.5383 38.5007 23.5384 38.5005C23.5225 38.7835 23.5137 39.0706 23.5137 39.3628C23.5137 41.5371 23.976 43.4759 24.8877 45.1253C25.7283 46.646 26.9319 47.8911 28.4661 48.8275L29.0992 52.5148C29.2011 53.118 29.6724 53.5558 30.2199 53.5558H32.4191C32.9667 53.5558 33.438 53.118 33.5398 52.5148L33.8617 50.6081C34.5302 50.6875 35.2223 50.7277 35.922 50.7277C36.882 50.7277 37.8409 50.6527 38.7754 50.5047L39.1147 52.5149C39.2166 53.1181 39.6879 53.5559 40.2354 53.5559H42.4346C42.9821 53.5559 43.4534 53.1181 43.5553 52.5146L44.2139 48.6049C46.0744 47.5018 47.4768 46.0527 48.3829 44.2968C48.4482 44.1703 48.5487 44.0774 48.666 44.0353L50.7778 43.2768C51.5088 43.0141 52 42.2594 52 41.3987V38.9617C52 38.101 51.5088 37.3463 50.7778 37.0837ZM46.3299 30.8778C46.1506 32.5966 45.6698 34.0668 45.1867 34.3736C44.6376 34.7224 43.3698 34.7897 42.4179 34.009C41.4649 33.2273 41.1477 31.8217 41.5005 29.944C41.5005 29.944 41.5005 29.944 41.5005 29.944C41.5359 29.7554 41.6554 29.5922 41.8201 29.5077C44.1516 28.3111 45.4958 27.9197 45.9952 27.9197C46.0706 27.9197 46.1267 27.9286 46.1641 27.945C46.3141 28.1242 46.5108 29.1432 46.3299 30.8778ZM21.3076 36.6753C21.2594 36.5638 21.3731 36.368 21.4453 36.261C21.5596 36.0917 21.6649 36.0571 21.7444 36.0571C21.7612 36.0571 21.7769 36.0586 21.7913 36.0608C22.0054 36.0928 22.3054 36.357 22.4644 36.8C22.5018 36.9043 22.5504 37.077 22.5618 37.2924C21.9171 37.1427 21.4162 36.9268 21.3076 36.6753Z" fill="white"/>
<path d="M50.7778 37.0837L49.467 36.613C49.2991 36.5526 49.1668 36.4024 49.1131 36.211C48.8369 35.2262 48.42 34.3016 47.8741 33.4629C47.6252 33.0807 47.3486 32.7156 47.0463 32.3681C47.2397 31.4169 47.3448 30.3405 47.3312 29.4105C47.3117 28.08 47.0746 27.2997 46.6063 27.0247C46.3541 26.8764 45.5866 26.426 41.4324 28.5582C41.3341 28.6086 41.2422 28.6708 41.1571 28.742C40.8771 28.6576 40.5908 28.5795 40.3028 28.5095C40.2681 28.501 40.2324 28.4935 40.1974 28.4852C40.5341 27.6607 40.7306 26.7651 40.7676 25.8407C40.7791 25.5525 40.5801 25.3085 40.3231 25.2957C40.0668 25.2814 39.8485 25.5058 39.8371 25.7939C39.7764 27.314 39.214 28.7442 38.2536 29.8211C37.6798 30.4645 37.0079 30.9319 36.2919 31.2262C35.0501 31.0308 33.7852 31.0308 32.5434 31.2262C31.8272 30.9319 31.1554 30.4645 30.5816 29.8211C29.557 28.6722 28.9927 27.1448 28.9927 25.52C28.9927 23.8952 29.557 22.3677 30.5816 21.2189C31.6062 20.0699 32.9686 19.4372 34.4176 19.4372C35.8666 19.4372 37.229 20.0699 38.2536 21.2189C38.6654 21.6805 39.0056 22.2074 39.2649 22.7846C39.3806 23.0422 39.6607 23.1459 39.8904 23.0162C40.1201 22.8865 40.2126 22.5725 40.0969 22.315C39.7929 21.6381 39.3944 21.0209 38.9123 20.4803C37.7118 19.1342 36.1155 18.3928 34.4177 18.3928C32.7199 18.3928 31.1236 19.1342 29.9231 20.4803C28.7225 21.8265 28.0613 23.6162 28.0613 25.5199C28.0613 27.4236 28.7225 29.2134 29.9231 30.5595C30.2694 30.9478 30.6461 31.2818 31.0446 31.5615C31.0448 31.5615 31.0449 31.5614 31.045 31.5614C30.7554 31.6458 30.4681 31.7406 30.1839 31.8471C29.9399 31.9385 29.8083 32.2343 29.8899 32.5079C29.9714 32.7814 30.2353 32.929 30.4792 32.8376C33.0189 31.8856 35.8164 31.8856 38.3562 32.8376C38.4052 32.856 38.4549 32.8647 38.5039 32.8647C38.6987 32.8647 38.8803 32.7265 38.9455 32.5079C39.0271 32.2344 38.8954 31.9385 38.6515 31.8471C38.3673 31.7406 38.0799 31.6457 37.7904 31.5614C37.7905 31.5614 37.7906 31.5615 37.7908 31.5615C38.1893 31.2818 38.566 30.9478 38.9123 30.5595C39.2187 30.216 39.4891 29.8409 39.7239 29.4422C39.8523 29.4702 39.9797 29.4995 40.1053 29.53C40.2726 29.5707 40.4391 29.6144 40.6041 29.6603C40.5989 29.6831 40.5936 29.7057 40.5893 29.7287C40.3621 30.9372 40.3769 32.0061 40.6331 32.9054C40.8633 33.7137 41.2789 34.3686 41.8681 34.852C42.5625 35.4216 43.4009 35.6676 44.1603 35.6676C44.7319 35.6676 45.2588 35.5281 45.6458 35.2824C46.0836 35.0044 46.4503 34.4186 46.7406 33.5391C46.8748 33.7147 47.002 33.8946 47.1219 34.0788C47.6079 34.8254 47.979 35.6483 48.2248 36.5244C48.3691 37.039 48.7273 37.4439 49.183 37.6076L50.4937 38.0784C50.8377 38.202 51.0688 38.5569 51.0688 38.9618V41.3988C51.0688 41.8037 50.8377 42.1587 50.4937 42.2822L48.3819 43.0407C48.0441 43.1621 47.7581 43.4225 47.5768 43.7738C46.7471 45.3816 45.4427 46.712 43.6995 47.7282C43.4981 47.8457 43.3586 48.0559 43.3166 48.3049L42.6402 52.3206C42.6216 52.4313 42.5351 52.5115 42.4347 52.5115H40.2355C40.1351 52.5115 40.0486 52.4312 40.0299 52.3206L39.6553 50.1013C39.5816 49.6647 39.2163 49.3746 38.8232 49.4414C37.8759 49.602 36.8997 49.6834 35.9221 49.6834C35.1947 49.6834 34.4766 49.6379 33.7877 49.5481C33.4067 49.499 33.0519 49.7902 32.9807 50.2119L32.6247 52.3206C32.606 52.4313 32.5196 52.5115 32.4191 52.5115H30.2199C30.1195 52.5115 30.0331 52.4312 30.0141 52.319L29.3629 48.5262C29.3209 48.2818 29.1841 48.074 28.9871 47.9561C26.0156 46.1774 24.445 43.2058 24.445 39.3628C24.445 37.421 24.8239 35.704 25.5711 34.2593C26.2683 32.9111 27.2867 31.7963 28.5979 30.9459C28.8205 30.8015 28.8966 30.4821 28.7678 30.2324C28.6391 29.9828 28.3542 29.8976 28.1315 30.0419C25.5891 31.6909 24.0556 34.2351 23.6334 37.4664V37.4663C23.5886 37.4617 23.5438 37.4574 23.4991 37.4522C23.5072 37.1036 23.4509 36.7518 23.3284 36.4104C23.0582 35.6573 22.5033 35.1138 21.9144 35.0257C21.4504 34.956 21.0089 35.1769 20.7024 35.6309C20.2581 36.2892 20.3306 36.8102 20.4695 37.1313C20.7041 37.6732 21.307 38.0565 22.3076 38.2975C22.2801 38.3437 22.2498 38.3901 22.2167 38.4367C21.6255 39.268 20.929 39.4518 20.4767 39.4691C20.212 39.4792 20 39.7175 20 40.0146V40.0171C20 40.3101 20.2062 40.549 20.4672 40.5624C20.5007 40.5642 20.5356 40.5651 20.572 40.5651C21.1443 40.5651 22.0627 40.3284 22.9451 39.0878C23.0844 38.892 23.1979 38.6854 23.2851 38.472C23.373 38.4831 23.4574 38.4927 23.5383 38.5011C23.5383 38.5009 23.5383 38.5007 23.5384 38.5005C23.5225 38.7835 23.5137 39.0706 23.5137 39.3628C23.5137 41.5371 23.976 43.4759 24.8877 45.1253C25.7283 46.646 26.9319 47.8911 28.4661 48.8275L29.0992 52.5148C29.2011 53.118 29.6724 53.5558 30.2199 53.5558H32.4191C32.9667 53.5558 33.438 53.118 33.5398 52.5148L33.8617 50.6081C34.5302 50.6875 35.2223 50.7277 35.922 50.7277C36.882 50.7277 37.8409 50.6527 38.7754 50.5047L39.1147 52.5149C39.2166 53.1181 39.6879 53.5559 40.2354 53.5559H42.4346C42.9821 53.5559 43.4534 53.1181 43.5553 52.5146L44.2139 48.6049C46.0744 47.5018 47.4768 46.0527 48.3829 44.2968C48.4482 44.1703 48.5487 44.0774 48.666 44.0353L50.7778 43.2768C51.5088 43.0141 52 42.2594 52 41.3987V38.9617C52 38.101 51.5088 37.3463 50.7778 37.0837ZM46.3299 30.8778C46.1506 32.5966 45.6698 34.0668 45.1867 34.3736C44.6376 34.7224 43.3698 34.7897 42.4179 34.009C41.4649 33.2273 41.1477 31.8217 41.5005 29.944C41.5005 29.944 41.5005 29.944 41.5005 29.944C41.5359 29.7554 41.6554 29.5922 41.8201 29.5077C44.1516 28.3111 45.4958 27.9197 45.9952 27.9197C46.0706 27.9197 46.1267 27.9286 46.1641 27.945C46.3141 28.1242 46.5108 29.1432 46.3299 30.8778ZM21.3076 36.6753C21.2594 36.5638 21.3731 36.368 21.4453 36.261C21.5596 36.0917 21.6649 36.0571 21.7444 36.0571C21.7612 36.0571 21.7769 36.0586 21.7913 36.0608C22.0054 36.0928 22.3054 36.357 22.4644 36.8C22.5018 36.9043 22.5504 37.077 22.5618 37.2924C21.9171 37.1427 21.4162 36.9268 21.3076 36.6753Z" stroke="white" stroke-width="0.4" mask="url(#path-3-outside-1)"/>
<path d="M35.9568 25.4691C35.6741 25.1762 35.3106 24.9982 34.9699 24.8551V23.1652C35.182 23.1966 35.335 23.2644 35.4574 23.3292C35.4855 23.3441 35.5158 23.3611 35.5456 23.3777C35.5846 23.3995 35.6228 23.4209 35.6542 23.4366C35.7143 23.4666 35.7818 23.4939 35.8551 23.4939C36.0325 23.4939 36.1494 23.3672 36.2159 23.2449C36.2834 23.121 36.3164 22.9734 36.3164 22.8692C36.3164 22.5761 36.0613 22.3916 35.7897 22.2828C35.5398 22.1825 35.236 22.1286 34.9699 22.1112V21.9578C34.9699 21.865 34.9191 21.7863 34.8576 21.7342C34.7955 21.6816 34.7115 21.6461 34.6236 21.6461C34.4358 21.6461 34.2855 21.7854 34.2855 21.9578V22.1374C33.9103 22.1948 33.5348 22.3381 33.245 22.6071C32.9299 22.8997 32.7256 23.3324 32.7256 23.9369C32.7256 24.5536 32.9423 24.9583 33.2617 25.2448C33.557 25.5097 33.9361 25.6691 34.2855 25.8088V27.7912C33.9572 27.7384 33.7407 27.5888 33.574 27.4425C33.5273 27.4014 33.4846 27.3608 33.4436 27.3216L33.4413 27.3194C33.4017 27.2817 33.3626 27.2443 33.3248 27.2121C33.2515 27.1494 33.1624 27.0862 33.0555 27.0862C32.9027 27.0862 32.7821 27.1964 32.7064 27.3104C32.6285 27.4278 32.5779 27.5779 32.5779 27.711C32.5779 27.9834 32.7806 28.2766 33.092 28.4978C33.3887 28.7086 33.7998 28.8667 34.2855 28.8935V29.0825C34.2855 29.2549 34.4358 29.3942 34.6236 29.3942C34.7116 29.3942 34.7955 29.3587 34.8576 29.3061C34.9191 29.254 34.9699 29.1753 34.9699 29.0825V28.8536C35.3967 28.771 35.7627 28.5746 36.0264 28.2582C36.3072 27.9212 36.4641 27.4574 36.4641 26.8733C36.4641 26.2238 36.2606 25.7839 35.9568 25.4691ZM34.3347 23.191V24.5939C34.1783 24.5219 34.0464 24.4471 33.9468 24.3515C33.8242 24.2339 33.7466 24.0807 33.7466 23.8449C33.7466 23.631 33.8187 23.4819 33.9351 23.3774C34.0331 23.2893 34.1687 23.2273 34.3347 23.191ZM35.2712 27.5285C35.1857 27.6314 35.0682 27.7077 34.9206 27.756V26.1082C35.0542 26.1839 35.168 26.2695 35.2549 26.3769C35.3693 26.5183 35.4431 26.7048 35.4431 26.9745C35.4431 27.2188 35.3784 27.3994 35.2712 27.5285Z" fill="white" stroke="white" stroke-width="0.2"/>
<defs>
<linearGradient id="paint0_linear" x1="-3.86016e-07" y1="33.9928" x2="70.2744" y2="34.3064" gradientUnits="userSpaceOnUse">
<stop stop-color="#47C2FF"/>
<stop offset="1" stop-color="#63CBFE" stop-opacity="0.65"/>
</linearGradient>
</defs>
</svg>
