<svg width="568" height="416" viewBox="0 0 568 416" fill="none" xmlns="http://www.w3.org/2000/svg">
<path d="M246.204 89.7401C227.073 20.3536 140.882 -1.99601 91.4946 49.8511C90.7847 50.5977 90.0748 51.3566 89.3649 52.1277C18.5463 129.115 51.9973 318.817 199.791 366.895C347.585 414.972 501.314 327.177 509.943 248.684C518.585 170.191 450.398 145.528 344.574 167.474C284.807 179.885 258.113 132.934 246.204 89.7401Z" fill="#BBF2D1" fill-opacity="0.71"/>
<path d="M369.151 101.6C349.372 104.819 343.9 122.334 359.163 134.77C364.206 138.882 371.415 142.285 381.684 143.999C420.79 150.486 441.548 133.179 425.869 110.743C416.2 96.9004 388.746 98.4181 369.151 101.6Z" fill="#BBF2D1" fill-opacity="0.71"/>
<path d="M53.8577 241.805C41.5691 225.992 23.5646 229.566 19.9539 248.917C18.7666 255.318 19.2195 263.274 22.6343 273.102C35.6573 310.543 60.7853 320.482 72.9882 295.978C80.5156 280.85 66.0361 257.484 53.8577 241.805Z" fill="#BBF2D1" fill-opacity="0.71"/>
<path d="M523.884 257.803C522.061 267.337 529.943 274.094 538.853 270.422C541.803 269.21 544.777 266.86 547.421 262.747C557.507 247.069 552.39 233.617 538.364 234.988C529.71 235.845 525.696 248.354 523.884 257.803Z" fill="#BBF2D1" fill-opacity="0.71"/>
<path d="M473.898 157.181C483.396 159.163 490.287 151.404 486.761 142.42C485.599 139.445 483.31 136.434 479.234 133.717C463.726 123.375 450.189 128.246 451.328 142.31C452.038 150.987 464.485 155.21 473.898 157.181Z" fill="#BBF2D1" fill-opacity="0.71"/>
<path d="M242.899 55.1265C250.426 61.2586 260.108 57.5377 261.112 47.9418C261.442 44.7718 260.793 41.0387 258.431 36.7548C249.423 20.4271 235.164 18.53 229.705 31.5407C226.351 39.5699 235.445 49.0557 242.899 55.1265Z" fill="#BBF2D1" fill-opacity="0.71"/>
<path d="M547.446 305.513C562.537 290.348 574.03 273.2 562.598 270.532C551.154 267.851 531.938 297.728 528.584 324.925L525.231 333.896C528.021 314.117 521.241 290.03 511.326 289.038C501.474 288.047 507.434 303.677 515.268 317.042C521.228 327.214 522.795 335.243 523.187 339.38L507.361 381.778C511.681 350.457 500.947 312.44 485.256 310.874C469.614 309.307 479.087 334.105 491.51 355.304C500.898 371.325 503.42 383.993 504.068 390.615L500.91 399.073C502.294 399.844 503.677 400.615 505.06 401.374L523.897 350.922C527.532 348.205 533.052 344.937 540.897 342.281C555.573 337.324 570.309 329.429 562.219 323.713C555.193 318.756 538.682 328.303 527.311 341.767L533.823 324.325C536.76 319.282 540.934 312.061 547.446 305.513Z" fill="#1CB56C"/>
<path d="M71.7765 107.598C73.7348 89.2749 72.2049 71.5641 63.0863 75.9337C53.9556 80.3032 57.1623 110.731 69.5733 130.792L72.1681 138.625C63.3801 123.84 45.8407 111.318 38.6438 116.006C31.4958 120.657 43.919 127.94 56.379 132.689C65.8647 136.312 71.2502 140.853 73.7471 143.423L85.9745 180.436C71.9968 157.07 44.2985 137.328 32.9034 144.733C21.5572 152.113 41.2753 163.655 61.0545 171.195C75.9991 176.898 84.5179 184.046 88.5203 188.134L90.956 195.515C92.3023 195.295 93.6487 195.062 94.9828 194.83L80.4299 150.804C81.4091 147.022 83.3429 141.844 87.1862 135.834C94.3586 124.598 100.013 111.343 91.4945 111.869C84.1018 112.322 78.1656 127.634 77.7861 142.811L72.7556 127.585C72.0213 122.603 70.9319 115.504 71.7765 107.598Z" fill="#1CB56C"/>
<path d="M445.587 355.903C445.783 356.944 446.004 358.07 446.261 359.281C448.978 371.913 455.648 392.598 470.654 396.661C470.654 396.661 462.49 354.067 491.608 342.966C520.727 331.877 517.507 321.302 515.843 302.502C514.178 283.702 507.74 280.115 527.948 262.503C548.156 244.89 544.288 218.648 544.288 218.648C544.288 218.648 525.17 248.598 504.742 249.296C484.314 249.994 480.74 267.423 481.609 280.385C482.478 293.346 465.134 294.815 455.746 302.33C446.358 309.846 444.596 349.343 444.596 349.343C444.596 349.343 444.865 351.938 445.587 355.903Z" fill="#8CE89B"/>
<path d="M445.587 355.903C445.783 356.944 446.004 358.07 446.261 359.281C448.354 352.941 451.303 347.617 454.057 343.529C460.593 333.847 469.785 325.904 478.059 322.783C491.229 317.813 497.667 304.901 498.916 280.886C499.638 266.946 514.215 258.721 514.362 258.635C514.79 258.402 514.949 257.864 514.705 257.435C514.472 257.007 513.934 256.848 513.505 257.093C512.869 257.448 497.912 265.868 497.141 280.801C495.941 304.007 489.858 316.455 477.435 321.13C468.708 324.423 459.418 332.428 452.588 342.538C450.177 346.112 447.619 350.616 445.587 355.903Z" fill="#58D16F"/>
<path d="M123.281 396.429H143.746C132.693 394.605 105.276 382.831 102.841 359.233C99.7441 329.343 89.1078 329.723 71.1645 326.59C53.2334 323.468 48.2886 328.572 36.9058 305.366C25.5229 282.172 0.113403 279.247 0.113403 279.247C0.113403 279.247 23.2708 304.509 18.8401 323.713C14.4093 342.917 29.7578 350.579 42.0587 352.99C54.3595 355.402 51.4097 371.925 56.073 382.537C58.2027 387.384 66.9296 392.402 75.7911 396.429H123.281Z" fill="#58D16F"/>
<path d="M78.9611 367.017C79.8546 375.964 85.0075 386.613 92.7307 395.486C93 395.805 93.2815 396.111 93.5753 396.429H95.9008C95.2399 395.731 94.6034 395.034 94.0159 394.36C86.6232 385.866 81.507 375.328 80.6502 366.833C79.3039 353.321 68.8634 344.117 46.8076 336.993C34.0049 332.856 29.9536 317.226 29.9169 317.067C29.8067 316.614 29.3416 316.333 28.8888 316.443C28.4359 316.553 28.1544 317.018 28.2645 317.471C28.4359 318.156 32.5607 334.178 46.2813 338.609C67.615 345.512 77.6882 354.276 78.9611 367.017Z" fill="#1CB56C"/>
<path d="M134.321 340.959C133.893 342.415 133.391 343.994 132.84 345.671C127.026 363.272 115.093 392.928 93.049 396.429C93.049 396.429 110.49 335.732 70.6627 315.439C30.8349 295.134 37.0526 280.556 42.3157 253.996C47.5787 227.424 57.3093 223.299 31.2021 195.062C5.08271 166.825 14.6296 129.996 14.6296 129.996C14.6296 129.996 37.2974 175.662 66.3299 179.799C95.3623 183.924 97.7735 209.346 94.5422 227.718C91.311 246.077 115.827 250.838 128.054 263.005C140.282 275.171 136.732 331.779 136.732 331.779C136.732 331.779 135.961 335.426 134.321 340.959Z" fill="#8CE89B"/>
<path d="M134.321 340.959C133.893 342.416 133.391 343.994 132.84 345.671C130.833 336.308 127.442 328.254 124.138 322.012C116.304 307.202 104.407 294.448 93.0857 288.72C75.0567 279.614 67.8721 260.19 69.7814 225.747C70.8953 205.76 51.3608 191.77 51.1527 191.635C50.5774 191.231 50.4428 190.436 50.8467 189.873C51.2506 189.298 52.0462 189.163 52.6092 189.567C53.466 190.167 73.5023 204.487 72.3028 225.894C70.4546 259.186 77.2109 277.876 94.2118 286.468C106.158 292.502 118.177 305.342 126.365 320.825C129.278 326.296 132.228 333.113 134.321 340.959Z" fill="#58D16F"/>
<path d="M150.122 382.157C150.196 386.771 150.269 391.569 150.38 396.429H194.883C194.969 391.117 195.03 386.013 195.079 381.239C195.213 368.29 195.226 357.629 195.213 350.995C195.213 346.295 195.189 343.627 195.189 343.627L149.804 343.149C149.804 343.149 149.804 347.066 149.841 353.48C149.878 360.615 149.951 370.823 150.122 382.157Z" fill="#1B3155"/>
<path d="M149.841 353.492C149.865 360.615 149.951 370.823 150.122 382.157C164.1 383.222 179.424 383.234 195.079 381.239C195.213 368.29 195.226 357.629 195.213 350.995L149.841 353.492Z" fill="#000B29"/>
<path d="M94.0404 371.925C94.0894 379.183 94.1751 387.494 94.322 396.429H138.825C138.935 391.19 139.021 386.025 139.095 381.08C139.254 370.481 139.327 360.922 139.364 354.067C139.401 347.311 139.401 343.162 139.401 343.162L94.0037 343.639C94.0037 343.639 93.967 348.449 93.9792 356.552C93.9792 360.836 93.9915 366.026 94.0404 371.925Z" fill="#1B3155"/>
<path d="M93.9792 356.552C93.9792 360.836 94.0037 366.026 94.0404 371.925C103.073 374.593 119.254 378.73 139.095 381.08C139.254 370.481 139.327 360.922 139.364 354.067L93.9792 356.552Z" fill="#000B29"/>
<path d="M168.579 104.391C168.579 104.391 175.727 97.4999 175.702 90.7069C175.678 83.9016 171.051 85.9089 168.579 79.5811C166.094 73.2409 158.726 69.3732 154.687 70.1565C150.648 70.9276 142.105 55.163 130.526 57.9414C118.947 60.7198 119.951 75.5664 114.969 77.7329C109.988 79.8993 111.371 88.7118 114.002 90.7191C116.634 92.7264 117.748 100.805 119.216 100.621C120.697 100.425 168.579 104.391 168.579 104.391Z" fill="#1B3155"/>
<path d="M120.454 104.232C120.454 104.232 115.962 98.2343 112.62 103.191C109.279 108.148 114.003 122.787 122.192 119.213L120.454 104.232Z" fill="#F97853"/>
<path d="M120.392 114.697C120.086 114.697 119.817 114.501 119.731 114.195C118.459 109.678 113.783 107.842 113.734 107.818C113.379 107.683 113.195 107.279 113.33 106.924C113.465 106.57 113.869 106.386 114.224 106.521C114.444 106.606 119.609 108.601 121.066 113.815C121.163 114.183 120.955 114.562 120.588 114.672C120.515 114.684 120.454 114.697 120.392 114.697Z" fill="#EA5143"/>
<path d="M115.668 112.42C115.546 112.42 115.411 112.383 115.288 112.31C114.97 112.102 114.872 111.673 115.08 111.355C115.117 111.306 115.949 110.033 117.675 109.262C118.018 109.103 118.434 109.262 118.593 109.617C118.752 109.96 118.593 110.376 118.25 110.535C116.904 111.135 116.255 112.102 116.255 112.114C116.109 112.31 115.888 112.42 115.668 112.42Z" fill="#EA5143"/>
<path d="M166.781 104.232C166.781 104.232 171.273 98.2343 174.614 103.191C177.955 108.148 173.231 122.787 165.043 119.213L166.781 104.232Z" fill="#F97853"/>
<path d="M166.842 114.697C167.148 114.697 167.417 114.501 167.503 114.195C168.776 109.678 173.451 107.842 173.5 107.818C173.855 107.683 174.039 107.279 173.904 106.924C173.769 106.57 173.366 106.386 173.011 106.521C172.79 106.606 167.625 108.601 166.169 113.815C166.071 114.183 166.279 114.562 166.646 114.672C166.719 114.684 166.781 114.697 166.842 114.697Z" fill="#EA5143"/>
<path d="M171.566 112.42C171.689 112.42 171.823 112.383 171.946 112.31C172.264 112.102 172.362 111.673 172.154 111.355C172.117 111.306 171.285 110.033 169.559 109.262C169.216 109.103 168.8 109.262 168.641 109.617C168.482 109.96 168.641 110.376 168.996 110.535C170.33 111.135 170.991 112.102 170.991 112.114C171.126 112.31 171.346 112.42 171.566 112.42Z" fill="#EA5143"/>
<path d="M154.688 131.636V146.201C154.688 146.201 150.343 153.619 144.468 154.12C138.605 154.635 133.391 147.731 133.391 147.731V132.664L154.688 131.636Z" fill="#FFA681"/>
<path d="M154.688 131.636V138.099C150.747 142.468 143.746 143.558 133.391 142.04V132.664L154.688 131.636Z" fill="#F97853"/>
<path d="M170.036 94.2443C169.767 99.899 169.229 106.974 168.151 112.64C167.882 114.048 167.576 115.382 167.233 116.569C164.174 127.304 156.499 145.7 135.043 138.038C125.57 134.66 121.176 124.097 119.217 113.363C117.883 106.068 117.687 98.6995 117.785 93.4365C117.883 88.0633 120.821 83.1552 125.496 80.4992C138.164 73.3145 151.53 75.995 160.33 79.3731C166.438 81.7231 170.342 87.7206 170.036 94.2443Z" fill="#FFA681"/>
<path d="M119.23 113.35C119.23 113.35 121.31 125.761 123.281 130.278C125.252 134.794 130.625 135.651 132.644 139.47C135.521 144.916 139.902 149.237 147.124 146.606C153.121 144.415 152.852 141.342 156.218 138.968C161.983 134.904 164.835 130.425 165.067 126.716C165.3 123.007 168.164 112.628 168.164 112.628L165.067 112.408C165.067 112.408 163.305 116.055 160.71 120.082C158.103 114.366 145.569 118.528 145.569 118.528L143.17 119.299L140.71 118.528C140.71 118.528 128.03 114.55 125.521 120.535C123.991 118.185 122.742 115.554 122.167 112.751L119.23 113.35ZM143.17 121.233C157.552 118.76 154.982 127.181 154.884 127.487C153.905 128.417 152.913 129.188 151.934 129.727C146.365 132.738 145.765 132.285 143.562 132.383C141.322 132.493 138.238 131.832 135.117 130.082C134.138 129.531 132.681 128.479 131.09 127.022C131.078 127.022 128.825 119.299 143.17 121.233Z" fill="#1B3155"/>
<path d="M134.529 106.129C134.529 107.683 133.734 108.944 132.742 108.944C131.751 108.944 130.955 107.683 130.955 106.129C130.955 104.574 131.751 103.314 132.742 103.314C133.734 103.314 134.529 104.574 134.529 106.129Z" fill="#1B3155"/>
<path d="M155.802 106.129C155.802 107.683 155.006 108.944 154.015 108.944C153.023 108.944 152.228 107.683 152.228 106.129C152.228 104.574 153.023 103.314 154.015 103.314C155.006 103.314 155.802 104.574 155.802 106.129Z" fill="#1B3155"/>
<path d="M161.052 96.8635C161.052 96.8635 153.66 93.9383 147.968 96.3984L148.544 99.5685C148.544 99.5685 156.903 98.8586 161.114 100.572C161.481 99.3482 161.542 98.112 161.052 96.8635Z" fill="#1B3155"/>
<path d="M125.9 96.8758C125.9 96.8758 133.354 93.9382 139.082 96.4107L138.507 99.6052C138.507 99.6052 130.086 98.8953 125.851 100.609C125.472 99.3849 125.423 98.1364 125.9 96.8758Z" fill="#1B3155"/>
<path d="M143.856 117.928C145.019 117.928 146.181 117.475 146.365 117.402C146.72 117.255 146.891 116.851 146.744 116.496C146.597 116.141 146.194 115.97 145.839 116.116C145.214 116.373 143.709 116.765 143.06 116.373C142.938 116.3 142.766 116.153 142.718 115.725C142.473 113.314 143.134 105.211 143.134 105.125C143.17 104.746 142.877 104.415 142.497 104.379C142.118 104.342 141.787 104.636 141.751 105.015C141.726 105.358 141.077 113.326 141.334 115.859C141.432 116.814 141.934 117.304 142.338 117.548C142.791 117.83 143.329 117.928 143.856 117.928Z" fill="#F97853"/>
<path d="M135.043 122.616C135.57 125.259 137.308 130.119 143.195 130.119C149.094 130.119 150.747 125.676 151.31 122.616H135.043Z" fill="white"/>
<path d="M170.036 94.2443C169.767 99.899 169.229 106.974 168.151 112.64L165.055 112.42C165.055 112.42 165.801 107.647 166.144 104.526C166.487 101.417 167.074 95.5907 164.418 94.8685C161.775 94.1464 163.329 87.5125 159.633 84.6362C155.949 81.7476 147.76 79.214 142.314 82.5555C136.879 85.8969 130.698 84.0487 128.189 84.6362C125.68 85.2114 122.277 88.663 123.195 91.8943C124.125 95.1133 121.359 97.0839 120.686 100.425C120.013 103.767 122.155 112.763 122.155 112.763L119.205 113.363C117.871 106.068 117.675 98.6995 117.773 93.4365C117.871 88.0633 120.808 83.1552 125.484 80.4992C138.152 73.3145 151.518 75.995 160.318 79.3731C166.438 81.7231 170.342 87.7206 170.036 94.2443Z" fill="#1B3155"/>
<path d="M204.589 365.524C190.599 369.073 176.597 371.362 162.595 372.415C161.958 372.463 161.334 372.512 160.698 372.549C158.776 372.684 156.842 372.782 154.92 372.867C145.398 373.284 135.863 373.112 126.341 372.378C124.419 372.231 122.498 372.06 120.576 371.864C119.964 371.803 119.352 371.741 118.728 371.668C107.345 370.432 95.9743 368.375 84.5915 365.511C84.4813 355.022 84.6037 321.865 85.2524 285.905C85.3258 281.584 85.4115 277.227 85.5094 272.857C86.5131 225.465 88.4592 177.351 91.972 172.541C95.3256 167.927 105.448 162.064 115.117 156.777C115.692 156.458 116.268 156.152 116.843 155.834C119.022 154.647 121.139 153.509 123.146 152.419C127.43 150.081 131.127 148.013 133.415 146.41V147.731C133.415 147.731 138.617 154.622 144.492 154.108C149.841 153.643 153.917 147.474 154.602 146.361C157.124 148.135 161.652 150.583 166.915 153.362C168.372 154.133 169.89 154.928 171.432 155.748C171.995 156.042 172.57 156.348 173.145 156.654C183.843 162.321 195.372 168.722 198.836 173.471C199.093 173.826 199.338 174.414 199.571 175.222C201.615 182.162 202.888 205.172 203.659 233.042C203.659 233.14 203.659 233.238 203.671 233.348C203.708 234.474 203.732 235.612 203.757 236.75C203.769 236.897 203.769 237.044 203.769 237.203C204.026 246.983 204.209 257.276 204.356 267.606C204.369 268.427 204.381 269.247 204.393 270.067C204.393 270.483 204.405 270.887 204.405 271.303C204.442 273.335 204.467 275.379 204.479 277.398C204.503 278.891 204.515 280.385 204.528 281.878C204.907 319.27 204.748 354.532 204.589 365.524Z" fill="#58D16F"/>
<path d="M203.732 236.762C200.366 231.267 196.743 225.649 193.341 220.68C193.328 220.667 193.316 220.655 193.316 220.643C191.884 218.562 190.489 216.592 189.167 214.792C189.142 214.756 189.118 214.731 189.094 214.694C188.677 214.131 188.273 213.581 187.87 213.042C187.808 212.944 187.759 212.858 187.723 212.748C187.613 212.393 187.735 211.989 188.053 211.745C188.469 211.439 189.045 211.512 189.351 211.928C193.439 217.35 198.677 225.135 203.622 233.054C203.622 233.152 203.622 233.25 203.634 233.36C203.683 234.486 203.708 235.624 203.732 236.762Z" fill="#26BE6C"/>
<path d="M198.946 172.725C198.946 172.725 220.048 211.39 232.924 230.998C232.924 230.998 240.243 224.278 249.753 215.282C260.071 205.527 274.183 189.236 274.183 189.236L281.992 198.501C281.992 198.501 250.292 255.562 236.069 262.723C221.847 269.895 195.642 219.137 195.642 219.137L198.946 172.725Z" fill="#58D16F"/>
<path d="M109.585 325.133C109.573 325.133 109.56 325.133 109.548 325.133C109.022 325.108 108.606 324.668 108.63 324.141C109.732 292.918 93.5386 282.796 93.3795 282.698C92.9266 282.429 92.7798 281.841 93.049 281.388C93.3183 280.935 93.9058 280.788 94.3587 281.058C94.5423 281.168 98.8139 283.763 102.963 290.433C106.745 296.516 111.139 307.312 110.539 324.215C110.515 324.729 110.087 325.133 109.585 325.133Z" fill="#26BE6C"/>
<path d="M178.665 295.709C178.176 295.709 177.76 295.329 177.711 294.827C177.197 288.255 179.363 283.457 182.105 277.386C182.912 275.611 183.733 273.775 184.589 271.707C189.914 258.794 187.233 244.033 187.209 243.886C187.111 243.372 187.453 242.87 187.967 242.772C188.481 242.674 188.983 243.017 189.081 243.531C189.204 244.155 191.884 259.002 186.352 272.429C185.495 274.522 184.65 276.37 183.843 278.157C181.113 284.203 179.13 288.585 179.608 294.668C179.644 295.194 179.253 295.647 178.726 295.696C178.714 295.709 178.69 295.709 178.665 295.709Z" fill="#26BE6C"/>
<path d="M123.134 152.419C123.538 155.491 124.138 159.481 124.799 164.01C124.995 165.356 125.203 166.752 125.398 168.184C126.059 172.859 126.745 177.951 127.332 183.104C127.491 184.487 127.638 185.87 127.773 187.253C128.287 192.345 128.679 197.412 128.813 202.124C128.862 203.544 128.874 204.939 128.874 206.286C128.862 209.884 128.666 213.177 128.226 216.004C127.944 217.791 127.699 219.529 127.479 221.243C127.296 222.662 127.136 224.046 126.99 225.416C126.439 230.728 126.157 235.673 126.072 240.337C126.047 241.756 126.047 243.139 126.059 244.498C126.096 249.786 126.402 254.718 126.843 259.418C126.977 260.826 127.112 262.209 127.259 263.567C127.834 268.696 128.52 273.579 129.18 278.402C129.376 279.785 129.56 281.156 129.731 282.539C130.013 284.742 130.282 286.957 130.515 289.173C130.759 291.523 130.919 294.289 130.992 297.337C131.029 298.671 131.053 300.066 131.053 301.51C131.078 306.076 130.955 311.143 130.747 316.43C130.686 317.813 130.637 319.209 130.564 320.629C130.331 325.549 130.013 330.604 129.67 335.585C129.572 336.993 129.462 338.388 129.364 339.784C128.985 344.973 128.556 350.04 128.116 354.74C127.981 356.173 127.859 357.568 127.724 358.914C127.222 364.092 126.745 368.694 126.329 372.378C135.863 373.112 145.386 373.271 154.92 372.855C155.141 368.951 155.753 362.635 156.352 355.218C156.463 353.859 156.573 352.464 156.683 351.032C157.038 346.307 157.368 341.265 157.576 336.173C157.638 334.778 157.687 333.382 157.723 331.975C157.87 326.895 157.87 321.84 157.65 317.104C157.589 315.672 157.503 314.264 157.393 312.893C157.283 311.498 157.148 310.127 156.989 308.817C156.524 305.096 156.352 301.522 156.377 297.997C156.377 296.602 156.414 295.207 156.487 293.812C156.707 288.965 157.234 284.118 157.846 278.965C158.005 277.594 158.176 276.211 158.348 274.791C158.898 270.213 159.474 265.354 159.926 260.03C160.049 258.672 160.159 257.276 160.257 255.844C160.575 251.279 160.783 246.383 160.82 241.034C160.832 239.651 160.82 238.256 160.808 236.812C160.759 232.185 160.563 227.24 160.183 221.916C160.147 221.439 160.122 220.961 160.086 220.484C160.012 219.554 159.951 218.611 159.914 217.669C159.669 212.81 159.731 207.804 160.012 202.822C160.086 201.427 160.183 200.019 160.281 198.624C160.661 193.63 161.224 188.685 161.873 183.948C162.068 182.541 162.264 181.146 162.472 179.775C163.256 174.585 164.088 169.689 164.859 165.32C165.116 163.888 165.361 162.505 165.593 161.183C166.12 158.233 166.573 155.601 166.903 153.374C161.652 150.595 157.124 148.148 154.59 146.373C153.905 147.487 149.829 153.655 144.48 154.12C138.617 154.635 133.403 147.744 133.403 147.744V146.422C131.114 148.025 127.418 150.094 123.134 152.419Z" fill="white"/>
<path d="M124.786 164.022C124.982 165.369 125.19 166.764 125.386 168.196C130.649 168.318 136.83 167.523 144.284 165.809C152.264 163.973 159.29 164.292 164.847 165.32C165.104 163.888 165.349 162.505 165.581 161.183C159.571 160.069 151.983 159.751 143.354 161.746C135.998 163.435 129.878 164.218 124.786 164.022Z" fill="#E3E3E3"/>
<path d="M127.32 183.116C127.479 184.499 127.626 185.882 127.761 187.265C132.485 187.143 137.92 186.347 144.272 184.879C150.869 183.361 156.83 183.324 161.848 183.948C162.044 182.541 162.24 181.145 162.448 179.775C157.013 179.101 150.539 179.163 143.342 180.815C137.185 182.235 131.873 183.018 127.32 183.116Z" fill="#E3E3E3"/>
<path d="M128.813 202.124C128.862 203.544 128.874 204.939 128.874 206.286C133.342 206.078 138.421 205.294 144.284 203.948C150.086 202.614 155.386 202.418 159.988 202.822C160.061 201.427 160.159 200.019 160.257 198.624C155.3 198.22 149.596 198.452 143.342 199.884C137.846 201.157 133.024 201.916 128.813 202.124Z" fill="#E3E3E3"/>
<path d="M127.002 225.429C131.91 225.367 137.589 224.572 144.296 223.03C150.171 221.671 155.532 221.5 160.183 221.916C160.147 221.438 160.122 220.961 160.086 220.484C160.012 219.554 159.951 218.611 159.914 217.669C155.043 217.301 149.462 217.559 143.366 218.966C137.271 220.374 132.02 221.145 127.504 221.255C127.308 222.662 127.136 224.058 127.002 225.429Z" fill="#E3E3E3"/>
<path d="M126.072 244.498C131.188 244.535 137.161 243.751 144.284 242.099C150.441 240.679 156.022 240.545 160.808 241.034C160.82 239.651 160.808 238.256 160.795 236.811C155.716 236.346 149.829 236.542 143.354 238.035C136.61 239.59 130.906 240.373 126.084 240.336C126.059 241.756 126.059 243.139 126.072 244.498Z" fill="#E3E3E3"/>
<path d="M126.843 259.418C126.977 260.826 127.112 262.209 127.259 263.567C132.106 263.494 137.699 262.698 144.272 261.181C150.049 259.847 155.324 259.651 159.902 260.03C160.024 258.672 160.134 257.276 160.232 255.844C155.275 255.44 149.584 255.673 143.329 257.105C136.965 258.574 131.506 259.357 126.843 259.418Z" fill="#E3E3E3"/>
<path d="M129.193 278.402C129.389 279.785 129.572 281.156 129.743 282.539C133.991 282.269 138.789 281.511 144.284 280.25C149.205 279.112 153.758 278.806 157.833 278.965C157.993 277.594 158.164 276.211 158.335 274.791C153.843 274.583 148.801 274.926 143.342 276.186C138.005 277.41 133.305 278.157 129.193 278.402Z" fill="#E3E3E3"/>
<path d="M131.004 297.349C131.041 298.683 131.065 300.078 131.065 301.522C134.982 301.192 139.352 300.47 144.284 299.319C148.617 298.328 152.681 297.961 156.365 297.997C156.365 296.602 156.401 295.207 156.475 293.811C152.472 293.775 148.066 294.166 143.354 295.256C138.776 296.308 134.676 297.006 131.004 297.349Z" fill="#E3E3E3"/>
<path d="M130.576 320.629C134.615 320.323 139.156 319.576 144.284 318.389C149.119 317.275 153.611 316.957 157.65 317.116C157.589 315.684 157.503 314.276 157.393 312.905C153.146 312.783 148.433 313.15 143.354 314.325C138.678 315.402 134.492 316.112 130.759 316.43C130.698 317.814 130.637 319.221 130.576 320.629Z" fill="#E3E3E3"/>
<path d="M129.364 339.784C133.709 339.539 138.629 338.768 144.284 337.47C149.094 336.357 153.562 336.038 157.564 336.185C157.625 334.79 157.674 333.395 157.711 331.987C153.378 331.84 148.556 332.195 143.342 333.407C138.213 334.594 133.672 335.328 129.67 335.598C129.572 337.005 129.474 338.401 129.364 339.784Z" fill="#E3E3E3"/>
<path d="M127.736 358.926C132.473 358.804 137.92 358.008 144.284 356.54C148.617 355.548 152.668 355.181 156.352 355.218C156.463 353.859 156.573 352.464 156.683 351.032C152.619 350.971 148.152 351.362 143.354 352.464C137.54 353.81 132.497 354.569 128.128 354.74C127.993 356.172 127.859 357.568 127.736 358.926Z" fill="#E3E3E3"/>
<path d="M160.698 372.549C161.334 372.512 161.958 372.463 162.595 372.414C166.352 350.334 164.186 317.911 163.378 307.985C162.546 297.667 164.149 284.411 167.784 271.609C170.599 261.67 168.874 238.611 167.491 220.092C167.099 214.89 166.732 209.982 166.511 205.943C165.801 192.908 170.526 168.771 173.121 156.678C172.545 156.372 171.97 156.066 171.407 155.773C168.8 167.743 163.904 192.43 164.651 206.053C164.871 210.104 165.251 215.025 165.63 220.239C167.013 238.623 168.727 261.486 165.997 271.107C162.301 284.118 160.673 297.618 161.53 308.144C162.338 318.07 164.516 350.689 160.698 372.549Z" fill="#26BE6C"/>
<path d="M122.216 282.685C124.419 296.259 123.734 305.083 122.926 315.291C122.669 318.596 122.4 321.999 122.204 325.768C121.616 337.58 119.621 361.386 118.728 371.667C119.34 371.74 119.952 371.802 120.576 371.863C121.457 361.569 123.465 337.714 124.064 325.854C124.248 322.121 124.517 318.718 124.774 315.438C125.582 305.108 126.292 296.185 124.052 282.391C123.575 279.429 123.061 276.418 122.559 273.432C120.062 258.634 117.467 243.334 118.691 236.003C118.985 234.216 119.364 232.184 119.78 230.03C121.445 221.181 123.514 210.177 122.865 200.618C122.216 191.145 118.336 165.503 116.843 155.845C116.268 156.151 115.692 156.47 115.117 156.788C116.672 166.898 120.38 191.548 121.017 200.753C121.653 210.067 119.609 220.948 117.969 229.699C117.565 231.866 117.173 233.898 116.88 235.709C115.607 243.347 118.104 258.12 120.747 273.762C121.225 276.724 121.739 279.735 122.216 282.685Z" fill="#26BE6C"/>
<path d="M85.7175 188.294C85.7175 188.294 66.8195 251.303 62.1439 273.751C57.4684 296.198 57.1012 342.88 57.1012 342.88C57.1012 342.88 48.8394 360.028 48.6436 367.653C48.4355 375.793 52.7072 382.255 52.2176 387.58C51.728 392.904 58.215 390.015 56.3791 379.232C54.5431 368.449 59.745 358.682 61.9848 359C64.2247 359.318 60.1244 370.775 62.1194 374.899C64.1145 379.024 66.6848 371.007 69.2552 366.136C71.9112 361.081 71.7643 350.053 70.5526 342.183C69.3408 334.313 83.6122 286.492 83.6857 272.637L101.751 211.574C101.739 211.586 95.7785 186.103 85.7175 188.294Z" fill="#FFA681"/>
<path d="M104.065 210.056C103.428 214.107 101.188 221.059 98.2876 229.798C98.0428 230.532 97.7858 231.291 97.541 232.05C97.5288 232.087 97.5165 232.124 97.5043 232.16C96.7821 234.339 96.0233 236.616 95.2399 238.966C95.2399 238.978 95.2277 238.99 95.2277 239.002C92.0209 248.733 88.4714 259.859 85.4972 271.303C84.4691 275.219 83.5144 279.173 82.6698 283.114C81.5805 288.144 80.6625 293.163 79.9894 298.071C77.5781 315.757 72.9516 338.168 72.9516 338.168C66.1708 340.946 55.5835 337.274 55.5835 337.274C55.5835 337.274 55.3142 304.998 56.8197 292.465C58.6924 276.957 61.0669 265.93 64.0166 253.249C72.1315 218.379 86.4152 184.267 90.3319 175.209C90.6378 174.487 90.8826 173.924 91.054 173.532H94.4199C101.078 177.78 105.791 199.15 104.065 210.056Z" fill="#58D16F"/>
<path d="M55.0449 330.836L55.5712 338.266C55.5712 338.266 65.6444 341.534 73.1963 339.233L75.1914 332.611C67.921 332.991 61.2015 332.807 55.0449 330.836Z" fill="#009CF8"/>
<path d="M98.2876 229.798C98.2876 229.908 98.2631 230.018 98.2264 230.129C97.9938 230.753 97.7613 231.402 97.541 232.062C97.5287 232.099 97.5165 232.136 97.5042 232.173C96.7576 234.278 96.011 236.567 95.2399 238.978C95.2399 238.99 95.2277 239.002 95.2277 239.015C91.2865 251.56 87.2719 267.337 85.4237 277.41C85.4482 275.379 85.4604 273.347 85.4972 271.315C84.469 275.232 83.5143 279.185 82.6698 283.126C83.0492 279.43 84.1018 273.898 85.5461 267.619C88.4592 254.926 92.9266 239.198 96.4761 229.492C96.6475 229.015 97.186 228.77 97.6634 228.941C98.055 229.076 98.2876 229.431 98.2876 229.798Z" fill="#26BE6C"/>
<path d="M436.273 396.429H480.899C480.752 393.332 480.605 390.37 480.458 387.567C479.675 372.28 479.014 361.876 479.014 361.876L442.711 363.492L439.7 363.626L434.364 363.871C434.364 363.871 434.878 373.173 435.686 386.808C435.869 389.819 436.065 393.051 436.273 396.429Z" fill="#1B3155"/>
<path d="M439.711 363.626L434.375 363.871C434.375 363.871 434.889 373.173 435.697 386.808C449.638 387.971 464.864 388.448 480.469 387.567C479.686 372.28 479.025 361.876 479.025 361.876L442.722 363.492L439.711 363.626Z" fill="#000B29"/>
<path d="M444.572 396.429C443.751 382.28 443.091 370.199 442.723 363.492L439.712 363.627C440.08 370.309 440.741 382.329 441.561 396.429H444.572Z" fill="#000B29"/>
<path d="M423.177 396.429C423.409 392.598 423.617 388.963 423.813 385.609C424.584 372.623 425.062 363.859 425.062 363.859L419.272 363.602L416.273 363.467L380.424 361.876C380.424 361.876 380.032 368.082 379.493 377.935C379.212 383.185 378.881 389.489 378.551 396.429H423.177Z" fill="#1B3155"/>
<path d="M379.481 377.935C389.212 380.223 404.903 383.43 423.813 385.609C424.584 372.623 425.061 363.859 425.061 363.859L419.272 363.602L416.273 363.467L380.424 361.876C380.424 361.876 380.02 368.082 379.481 377.935Z" fill="#000B29"/>
<path d="M417.424 396.429C418.244 382.316 418.905 370.285 419.272 363.602L416.273 363.467C415.906 370.175 415.233 382.267 414.425 396.429H417.424Z" fill="#000B29"/>
<path d="M485.501 368.841C476.407 371.338 467.313 373.235 458.231 374.495C455.073 374.936 451.915 375.315 448.745 375.597C444.486 375.989 440.226 376.258 435.967 376.393C428.929 376.613 421.879 376.454 414.841 375.927C401.219 374.936 387.608 372.549 373.985 368.828C373.863 356.124 374.047 310.58 375.001 266.652C375.05 264.681 375.087 262.711 375.136 260.752C375.148 260.336 375.16 259.92 375.16 259.504C375.173 259.051 375.185 258.598 375.197 258.145C375.234 256.75 375.271 255.367 375.295 253.984C375.369 251.157 375.442 248.366 375.515 245.588C375.564 243.935 375.613 242.283 375.662 240.655C375.674 240.312 375.687 239.982 375.699 239.639C375.736 238.562 375.772 237.497 375.797 236.432C375.809 236.102 375.821 235.771 375.834 235.441C375.87 234.462 375.895 233.482 375.932 232.516C375.968 231.696 375.993 230.875 376.017 230.068C377.07 200.435 378.612 177.058 380.827 173.765C384.573 168.184 397.326 160.767 407.583 154.72C411.243 152.578 415.6 150.339 418.097 148.686C421.745 151.624 424.388 154.268 429.786 154.084C435.832 153.876 437.313 150.241 439.627 147.132C441.034 148.05 444.608 150.975 446.469 152.064C448.06 153.007 449.773 153.998 451.573 155.026C454.351 156.618 457.301 158.307 460.226 160.02C464.559 162.566 468.83 165.198 472.38 167.719C475.917 170.228 478.732 172.639 480.115 174.72C482.123 177.731 483.42 197.229 484.252 222.883C484.289 223.776 484.314 224.694 484.35 225.612C484.35 225.723 484.35 225.833 484.35 225.943C484.387 226.873 484.411 227.828 484.436 228.782C484.522 231.671 484.595 234.621 484.681 237.62C484.693 238.256 484.717 238.892 484.717 239.529C484.73 240.006 484.742 240.484 484.754 240.961C484.779 242.197 484.815 243.433 484.84 244.682C484.852 244.927 484.852 245.184 484.852 245.428C484.926 248.721 484.987 252.062 485.048 255.428C485.072 256.407 485.085 257.399 485.097 258.39C485.856 304.57 485.684 355.193 485.501 368.841Z" fill="#58D16F"/>
<path d="M485.097 258.39L470.703 272.992L457.289 259.394L443.874 272.992L430.41 259.333L416.947 272.992L403.397 259.247L389.848 272.992L375.209 258.145C375.246 256.75 375.283 255.367 375.307 253.984C375.381 251.157 375.454 248.366 375.528 245.588L389.836 231.071L403.385 244.816L416.934 231.071L430.398 244.731L443.862 231.071L457.276 244.67L470.691 231.071L484.852 245.416C484.926 248.709 484.987 252.05 485.048 255.416C485.06 256.42 485.085 257.399 485.097 258.39Z" fill="#26BE6C"/>
<path d="M460.238 333.652C440.961 333.566 424.498 324.79 414.095 317.446C402.834 309.503 396.017 301.461 395.943 301.376C395.613 300.984 395.662 300.396 396.054 300.066C396.445 299.735 397.033 299.784 397.363 300.176C397.424 300.25 404.132 308.144 415.196 315.953C425.38 323.125 441.463 331.705 460.238 331.779C460.752 331.779 461.168 332.195 461.156 332.709C461.168 333.248 460.752 333.652 460.238 333.652Z" fill="#26BE6C"/>
<path d="M448.219 322.256C431.806 319.025 417.277 306.455 416.616 305.88C416.237 305.537 416.188 304.962 416.53 304.57C416.873 304.178 417.448 304.142 417.84 304.484C418.011 304.631 435.11 319.417 452.527 321.008C453.041 321.045 453.409 321.51 453.372 322.012C453.323 322.526 452.87 322.893 452.368 322.856C450.973 322.734 449.59 322.526 448.219 322.256Z" fill="#26BE6C"/>
<path d="M415.343 179.604C414.903 179.604 414.523 179.298 414.437 178.845C414.34 178.343 414.67 177.853 415.172 177.755C438.672 173.3 445.759 158.172 445.832 158.025C446.04 157.56 446.591 157.352 447.056 157.56C447.521 157.768 447.729 158.319 447.521 158.784C447.227 159.445 439.957 174.94 415.527 179.579C415.466 179.604 415.404 179.604 415.343 179.604Z" fill="#26BE6C"/>
<path d="M386.666 220.3C386.641 220.41 386.592 220.508 386.543 220.606C386.188 221.169 385.821 221.757 385.454 222.344C385.429 222.381 385.417 222.406 385.393 222.442C384.218 224.339 382.994 226.42 381.733 228.611C381.733 228.623 381.721 228.635 381.709 228.648C379.738 232.099 377.694 235.845 375.699 239.639C375.736 238.562 375.772 237.497 375.797 236.432C375.809 236.102 375.821 235.771 375.834 235.441C379.053 229.456 382.272 223.862 384.964 219.615C385.246 219.174 385.809 219.052 386.25 219.333C386.592 219.541 386.751 219.933 386.666 220.3Z" fill="#26BE6C"/>
<path d="M505.096 185.931C505.096 185.931 535.145 176.274 544.043 156.556C546.613 150.84 525.427 92.8489 525.427 92.8489L515.194 93.3385C515.194 93.3385 518.107 113.46 519.882 124.856C521.338 134.219 523.688 145.418 524.472 149.102C524.643 149.898 524.741 150.351 524.741 150.351C524.239 150.436 523.737 150.534 523.223 150.632C509.185 153.484 491.253 162.627 491.253 162.627L505.096 185.931Z" fill="#FFA681"/>
<path d="M532.293 155.895C532.721 156.201 533.333 156.116 533.639 155.687C533.958 155.247 533.86 154.647 533.431 154.341C531.24 152.75 527.948 150.889 524.484 149.09C524.656 149.886 524.753 150.339 524.753 150.339C524.252 150.424 523.75 150.522 523.236 150.62C526.761 152.432 530.127 154.329 532.293 155.895Z" fill="#F97853"/>
<path d="M459.112 159.396C459.112 159.396 450.018 180.73 473.163 192.602C489.185 200.827 525.671 179.359 525.671 179.359L512.661 151.746C512.661 151.746 479.283 165.516 459.112 159.396Z" fill="#58D16F"/>
<path d="M520.188 60.2426C519.282 60.879 519.466 64.7957 519.87 68.4921C519.747 68.5166 519.613 68.5288 519.478 68.5533C518.401 63.6329 516.259 55.2488 514.423 56.8522C513.224 57.9048 514.827 65.1262 515.929 69.4468C515.708 69.5202 515.476 69.5936 515.255 69.6671C513.872 64.5387 510.898 54.6613 508.927 56.5829C507.606 57.8681 510.139 66.5582 511.547 71.0012C511.351 71.0746 511.155 71.1481 510.972 71.2338C509.625 66.9254 506.749 58.786 504.778 60.6954C502.991 62.4335 508.107 74.7343 508.107 74.7343L509.454 79.569C509.454 79.569 507.863 80.2544 505.378 77.4393C502.893 74.6241 499.919 74.1345 501.988 78.1981C504.325 82.8002 507.777 86.0927 509.295 89.3484C510.812 92.6042 515.598 93.6813 515.598 93.6813L525.206 93.2162C525.206 93.2162 527.067 76.9864 523.48 69.2387C522.856 64.6243 521.767 59.1287 520.188 60.2426Z" fill="#FFA681"/>
<path d="M401.353 97.6714C401.353 114.036 411.427 125.308 427.779 125.308C444.143 125.308 455.538 113.191 455.538 96.8268C455.538 92.3104 454.804 88.1 453.384 84.3791C453.298 84.1588 453.213 83.9385 453.127 83.7182C452.956 83.2898 452.772 82.8737 452.576 82.4575C452.295 81.821 451.977 81.2091 451.634 80.6093C447.374 72.9473 439.737 68.0759 429.48 68.0759C409.884 68.0759 401.353 81.3192 401.353 97.6714Z" fill="#1B3155"/>
<path d="M405.038 104.721C405.038 104.721 400.497 98.6628 397.118 103.669C393.74 108.675 398.514 123.485 406.788 119.862L405.038 104.721Z" fill="#F97853"/>
<path d="M404.976 115.296C404.67 115.296 404.389 115.088 404.303 114.782C403.018 110.217 398.281 108.357 398.245 108.344C397.89 108.21 397.706 107.806 397.841 107.439C397.975 107.084 398.379 106.9 398.746 107.035C398.967 107.12 404.181 109.14 405.662 114.403C405.772 114.77 405.552 115.162 405.172 115.26C405.099 115.284 405.038 115.296 404.976 115.296Z" fill="#EA5143"/>
<path d="M400.191 112.996C400.056 112.996 399.934 112.959 399.811 112.885C399.481 112.677 399.395 112.249 399.603 111.918C399.64 111.869 400.472 110.584 402.222 109.801C402.577 109.642 402.993 109.801 403.14 110.156C403.299 110.511 403.14 110.927 402.785 111.074C401.427 111.686 400.778 112.665 400.766 112.665C400.643 112.885 400.423 112.996 400.191 112.996Z" fill="#EA5143"/>
<path d="M451.866 104.721C451.866 104.721 456.407 98.6628 459.785 103.669C463.164 108.675 458.39 123.485 450.116 119.862L451.866 104.721Z" fill="#F97853"/>
<path d="M451.928 115.296C452.234 115.296 452.515 115.088 452.601 114.782C453.886 110.217 458.623 108.357 458.659 108.344C459.014 108.21 459.198 107.806 459.063 107.439C458.929 107.084 458.525 106.9 458.158 107.035C457.937 107.12 452.723 109.14 451.242 114.403C451.144 114.77 451.352 115.162 451.732 115.26C451.805 115.284 451.866 115.296 451.928 115.296Z" fill="#EA5143"/>
<path d="M456.701 112.996C456.836 112.996 456.958 112.959 457.08 112.885C457.411 112.677 457.496 112.249 457.288 111.918C457.252 111.869 456.419 110.584 454.669 109.801C454.314 109.642 453.898 109.801 453.751 110.156C453.592 110.511 453.751 110.927 454.106 111.074C455.465 111.686 456.113 112.665 456.126 112.665C456.248 112.885 456.481 112.996 456.701 112.996Z" fill="#EA5143"/>
<path d="M439.639 132.42V147.132C439.639 147.132 435.245 154.622 429.309 155.136C423.385 155.651 418.109 148.686 418.109 148.686V133.46L439.639 132.42Z" fill="#FFA681"/>
<path d="M439.639 132.42V138.956C435.661 143.374 428.587 144.476 418.109 142.934V133.46L439.639 132.42Z" fill="#F97853"/>
<path d="M455.159 94.6238C454.889 100.34 454.339 107.5 453.249 113.216C452.98 114.648 452.674 115.982 452.331 117.181C449.235 128.026 441.487 146.63 419.798 138.882C410.215 135.467 405.784 124.795 403.801 113.938C402.455 106.57 402.259 99.128 402.357 93.8037C402.467 88.3693 405.429 83.4123 410.154 80.7318C422.956 73.4737 436.469 76.1786 445.355 79.5935C451.524 81.968 455.465 88.0266 455.159 94.6238Z" fill="#FFA681"/>
<path d="M419.15 106.643C419.15 108.21 418.342 109.483 417.338 109.483C416.335 109.483 415.527 108.21 415.527 106.643C415.527 105.076 416.335 103.804 417.338 103.804C418.342 103.791 419.15 105.064 419.15 106.643Z" fill="#1B3155"/>
<path d="M440.471 106.582C440.471 108.149 439.663 109.422 438.66 109.422C437.656 109.422 436.848 108.149 436.848 106.582C436.848 105.015 437.656 103.742 438.66 103.742C439.663 103.742 440.471 105.015 440.471 106.582Z" fill="#1B3155"/>
<path d="M444.559 96.8025C444.559 96.8025 438.856 94.5504 434.462 96.4476L434.902 98.8955C434.902 98.8955 441.352 98.3447 444.596 99.6666C444.877 98.7241 444.926 97.7694 444.559 96.8025Z" fill="#1B3155"/>
<path d="M411.304 96.8025C411.304 96.8025 417.008 94.5504 421.402 96.4476L420.961 98.8955C420.961 98.8955 414.511 98.3447 411.267 99.6666C410.974 98.7241 410.937 97.7694 411.304 96.8025Z" fill="#1B3155"/>
<path d="M428.697 118.565C429.872 118.565 431.047 118.1 431.23 118.026C431.585 117.879 431.757 117.475 431.61 117.12C431.463 116.765 431.059 116.594 430.704 116.741C430.068 116.998 428.562 117.402 427.901 117.01C427.779 116.937 427.607 116.778 427.558 116.362C427.301 113.926 427.975 105.738 427.987 105.652C428.024 105.272 427.73 104.93 427.35 104.893C426.959 104.856 426.628 105.15 426.591 105.529C426.567 105.872 425.906 113.926 426.175 116.496C426.273 117.463 426.787 117.953 427.191 118.197C427.62 118.467 428.158 118.565 428.697 118.565Z" fill="#F97853"/>
<path d="M419.309 122.114C420.472 126.153 423.776 130.168 428.329 130.229C432.87 130.168 436.175 126.153 437.338 122.114H419.309Z" fill="white"/>
<path d="M427.938 134.611C429.749 134.611 431.279 133.693 431.34 133.656C431.671 133.46 431.781 133.032 431.573 132.701C431.377 132.371 430.949 132.261 430.618 132.469C430.606 132.481 429.345 133.228 427.938 133.228C426.64 133.228 425.404 132.481 425.392 132.481C425.062 132.273 424.633 132.383 424.425 132.714C424.217 133.044 424.327 133.472 424.658 133.681C424.719 133.693 426.224 134.611 427.938 134.611Z" fill="#F97853"/>
<path d="M454.412 104.844H451.242C451.597 101.662 452.099 96.0558 449.48 95.2603C441.218 92.7267 451.928 86.8884 448.194 83.9753C444.474 81.0623 435.196 82.3107 428.746 82.1027C422.259 81.8946 411.818 81.9803 409.297 82.5678C406.763 83.143 408.146 87.3657 409.077 90.6214C410.019 93.8772 405.968 97.4879 405.282 100.866C405.086 101.833 405.123 103.277 405.282 104.832H402.638C402.32 100.719 402.284 96.9004 402.333 93.7915C402.443 88.3571 405.405 83.4001 410.129 80.7196C422.932 73.4615 436.444 76.1664 445.33 79.5813C451.499 81.9558 455.453 88.0144 455.134 94.6116C455.012 97.7572 454.779 101.319 454.412 104.844Z" fill="#1B3155"/>
<path d="M417.02 114.881C412.651 114.881 409.101 111.331 409.101 106.962C409.101 102.592 412.651 99.0425 417.02 99.0425C421.39 99.0425 424.939 102.592 424.939 106.962C424.939 111.331 421.39 114.881 417.02 114.881ZM417.02 100.279C413.336 100.279 410.337 103.277 410.337 106.962C410.337 110.646 413.336 113.644 417.02 113.644C420.704 113.644 423.703 110.646 423.703 106.962C423.703 103.277 420.704 100.279 417.02 100.279Z" fill="white"/>
<path d="M438.66 114.881C434.29 114.881 430.741 111.331 430.741 106.962C430.741 102.592 434.29 99.0425 438.66 99.0425C443.029 99.0425 446.579 102.592 446.579 106.962C446.579 111.331 443.029 114.881 438.66 114.881ZM438.66 100.279C434.976 100.279 431.977 103.277 431.977 106.962C431.977 110.646 434.976 113.644 438.66 113.644C442.344 113.644 445.343 110.646 445.343 106.962C445.343 103.277 442.344 100.279 438.66 100.279Z" fill="white"/>
<path d="M410.447 104.416C410.288 104.416 410.129 104.355 410.019 104.232C409.982 104.195 406.384 100.707 401.671 101.809C401.341 101.882 401.011 101.674 400.925 101.344C400.851 101.013 401.06 100.683 401.39 100.597C406.788 99.3363 410.729 103.18 410.888 103.351C411.133 103.596 411.133 103.987 410.888 104.22C410.766 104.355 410.606 104.416 410.447 104.416Z" fill="white"/>
<path d="M445.379 104.416C445.183 104.416 444.975 104.318 444.865 104.134C444.682 103.853 444.755 103.461 445.049 103.277C445.281 103.118 450.887 99.5074 455.648 100.291C455.979 100.352 456.211 100.658 456.162 101.001C456.101 101.331 455.795 101.564 455.453 101.515C451.169 100.805 445.783 104.281 445.722 104.318C445.612 104.379 445.502 104.416 445.379 104.416Z" fill="white"/>
<path d="M431.181 105.187C431.169 105.162 429.7 103.179 427.779 103.179C425.869 103.179 424.547 105.162 424.535 105.174L423.507 104.501C423.581 104.391 425.208 101.943 427.791 101.943C430.361 101.943 432.124 104.354 432.197 104.452L431.181 105.187Z" fill="white"/>
<path d="M384.071 219.137C384.071 219.137 375.736 235.282 365.907 248.072C363.007 251.842 359.983 255.33 357.009 258.011C352.187 262.368 347.475 264.644 343.643 262.711C329.421 255.538 297.72 198.489 297.72 198.489L305.529 189.224C305.529 189.224 319.642 205.515 329.96 215.27C339.482 224.266 346.789 230.985 346.789 230.985C348.111 228.978 349.506 226.787 350.975 224.462C352.529 221.989 354.133 219.382 355.773 216.69C367.658 197.18 380.84 173.765 380.84 173.765L384.071 219.137Z" fill="#FFA681"/>
<path d="M365.907 248.072C363.007 251.842 359.983 255.33 357.009 258.01L350.963 224.462C352.517 221.989 354.121 219.382 355.761 216.689L365.907 248.072Z" fill="#F97853"/>
<path d="M380.828 173.765L352.334 218.587L361.893 258.011L385.479 219.615C385.479 219.615 388.343 193.349 380.828 173.765Z" fill="#58D16F"/>
<path d="M345.002 396.429C342.97 385.144 340.963 372.427 339.139 360.077C338.735 357.348 338.344 354.63 337.964 351.962C336.495 341.73 335.198 332.06 334.145 324.031C333.742 320.984 333.387 318.168 333.056 315.659C332.04 307.642 331.441 302.673 331.441 302.673L286.435 304.374L241.296 302.673C241.296 302.673 240.133 312.526 238.272 326.797C237.93 329.392 237.575 332.134 237.183 334.998C236.179 342.489 235.041 350.763 233.805 359.232C233.793 359.355 233.768 359.477 233.744 359.6C233.352 362.243 232.973 364.899 232.556 367.555C232.556 367.592 232.544 367.629 232.544 367.666C231.577 374.091 230.561 380.505 229.533 386.674C229.105 389.22 228.676 391.729 228.248 394.164C228.113 394.923 227.979 395.67 227.844 396.417H345.002V396.429Z" fill="#D2FADA"/>
<path d="M251.663 316.186C251.663 318.523 249.765 320.433 247.415 320.433C245.078 320.433 243.168 318.536 243.168 316.186C243.168 313.848 245.065 311.938 247.415 311.938C249.765 311.951 251.663 313.848 251.663 316.186Z" fill="#26BE6C"/>
<path d="M262.189 332.623C262.189 334.961 260.291 336.871 257.941 336.871C255.604 336.871 253.694 334.973 253.694 332.623C253.694 330.286 255.591 328.376 257.941 328.376C260.291 328.376 262.189 330.286 262.189 332.623Z" fill="#26BE6C"/>
<path d="M282.898 324.141C282.898 326.479 281.001 328.389 278.651 328.389C276.313 328.389 274.404 326.491 274.404 324.141C274.404 321.804 276.301 319.894 278.651 319.894C281.001 319.894 282.898 321.791 282.898 324.141Z" fill="#26BE6C"/>
<path d="M250.218 350.077C250.218 352.415 248.321 354.324 245.971 354.324C243.633 354.324 241.724 352.427 241.724 350.077C241.724 347.727 243.621 345.83 245.971 345.83C248.321 345.83 250.218 347.727 250.218 350.077Z" fill="#26BE6C"/>
<path d="M276.093 348.266C276.093 350.603 274.196 352.513 271.846 352.513C269.508 352.513 267.599 350.616 267.599 348.266C267.599 345.916 269.496 344.019 271.846 344.019C274.196 344.019 276.093 345.916 276.093 348.266Z" fill="#26BE6C"/>
<path d="M241.026 330.775C241.026 332.978 239.337 334.802 237.183 334.998C237.562 332.134 237.93 329.392 238.272 326.797C239.876 327.397 241.026 328.952 241.026 330.775Z" fill="#26BE6C"/>
<path d="M318.258 373.186C318.258 375.523 316.361 377.433 314.011 377.433C311.673 377.433 309.764 375.536 309.764 373.186C309.764 370.848 311.661 368.938 314.011 368.938C316.361 368.938 318.258 370.836 318.258 373.186Z" fill="#26BE6C"/>
<path d="M316.263 350.077C316.263 352.415 314.366 354.324 312.016 354.324C309.666 354.324 307.769 352.427 307.769 350.077C307.769 347.727 309.666 345.83 312.016 345.83C314.366 345.83 316.263 347.727 316.263 350.077Z" fill="#26BE6C"/>
<path d="M339.127 360.077C338.613 360.297 338.05 360.407 337.462 360.407C335.125 360.407 333.228 358.51 333.228 356.172C333.228 353.835 335.125 351.938 337.462 351.938C337.634 351.938 337.793 351.95 337.952 351.974C338.344 354.63 338.735 357.347 339.127 360.077Z" fill="#26BE6C"/>
<path d="M320.498 390.113C320.498 392.451 318.601 394.36 316.251 394.36C313.913 394.36 312.004 392.463 312.004 390.113C312.004 387.775 313.901 385.866 316.251 385.866C318.601 385.866 320.498 387.775 320.498 390.113Z" fill="#26BE6C"/>
<path d="M338.637 383.344C338.637 385.682 336.74 387.591 334.39 387.591C332.052 387.591 330.143 385.694 330.143 383.344C330.143 381.007 332.04 379.097 334.39 379.097C336.74 379.097 338.637 380.994 338.637 383.344Z" fill="#26BE6C"/>
<path d="M300.89 396.429C300.132 395.315 298.846 394.581 297.39 394.581C295.933 394.581 294.66 395.315 293.889 396.429H300.89Z" fill="#26BE6C"/>
<path d="M247.428 376.87C247.428 379.207 245.53 381.117 243.18 381.117C240.843 381.117 238.933 379.22 238.933 376.87C238.933 374.532 240.83 372.623 243.18 372.623C245.53 372.623 247.428 374.532 247.428 376.87Z" fill="#26BE6C"/>
<path d="M236.228 363.467C236.228 365.622 234.625 367.396 232.544 367.666C232.556 367.629 232.556 367.592 232.556 367.555C232.96 364.899 233.352 362.243 233.744 359.6C235.212 360.285 236.228 361.754 236.228 363.467Z" fill="#26BE6C"/>
<path d="M231.271 390.113C231.271 392.034 229.998 393.65 228.248 394.176C228.676 391.741 229.105 389.232 229.533 386.686C230.586 387.457 231.271 388.705 231.271 390.113Z" fill="#26BE6C"/>
<path d="M257.954 391.9C257.954 394.238 256.057 396.147 253.707 396.147C251.369 396.147 249.459 394.25 249.459 391.9C249.459 389.55 251.356 387.653 253.707 387.653C256.057 387.665 257.954 389.562 257.954 391.9Z" fill="#26BE6C"/>
<path d="M280.34 388.583C280.34 390.921 278.443 392.83 276.093 392.83C273.755 392.83 271.846 390.933 271.846 388.583C271.846 386.245 273.743 384.336 276.093 384.336C278.431 384.336 280.34 386.245 280.34 388.583Z" fill="#26BE6C"/>
<path d="M264.367 367.727C264.367 370.064 262.47 371.974 260.12 371.974C257.782 371.974 255.873 370.077 255.873 367.727C255.873 365.389 257.77 363.479 260.12 363.479C262.47 363.492 264.367 365.389 264.367 367.727Z" fill="#26BE6C"/>
<path d="M287.145 363.492C287.145 365.83 285.248 367.739 282.898 367.739C280.548 367.739 278.651 365.842 278.651 363.492C278.651 361.142 280.548 359.245 282.898 359.245C285.248 359.245 287.145 361.142 287.145 363.492Z" fill="#26BE6C"/>
<path d="M297.39 341.106C297.39 343.443 295.493 345.353 293.143 345.353C290.805 345.353 288.896 343.456 288.896 341.106C288.896 338.768 290.793 336.858 293.143 336.858C295.493 336.858 297.39 338.768 297.39 341.106Z" fill="#26BE6C"/>
<path d="M334.133 324.031C333.839 324.105 333.533 324.129 333.227 324.129C330.877 324.129 328.993 322.232 328.993 319.894C328.993 317.618 330.792 315.745 333.056 315.659C333.374 318.168 333.742 320.983 334.133 324.031Z" fill="#26BE6C"/>
<path d="M312.016 324.141C312.016 326.479 310.119 328.389 307.769 328.389C305.431 328.389 303.522 326.491 303.522 324.141C303.522 321.804 305.419 319.894 307.769 319.894C310.119 319.894 312.016 321.791 312.016 324.141Z" fill="#26BE6C"/>
<path d="M327.548 339.257C327.548 341.595 325.651 343.504 323.301 343.504C320.963 343.504 319.054 341.607 319.054 339.257C319.054 336.919 320.951 335.01 323.301 335.01C325.651 335.01 327.548 336.907 327.548 339.257Z" fill="#26BE6C"/>
<path d="M301.637 376.87C301.637 379.207 299.74 381.117 297.39 381.117C295.052 381.117 293.143 379.22 293.143 376.87C293.143 374.532 295.04 372.623 297.39 372.623C299.74 372.623 301.637 374.532 301.637 376.87Z" fill="#26BE6C"/>
<path d="M334.17 303.787C310.425 319.282 266.84 318.07 239.447 303.787C242.067 287.484 245.506 271.168 244.772 249.479C244.686 247.105 244.588 244.743 244.466 242.393C244.355 240.361 244.245 238.329 244.111 236.334C241.748 200.239 235.592 170.73 238.615 166.923C239.937 165.258 242.14 163.447 244.857 161.611C245.922 160.889 247.06 160.142 248.272 159.408C251.112 157.67 254.27 155.932 257.452 154.218C264.979 150.204 272.629 146.471 276.46 143.925C280.254 145.577 283.29 146.483 286.545 146.471C286.631 146.471 286.729 146.471 286.827 146.458C286.913 146.471 287.011 146.471 287.096 146.471C290.352 146.483 293.387 145.577 297.182 143.925C300.731 146.287 307.426 149.592 314.256 153.178C319.274 155.822 324.366 158.625 328.332 161.354C330.926 163.129 333.044 164.879 334.341 166.519C335.847 168.404 335.21 176.703 333.925 188.979C332.652 201.059 330.755 217.02 329.605 234.547C329.286 239.418 329.029 244.412 328.846 249.467C328.124 271.168 331.563 287.484 334.17 303.787Z" fill="#26BE6C"/>
<path d="M319.654 285.758C300.535 285.672 284.208 276.97 273.89 269.687C262.727 261.805 255.959 253.825 255.897 253.751C255.567 253.36 255.616 252.784 256.008 252.454C256.399 252.123 256.975 252.172 257.305 252.564C257.366 252.637 264.012 260.471 274.991 268.219C285.089 275.342 301.037 283.836 319.654 283.922C320.168 283.922 320.572 284.338 320.572 284.84C320.572 285.354 320.168 285.758 319.654 285.758Z" fill="#D2FADA"/>
<path d="M306.998 274.632C290.719 271.437 276.313 258.965 275.652 258.39C275.273 258.059 275.236 257.472 275.567 257.093C275.897 256.713 276.485 256.676 276.864 257.007C277.035 257.154 293.987 271.817 311.27 273.396C311.784 273.432 312.151 273.885 312.102 274.399C312.053 274.901 311.612 275.281 311.098 275.232C309.727 275.097 308.357 274.901 306.998 274.632Z" fill="#D2FADA"/>
<path d="M282.898 190.411C282.47 190.411 282.078 190.105 281.992 189.664C281.894 189.162 282.225 188.685 282.727 188.587C306.031 184.169 313.057 169.175 313.13 169.016C313.338 168.551 313.889 168.343 314.342 168.551C314.807 168.759 315.015 169.31 314.807 169.763C314.513 170.411 307.316 185.784 283.069 190.386C283.008 190.411 282.959 190.411 282.898 190.411Z" fill="#D2FADA"/>
<path d="M314.256 153.178C309.629 163.729 298.259 174.659 283.461 172.1C269.141 169.628 262.348 162.052 257.44 154.218C264.967 150.191 272.617 146.471 276.448 143.925C280.242 145.577 283.278 146.483 286.533 146.471C286.619 146.471 286.717 146.471 286.815 146.458C286.9 146.471 286.998 146.471 287.096 146.471C290.352 146.483 293.387 145.577 297.182 143.925C300.731 146.287 307.426 149.58 314.256 153.178Z" fill="#FFA681"/>
<path d="M301.894 144.696C301.49 144.696 301.16 145.014 301.16 145.418C301.16 146.005 300.915 159.959 288.394 161.036C276.778 162.039 271.968 150.926 270.487 146.311C270.401 146.042 270.144 145.859 269.863 145.859H269.728C269.288 145.859 268.969 146.299 269.104 146.715C270.683 151.477 275.75 162.97 287.586 162.541C287.892 162.529 288.21 162.517 288.516 162.48C302.371 161.281 302.616 145.565 302.616 145.406C302.616 145.026 302.298 144.696 301.894 144.696Z" fill="white"/>
<path d="M310.743 70.5481C310.743 70.5481 321.93 87.8794 320.706 105.933C319.482 123.986 322.359 144.83 306.202 143.913C290.046 142.995 261.234 150.387 252.066 136.324C242.911 122.273 310.743 70.5481 310.743 70.5481Z" fill="#1B3155"/>
<path d="M314.892 102.42C314.892 102.42 317.793 128.589 305.382 135.798C292.959 143.007 283.975 134.953 283.975 134.953C283.975 134.953 310.144 98.479 314.892 102.42Z" fill="#000B29"/>
<path d="M263.302 102.298C263.302 102.298 258.847 96.3495 255.53 101.27C252.213 106.19 256.901 120.706 265.016 117.157L263.302 102.298Z" fill="#F97853"/>
<path d="M263.253 112.677C262.96 112.677 262.678 112.481 262.592 112.175C261.332 107.696 256.693 105.872 256.644 105.86C256.289 105.725 256.118 105.333 256.252 104.978C256.387 104.623 256.779 104.452 257.134 104.574C257.354 104.66 262.47 106.643 263.914 111.808C264.012 112.175 263.804 112.555 263.437 112.653C263.376 112.665 263.315 112.677 263.253 112.677Z" fill="#EA5143"/>
<path d="M258.553 110.425C258.431 110.425 258.296 110.388 258.186 110.315C257.868 110.107 257.77 109.691 257.978 109.372C258.015 109.323 258.835 108.063 260.548 107.292C260.891 107.133 261.295 107.292 261.454 107.634C261.613 107.977 261.454 108.381 261.112 108.54C259.777 109.14 259.141 110.095 259.129 110.107C259.006 110.303 258.786 110.425 258.553 110.425Z" fill="#EA5143"/>
<path d="M309.262 102.298C309.262 102.298 313.717 96.3495 317.034 101.27C320.351 106.19 315.664 120.706 307.549 117.157L309.262 102.298Z" fill="#F97853"/>
<path d="M309.311 112.677C309.617 112.677 309.886 112.481 309.972 112.175C311.233 107.696 315.872 105.872 315.921 105.86C316.276 105.725 316.447 105.333 316.312 104.978C316.178 104.623 315.786 104.452 315.431 104.574C315.211 104.66 310.095 106.643 308.65 111.808C308.552 112.175 308.76 112.555 309.128 112.653C309.189 112.665 309.25 112.677 309.311 112.677Z" fill="#EA5143"/>
<path d="M313.999 110.425C314.121 110.425 314.256 110.388 314.366 110.315C314.684 110.107 314.782 109.691 314.574 109.372C314.538 109.323 313.718 108.063 312.004 107.292C311.661 107.133 311.257 107.292 311.098 107.634C310.939 107.977 311.098 108.381 311.441 108.54C312.775 109.14 313.411 110.095 313.424 110.107C313.558 110.303 313.779 110.425 313.999 110.425Z" fill="#EA5143"/>
<path d="M297.255 129.482V143.925C297.255 143.925 292.947 151.281 287.121 151.783C281.307 152.285 276.13 145.455 276.13 145.455V130.51L297.255 129.482Z" fill="#FFA681"/>
<path d="M297.255 129.482V135.896C293.351 140.229 286.411 141.771 276.142 140.253V130.498L297.255 129.482Z" fill="#F97853"/>
<path d="M312.481 92.396C312.212 98.0018 311.673 105.027 310.609 110.633C310.339 112.028 310.033 113.35 309.703 114.525C306.667 125.162 299.067 143.411 277.782 135.81C268.382 132.456 264.025 121.991 262.091 111.343C260.769 104.109 260.573 96.8023 260.671 91.5882C260.769 86.264 263.682 81.3926 268.321 78.7611C280.879 71.6376 294.134 74.2936 302.861 77.6473C308.92 79.9728 312.787 85.9213 312.481 92.396Z" fill="#FFA681"/>
<path d="M276.913 103.155C276.913 104.697 276.117 105.945 275.138 105.945C274.159 105.945 273.363 104.697 273.363 103.155C273.363 101.612 274.159 100.364 275.138 100.364C276.117 100.364 276.913 101.612 276.913 103.155Z" fill="#1B3155"/>
<path d="M298.822 103.155C298.822 104.697 298.026 105.945 297.047 105.945C296.068 105.945 295.272 104.697 295.272 103.155C295.272 101.612 296.068 100.364 297.047 100.364C298.026 100.364 298.822 101.612 298.822 103.155Z" fill="#1B3155"/>
<path d="M271.625 94.8441C273.094 94.4279 276.081 93.7181 279.214 93.7058C280.046 93.7058 280.67 94.4402 280.524 95.248V95.2725C280.401 95.9212 279.826 96.3863 279.165 96.3496C277.023 96.2517 271.417 96.5454 268.774 97.6225C268.725 97.1574 268.994 96.6556 269.373 96.2149C269.961 95.5295 270.756 95.0889 271.625 94.8441Z" fill="#1B3155"/>
<path d="M300.291 94.8929C298.822 94.4768 295.835 93.7669 292.702 93.7546C291.882 93.7546 291.246 94.489 291.392 95.2968V95.3213C291.515 95.97 292.09 96.4351 292.751 96.3984C294.893 96.3005 300.499 96.5942 303.142 97.6713C303.191 97.2062 302.922 96.7044 302.543 96.2638C301.955 95.5906 301.147 95.1377 300.291 94.8929Z" fill="#1B3155"/>
<path d="M286.521 115.884C285.995 115.884 285.468 115.786 285.028 115.529C284.624 115.284 284.134 114.807 284.024 113.852C283.767 111.331 284.404 103.424 284.44 103.094C284.477 102.714 284.807 102.433 285.175 102.469C285.554 102.506 285.836 102.836 285.799 103.204C285.787 103.289 285.138 111.319 285.383 113.705C285.432 114.121 285.591 114.268 285.725 114.342C286.374 114.733 287.855 114.329 288.479 114.085C288.834 113.938 289.226 114.109 289.373 114.464C289.52 114.819 289.348 115.211 288.993 115.358C288.822 115.431 287.672 115.884 286.521 115.884Z" fill="#F97853"/>
<path d="M277.806 120.217C278.32 122.824 280.046 127.622 285.86 127.622C291.686 127.622 293.314 123.24 293.877 120.217H277.806Z" fill="white"/>
<path d="M285.774 131.624C284.098 131.624 282.617 130.718 282.555 130.682C282.237 130.486 282.139 130.057 282.335 129.739C282.531 129.421 282.959 129.323 283.277 129.519C283.29 129.531 284.501 130.253 285.774 130.253C287.157 130.253 288.394 129.519 288.406 129.519C288.736 129.323 289.152 129.433 289.348 129.751C289.544 130.07 289.446 130.498 289.116 130.694C289.055 130.731 287.549 131.624 285.774 131.624Z" fill="#F97853"/>
<path d="M315.247 91.2821C315.027 91.9063 314.415 92.3102 313.595 92.5428C313.656 94.0605 313.497 95.872 313.35 97.6222C312.506 107.536 309.997 109.274 309.434 106.826C309.066 105.199 309.079 95.8597 309.262 92.8121C307.304 92.6774 305.627 92.3592 305.627 92.3592L303.326 82.7388L302.518 92.249C299.067 93.4485 291.025 91.5269 291.025 91.5269L288.32 82.0412L286.656 91.1719C281.478 93.6933 275.016 92.0165 275.016 92.0165L273.535 82.1636L270.108 92.0165C270.108 92.0165 259.067 95.9821 258.945 92.0165C258.872 89.7154 260.561 83.2284 261.98 78.1979C263.535 72.7146 267.133 68.088 272.005 65.4687C285.701 58.1249 300.18 62.0294 305.137 64.9913C315.676 71.2703 315.247 91.2821 315.247 91.2821Z" fill="#1B3155"/>
<path d="M265.016 71.2825C265.016 71.2825 255.934 82.0901 252.935 101.392C249.949 120.694 245.812 134.953 257.44 141.33C270.034 148.233 268.945 134.084 268.761 130.229C268.578 126.385 257.868 115.871 265.016 86.276C267.329 76.7291 265.016 71.2825 265.016 71.2825Z" fill="#1B3155"/>
<path d="M262.898 111.172C262.898 111.172 262.898 111.184 262.898 111.196C262.898 111.343 262.911 112.102 262.972 113.301C262.996 114.048 263.045 114.954 263.119 115.982C263.547 122.481 264.808 133.717 268.529 137.609C269.997 139.151 272.825 139.923 276.154 140.241V135.137C272.641 133.472 269.912 130.731 267.782 127.365C266.472 124.525 264.208 120.082 263.156 113.093L262.898 111.172Z" fill="#000B29"/>
<path d="M312.653 117.487C312.653 118.381 311.93 119.091 311.049 119.091C310.168 119.091 309.446 118.368 309.446 117.487C309.446 116.594 310.168 115.884 311.049 115.884C311.93 115.884 312.653 116.606 312.653 117.487Z" fill="white"/>
<path d="M345.406 238.562C340.853 251.597 320.462 250.642 297.243 243.519C297.206 243.507 297.182 243.494 297.145 243.482C297.072 243.458 296.998 243.433 296.925 243.421L293.73 242.405C293.29 242.258 292.849 242.111 292.408 241.964C289.911 241.132 287.39 240.226 284.856 239.259C276.558 236.114 268.198 232.369 260.316 228.391L260.365 228.256L262.739 222.087L263.547 219.994C263.547 219.994 306.594 224.682 328.246 220.166C328.613 220.092 328.968 220.007 329.323 219.933C329.237 219.456 329.213 218.966 329.078 218.501C317.61 179.457 330.155 171.966 334.353 166.519C334.341 166.519 353.998 213.96 345.406 238.562Z" fill="#26BE6C"/>
<path d="M338.38 226.481C338.246 226.542 338.111 226.567 337.976 226.567C337.634 226.567 337.315 226.383 337.156 226.053C335.516 222.699 329.947 220.692 328.234 220.153C328.601 220.08 328.956 219.994 329.311 219.921C329.225 219.443 329.139 218.966 329.066 218.489C331.245 219.211 336.924 221.402 338.809 225.257C339.029 225.71 338.845 226.261 338.38 226.481Z" fill="#D2FADA"/>
<path d="M278.088 224.841C269.3 224.841 262.164 224.339 261.552 224.29C261.05 224.254 260.671 223.813 260.708 223.311C260.744 222.809 261.185 222.43 261.687 222.467C262.017 222.491 294.305 224.78 307.035 219.615C307.5 219.419 308.038 219.652 308.234 220.117C308.43 220.582 308.197 221.12 307.732 221.316C300.67 224.168 288.271 224.841 278.088 224.841Z" fill="#D2FADA"/>
<path d="M293.73 242.405C301.098 240.373 307.793 238.39 311.661 237.154C317.034 235.428 321.477 230.006 323.497 225.392C323.705 224.927 324.244 224.719 324.709 224.927C325.174 225.122 325.382 225.673 325.186 226.138C323.007 231.132 318.148 237.019 312.236 238.917C309.434 239.822 305.15 241.107 300.193 242.515C298.063 243.115 295.823 243.078 293.73 242.405Z" fill="#D2FADA"/>
<path d="M313.583 236.102C247.048 258.512 226.583 243.849 226.583 243.849C222.104 203.348 238.615 166.923 238.615 166.923C243.486 174.965 249.006 188.991 249.006 188.991L250.463 220.043L250.353 220.9L250.304 221.304L250.022 223.421L250.01 223.458C250.157 223.482 250.292 223.519 250.439 223.544C270.56 227.791 307.365 223.042 307.365 223.042L313.583 236.102Z" fill="#26BE6C"/>
<path d="M250.451 223.568C246.865 226.579 243.45 230.043 240.402 234.033C240.096 234.437 239.521 234.51 239.117 234.204C238.713 233.898 238.639 233.323 238.933 232.919C242.348 228.427 246.228 224.584 250.292 221.304L250.01 223.421L249.998 223.458C250.157 223.507 250.304 223.531 250.451 223.568Z" fill="#D2FADA"/>
<path d="M307.377 223.066C307.377 223.066 314.746 206.335 325.945 207.828L329.323 219.921C323.191 222.528 322.297 233.029 313.595 236.102L307.377 223.066Z" fill="#FFA681"/>
<path d="M263.547 219.994C263.547 219.994 258.896 209.076 246.656 205.906C234.417 202.736 226.62 208.501 225.788 210.68C224.968 212.858 230.402 210.778 230.402 210.778C230.402 210.778 226.865 211.781 224.833 215.11C222.801 218.44 229.778 214.853 229.778 214.853C229.778 214.853 224.772 217.044 224.136 219.076C223.499 221.108 230.096 217.669 231.345 217.742C231.345 217.742 225.457 220.08 225.494 222.185C225.531 224.278 232.263 220.863 237.293 221.132C242.324 221.402 250.022 223.482 250.022 223.482C254.135 224.266 258.064 224.841 261.626 225.012L263.547 219.994Z" fill="#FFA681"/>
<path d="M381.758 50.2305C377.229 50.2305 373.545 46.5464 373.545 42.0177C373.545 37.4891 377.229 33.8049 381.758 33.8049C386.286 33.8049 389.97 37.4891 389.97 42.0177C389.97 46.5464 386.286 50.2305 381.758 50.2305ZM381.758 36.3753C378.649 36.3753 376.115 38.9089 376.115 42.0177C376.115 45.1266 378.649 47.6602 381.758 47.6602C384.866 47.6602 387.4 45.1266 387.4 42.0177C387.4 38.9089 384.866 36.3753 381.758 36.3753Z" fill="#58D16F"/>
<path d="M453.457 36.2774C448.929 36.2774 445.245 32.5933 445.245 28.0646C445.245 23.5359 448.929 19.8518 453.457 19.8518C457.986 19.8518 461.67 23.5359 461.67 28.0646C461.67 32.5933 457.986 36.2774 453.457 36.2774ZM453.457 22.4221C450.349 22.4221 447.815 24.9557 447.815 28.0646C447.815 31.1735 450.349 33.7071 453.457 33.7071C456.566 33.7071 459.1 31.1735 459.1 28.0646C459.088 24.9435 456.566 22.4221 453.457 22.4221Z" fill="#1CB56C"/>
<path d="M463.604 62.9719C462.894 62.9719 462.319 62.3967 462.319 61.6868V56.0076C462.319 55.2977 462.894 54.7224 463.604 54.7224C464.314 54.7224 464.889 55.2977 464.889 56.0076V61.6868C464.889 62.3967 464.314 62.9719 463.604 62.9719Z" fill="#58D16F"/>
<path d="M463.604 72.9229C462.894 72.9229 462.319 72.3476 462.319 71.6377V65.9585C462.319 65.2486 462.894 64.6733 463.604 64.6733C464.314 64.6733 464.889 65.2486 464.889 65.9585V71.6377C464.889 72.3476 464.314 72.9229 463.604 72.9229Z" fill="#58D16F"/>
<path d="M471.584 65.114H466.48C465.771 65.114 465.195 64.5388 465.195 63.8289C465.195 63.119 465.771 62.5437 466.48 62.5437H471.584C472.294 62.5437 472.87 63.119 472.87 63.8289C472.87 64.5388 472.294 65.114 471.584 65.114Z" fill="#58D16F"/>
<path d="M460.728 65.114H455.624C454.914 65.114 454.339 64.5388 454.339 63.8289C454.339 63.119 454.914 62.5437 455.624 62.5437H460.728C461.438 62.5437 462.013 63.119 462.013 63.8289C462.013 64.5388 461.45 65.114 460.728 65.114Z" fill="#58D16F"/>
<path d="M420.202 28.5418C419.492 28.5418 418.917 27.9665 418.917 27.2566V21.5774C418.917 20.8675 419.492 20.2922 420.202 20.2922C420.912 20.2922 421.488 20.8675 421.488 21.5774V27.2566C421.488 27.9665 420.912 28.5418 420.202 28.5418Z" fill="#1CB534"/>
<path d="M420.202 38.4927C419.492 38.4927 418.917 37.9174 418.917 37.2075V31.5283C418.917 30.8184 419.492 30.2432 420.202 30.2432C420.912 30.2432 421.488 30.8184 421.488 31.5283V37.2075C421.488 37.9174 420.912 38.4927 420.202 38.4927Z" fill="#1CB534"/>
<path d="M428.183 30.6716H423.079C422.369 30.6716 421.793 30.0964 421.793 29.3865C421.793 28.6766 422.369 28.1013 423.079 28.1013H428.183C428.892 28.1013 429.468 28.6766 429.468 29.3865C429.468 30.0964 428.892 30.6716 428.183 30.6716Z" fill="#1CB534"/>
<path d="M417.326 30.6716H412.222C411.512 30.6716 410.937 30.0964 410.937 29.3865C410.937 28.6766 411.512 28.1013 412.222 28.1013H417.326C418.036 28.1013 418.611 28.6766 418.611 29.3865C418.611 30.0964 418.036 30.6716 417.326 30.6716Z" fill="#1CB534"/>
<path d="M88.043 21.1613C88.043 16.6326 91.7271 12.9485 96.2558 12.9485C100.784 12.9485 104.469 16.6326 104.469 21.1613C104.469 25.69 100.784 29.3741 96.2558 29.3741C91.7393 29.3863 88.043 25.7022 88.043 21.1613ZM90.6255 21.1613C90.6255 24.2702 93.1591 26.8038 96.268 26.8038C99.3769 26.8038 101.91 24.2702 101.91 21.1613C101.91 18.0524 99.3769 15.5188 96.268 15.5188C93.1591 15.5311 90.6255 18.0524 90.6255 21.1613Z" fill="#58D16F"/>
<path d="M55.0449 52.4826C55.0449 47.9539 58.7291 44.2698 63.2577 44.2698C67.7864 44.2698 71.4705 47.9539 71.4705 52.4826C71.4705 57.0112 67.7864 60.6954 63.2577 60.6954C58.7291 60.7076 55.0449 57.0235 55.0449 52.4826ZM57.6275 52.4826C57.6275 55.5914 60.1611 58.125 63.27 58.125C66.3788 58.125 68.9124 55.5914 68.9124 52.4826C68.9124 49.3737 66.3788 46.8401 63.27 46.8401C60.1611 46.8401 57.6275 49.3737 57.6275 52.4826Z" fill="#1CB56C"/>
<path d="M37.9584 64.0247C38.6683 64.0247 39.2435 63.4494 39.2435 62.7395V57.0603C39.2435 56.3504 38.6683 55.7751 37.9584 55.7751C37.2485 55.7751 36.6732 56.3504 36.6732 57.0603V62.7395C36.6732 63.4372 37.2485 64.0247 37.9584 64.0247Z" fill="#58D16F"/>
<path d="M37.9584 73.9631C38.6683 73.9631 39.2435 73.3879 39.2435 72.678V66.9988C39.2435 66.2889 38.6683 65.7136 37.9584 65.7136C37.2485 65.7136 36.6732 66.2889 36.6732 66.9988V72.678C36.6732 73.3879 37.2485 73.9631 37.9584 73.9631Z" fill="#58D16F"/>
<path d="M29.9781 66.1541H35.082C35.7919 66.1541 36.3672 65.5788 36.3672 64.8689C36.3672 64.159 35.7919 63.5837 35.082 63.5837H29.9781C29.2682 63.5837 28.6929 64.159 28.6929 64.8689C28.6929 65.5788 29.2682 66.1541 29.9781 66.1541Z" fill="#58D16F"/>
<path d="M40.8347 66.1541H45.9386C46.6485 66.1541 47.2238 65.5788 47.2238 64.8689C47.2238 64.159 46.6485 63.5837 45.9386 63.5837H40.8347C40.1248 63.5837 39.5495 64.159 39.5495 64.8689C39.5495 65.5788 40.1248 66.1541 40.8347 66.1541Z" fill="#58D16F"/>
<path d="M67.6639 20.3291C68.3738 20.3291 68.9491 19.7538 68.9491 19.0439V13.3648C68.9491 12.6549 68.3738 12.0796 67.6639 12.0796C66.954 12.0796 66.3788 12.6549 66.3788 13.3648V19.0439C66.3788 19.7416 66.954 20.3291 67.6639 20.3291Z" fill="#1CB534"/>
<path d="M67.6639 30.2676C68.3738 30.2676 68.9491 29.6923 68.9491 28.9824V23.3032C68.9491 22.5933 68.3738 22.0181 67.6639 22.0181C66.954 22.0181 66.3788 22.5933 66.3788 23.3032V28.9824C66.3788 29.6923 66.954 30.2676 67.6639 30.2676Z" fill="#1CB534"/>
<path d="M59.6837 22.4588H64.7877C65.4976 22.4588 66.0728 21.8835 66.0728 21.1736C66.0728 20.4637 65.4976 19.8884 64.7877 19.8884H59.6837C58.9738 19.8884 58.3986 20.4637 58.3986 21.1736C58.3986 21.8835 58.9738 22.4588 59.6837 22.4588Z" fill="#1CB534"/>
<path d="M70.5403 22.4588H75.6442C76.3541 22.4588 76.9294 21.8835 76.9294 21.1736C76.9294 20.4637 76.3541 19.8884 75.6442 19.8884H70.5403C69.8304 19.8884 69.2551 20.4637 69.2551 21.1736C69.2429 21.8835 69.8304 22.4588 70.5403 22.4588Z" fill="#1CB534"/>
<path d="M313.411 21.761C313.265 21.7733 313.105 21.761 312.959 21.6998C311.392 21.0389 310.474 20.7329 310.474 20.7329C309.997 20.5738 309.74 20.0597 309.899 19.5701C310.058 19.0928 310.572 18.8357 311.061 18.9949C311.098 19.0071 312.041 19.3253 313.681 20.0107C314.146 20.2066 314.366 20.7451 314.17 21.2102C314.023 21.5162 313.73 21.7243 313.411 21.761Z" fill="#BBE2F2"/>
<path d="M360.045 70.842C360.669 72.5066 361.244 74.2201 361.783 75.9337C361.917 76.3621 362.321 76.6191 362.749 76.5701C362.811 76.5579 362.86 76.5579 362.921 76.5334C363.398 76.3865 363.68 75.8725 363.521 75.3951C362.982 73.6449 362.382 71.8946 361.758 70.2055C361.587 69.7282 361.06 69.4956 360.583 69.667C360.118 69.8506 359.873 70.3769 360.045 70.842Z" fill="#BBE2F2"/>
<path d="M363.215 81.1234C363.631 82.837 364.01 84.6117 364.341 86.3865C364.426 86.8638 364.867 87.1821 365.332 87.1331C365.357 87.1331 365.381 87.1331 365.405 87.1209C365.907 87.0229 366.226 86.5456 366.14 86.056C365.809 84.2568 365.418 82.4453 364.989 80.695C364.867 80.2055 364.377 79.8995 363.888 80.0219C363.386 80.132 363.092 80.6338 363.215 81.1234Z" fill="#BBE2F2"/>
<path d="M367.07 108.761C367.523 108.712 367.878 108.332 367.89 107.867C367.915 106.031 367.902 104.183 367.853 102.396C367.841 101.894 367.413 101.49 366.911 101.515C366.397 101.527 366.005 101.955 366.03 102.457C366.079 104.232 366.091 106.043 366.066 107.855C366.054 108.357 366.458 108.773 366.972 108.785C366.997 108.773 367.033 108.773 367.07 108.761Z" fill="#BBE2F2"/>
<path d="M365.956 90.6825C365.454 90.7437 365.1 91.2088 365.173 91.7106C365.283 92.5429 365.381 93.3752 365.467 94.1953C365.565 95.1377 365.65 96.1047 365.736 97.0716C365.773 97.5734 366.213 97.9529 366.715 97.9161C366.727 97.9161 366.727 97.9161 366.74 97.9161C367.229 97.8672 367.596 97.4266 367.56 96.937C367.486 95.9578 367.388 94.9786 367.29 94.0117C367.205 93.1794 367.107 92.3226 366.997 91.4781C366.935 90.9885 366.483 90.6336 365.993 90.6825C365.981 90.6703 365.969 90.6703 365.956 90.6825Z" fill="#BBE2F2"/>
<path d="M358.013 65.8727C358.184 66.2399 358.563 66.448 358.943 66.4113C359.041 66.399 359.126 66.3745 359.224 66.3378C359.69 66.1297 359.898 65.5912 359.69 65.1261C358.943 63.4615 358.135 61.7969 357.291 60.1935C357.058 59.7406 356.507 59.5693 356.054 59.8141C355.601 60.0466 355.43 60.5974 355.675 61.0503C356.483 62.617 357.278 64.2448 358.013 65.8727Z" fill="#BBE2F2"/>
<path d="M317.818 23.9642C319.384 24.772 320.976 25.641 322.53 26.559C322.701 26.6691 322.897 26.7058 323.093 26.6814C323.375 26.6569 323.632 26.4978 323.791 26.2407C324.048 25.8001 323.901 25.2493 323.472 24.9923C321.881 24.0498 320.266 23.1563 318.662 22.3363C318.209 22.1037 317.659 22.2873 317.426 22.7402C317.194 23.1808 317.365 23.7316 317.818 23.9642Z" fill="#BBE2F2"/>
<path d="M331.453 32.581C331.649 32.7279 331.881 32.7891 332.101 32.7646C332.346 32.7401 332.579 32.6177 332.738 32.4097C333.044 32.0057 332.97 31.4305 332.566 31.1245C331.122 30.0229 329.617 28.9458 328.111 27.9177C327.695 27.6362 327.12 27.7463 326.838 28.1625C326.557 28.5786 326.667 29.1539 327.083 29.4354C328.564 30.4391 330.033 31.4917 331.453 32.581Z" fill="#BBE2F2"/>
<path d="M346.838 47.5624C347.046 47.8194 347.352 47.9295 347.646 47.9051C347.817 47.8928 347.976 47.8194 348.123 47.7092C348.515 47.391 348.576 46.8157 348.27 46.4241C347.132 45.0043 345.932 43.5967 344.708 42.2504C344.366 41.8709 343.79 41.8464 343.411 42.1892C343.031 42.5319 343.007 43.1071 343.35 43.4866C344.549 44.7962 345.724 46.1793 346.838 47.5624Z" fill="#BBE2F2"/>
<path d="M339.604 39.6065C339.812 39.8023 340.082 39.888 340.339 39.8635C340.547 39.8391 340.743 39.7534 340.902 39.5943C341.257 39.2271 341.244 38.6518 340.889 38.2969C339.592 37.0362 338.221 35.7877 336.838 34.5883C336.459 34.2578 335.871 34.3067 335.553 34.6862C335.223 35.0656 335.271 35.6409 335.651 35.9713C336.997 37.1463 338.331 38.3703 339.604 39.6065Z" fill="#BBE2F2"/>
<path d="M353.007 56.3627C353.203 56.6687 353.545 56.8278 353.888 56.7911C354.023 56.7788 354.145 56.7299 354.267 56.6564C354.696 56.3872 354.83 55.8242 354.573 55.3958C353.619 53.8413 352.615 52.2991 351.562 50.8059C351.269 50.3898 350.706 50.2918 350.29 50.5856C349.873 50.8793 349.775 51.4424 350.069 51.8585C351.085 53.3273 352.077 54.845 353.007 56.3627Z" fill="#BBE2F2"/>
<path d="M313.387 15.4944L317.389 0.659912L268.321 1.07606L313.387 15.4944Z" fill="#1CB56C"/>
<path d="M268.321 1.07593L311 19.0804L311.123 19.1294L312.959 22.1648L313.387 15.4942L268.321 1.07593Z" fill="#58D16F"/>
<path d="M312.959 22.1648L308.981 21.5406L311.123 19.1294L312.959 22.1648Z" fill="#58D16F"/>
<path d="M305.749 16.8651L311.123 19.1294L300.058 31.5894L268.321 1.07593L305.749 16.8651Z" fill="#1CB56C"/>
<path d="M539.062 405.768V406.661C539.062 411.814 534.876 416 529.723 416H45.0941C39.929 416 35.7552 411.814 35.7552 406.661V405.768C35.7552 400.615 39.9412 396.429 45.0941 396.429H529.723C534.876 396.429 539.062 400.615 539.062 405.768Z" fill="#1CB56C"/>
<path d="M539.062 405.768V406.22H35.7552V405.768C35.7552 400.615 39.9412 396.429 45.0941 396.429H529.723C534.876 396.429 539.062 400.615 539.062 405.768Z" fill="#58D16F"/>
<path d="M361.574 367.041H209.326C205.69 367.041 202.741 364.091 202.741 360.456V280.801C202.741 277.166 205.69 274.216 209.326 274.216H361.574C365.21 274.216 368.159 277.166 368.159 280.801V360.456C368.159 364.091 365.21 367.041 361.574 367.041Z" fill="#1B3155"/>
<path d="M298.259 366.943H272.641V396.147H298.259V366.943Z" fill="#000B29"/>
<path d="M285.162 334.484C292.186 334.484 297.879 328.79 297.879 321.767C297.879 314.744 292.186 309.05 285.162 309.05C278.139 309.05 272.445 314.744 272.445 321.767C272.445 328.79 278.139 334.484 285.162 334.484Z" fill="#26BE6C" fill-opacity="0.27"/>
<path d="M318.087 396.147H252.005V393.92C252.005 389.428 255.653 385.78 260.145 385.78H309.96C314.452 385.78 318.099 389.428 318.099 393.92V396.147H318.087Z" fill="#1B3155"/>
</svg>
