<svg width="72" height="72" viewBox="0 0 72 73" fill="none" xmlns="http://www.w3.org/2000/svg">
<circle cx="36" cy="36.3928" r="36" fill="url(#paint0_linear)"/>
<g clip-path="url(#clip0)">
<path d="M35.8147 45.8151C35.644 45.8151 35.4733 45.7498 35.3427 45.6204L26.7733 37.0511C26.5227 36.8004 26.512 36.3991 26.7467 36.1351L33.1693 28.9404C37.6587 23.6884 44.9693 20.2898 51.344 20.3978C51.7 20.4058 51.9867 20.6924 51.9947 21.0484C52.1427 27.4271 48.7053 34.7338 43.44 39.2324L36.2573 45.6458C36.132 45.7591 35.972 45.8151 35.8147 45.8151ZM28.1613 36.5538L35.84 44.2324L42.564 38.2298C47.372 34.1204 50.5653 27.5711 50.664 21.7298C44.8227 21.8271 38.2747 25.0204 34.1733 29.8178L28.1613 36.5538Z" fill="white"/>
<path d="M38.368 50.6942C38.304 50.6942 38.2387 50.6849 38.1774 50.6649C37.9374 50.5849 37.74 50.4009 37.7054 50.1502L36.7907 43.7675C36.7387 43.4035 36.992 43.0662 37.356 43.0129C37.72 42.9555 38.0574 43.2129 38.1107 43.5782L38.8254 48.5649C41.1613 45.7715 42.46 42.2302 42.46 38.6195C42.46 38.2515 42.7587 37.9529 43.1267 37.9529C43.4947 37.9529 43.7933 38.2515 43.7933 38.6195C43.7933 43.0369 42.004 47.3609 38.884 50.4795C38.7507 50.6129 38.556 50.6942 38.368 50.6942Z" fill="white"/>
<path d="M28.7213 35.6089C28.6907 35.6089 28.6587 35.6076 28.6267 35.6023L22.244 34.6876C21.9933 34.6516 21.784 34.4769 21.7053 34.2356C21.6267 33.9956 21.6907 33.7303 21.8707 33.5529C25.0347 30.3889 29.3573 28.5996 33.7747 28.5996C34.1427 28.5996 34.4413 28.8983 34.4413 29.2663C34.4413 29.6343 34.1427 29.9329 33.7747 29.9329C30.1467 29.9329 26.5867 31.2436 23.8227 33.5663L28.816 34.2823C29.18 34.3356 29.4333 34.6716 29.3813 35.0369C29.332 35.3689 29.0467 35.6089 28.7213 35.6089Z" fill="white"/>
<path d="M42.844 32.8809C41.9893 32.8809 41.136 32.5556 40.4867 31.9062C39.188 30.6062 39.188 28.4916 40.4867 27.1916C41.7867 25.8916 43.9013 25.8916 45.2013 27.1916C46.5 28.4916 46.5 30.6062 45.2013 31.9062C44.5507 32.5569 43.6973 32.8809 42.844 32.8809ZM42.844 27.5502C42.332 27.5502 41.8187 27.7449 41.4293 28.1342C40.6507 28.9142 40.6507 30.1836 41.4293 30.9636C42.2093 31.7422 43.4787 31.7409 44.2587 30.9636C45.0373 30.1836 45.0373 28.9142 44.2587 28.1342C43.868 27.7462 43.356 27.5502 42.844 27.5502ZM44.7293 31.4356H44.7427H44.7293Z" fill="white"/>
<path d="M20.6665 52.3929C20.4918 52.3929 20.3225 52.3249 20.1945 52.1983C20.0212 52.0249 19.9572 51.7703 20.0278 51.5356C20.2465 50.8063 22.2052 44.3609 23.6318 42.9343C25.2385 41.3276 27.8532 41.3263 29.4598 42.9343C31.0665 44.5409 31.0665 47.1556 29.4598 48.7623C28.0332 50.1889 21.5878 52.1476 20.8585 52.3663C20.7945 52.3836 20.7305 52.3929 20.6665 52.3929ZM26.5465 43.0609C25.8318 43.0609 25.1185 43.3329 24.5745 43.8756C23.8052 44.6463 22.5252 48.0876 21.6798 50.7129C24.3038 49.8676 27.7465 48.5876 28.5158 47.8183C29.6025 46.7316 29.6025 44.9623 28.5158 43.8756C27.9732 43.3329 27.2598 43.0609 26.5465 43.0609Z" fill="white"/>
</g>
<defs>
<linearGradient id="paint0_linear" x1="-3.86016e-07" y1="33.9928" x2="70.2744" y2="34.3064" gradientUnits="userSpaceOnUse">
<stop stop-color="#47C2FF"/>
<stop offset="1" stop-color="#63CBFE" stop-opacity="0.65"/>
</linearGradient>
<clipPath id="clip0">
<rect width="32" height="32" fill="white" transform="translate(20 20.3928)"/>
</clipPath>
</defs>
</svg>
