<svg width="40" height="40" viewBox="0 0 40 40" fill="none" xmlns="http://www.w3.org/2000/svg">
<path d="M19.9996 40.0001C31.0417 40.0001 39.9932 31.0458 39.9932 20C39.9932 8.95432 31.0417 0 19.9996 0C8.95746 0 0.00604248 8.95432 0.00604248 20C0.00604248 31.0458 8.95746 40.0001 19.9996 40.0001Z" fill="url(#paint0_linear)"/>
<path opacity="0.75" d="M20 0C19.9909 0 19.982 0.000312462 19.9729 0.000312462V39.9997C19.982 39.9997 19.9909 40 20 40C31.0422 40 39.9936 31.0457 39.9936 20C39.9936 8.95421 31.0422 0 20 0Z" fill="#58D16F"/>
<path d="M8.69624 20.3974L16.7831 28.4842C17.1358 28.8369 17.7076 28.8369 18.0603 28.4842L31.3366 15.2079C31.6893 14.8552 31.6893 14.2833 31.3366 13.9307L28.9201 11.5142C28.5674 11.1615 27.9955 11.1615 27.6428 11.5142L17.9864 21.1704C17.6337 21.5231 17.0619 21.5231 16.7092 21.1704L12.3818 16.843C12.0361 16.4973 11.4779 16.4895 11.1227 16.8254L8.71436 19.1024C8.34472 19.4519 8.33652 20.0376 8.69624 20.3974Z" fill="#FFF5F5"/>
<path d="M28.9201 11.514C28.5674 11.1613 27.9955 11.1613 27.6428 11.514L19.9729 19.1839V26.5715L31.3366 15.2079C31.6893 14.8552 31.6893 14.2833 31.3366 13.9305L28.9201 11.514Z" fill="#DFEBF1"/>
<defs>
<linearGradient id="paint0_linear" x1="0.00604223" y1="18.6667" x2="69.905" y2="18.0304" gradientUnits="userSpaceOnUse">
<stop stop-color="#79E28A"/>
<stop offset="1" stop-color="#79E2B1" stop-opacity="0.65"/>
</linearGradient>
</defs>
</svg>
