<svg width="72" height="72" viewBox="0 0 72 72" fill="none" xmlns="http://www.w3.org/2000/svg">
<circle cx="36" cy="36" r="36" fill="url(#paint0_linear)"/>
<path d="M47.5 35.5C47.7763 35.5 48 35.7237 48 36C48 36.2763 47.7763 36.5 47.5 36.5H46.5C46.2237 36.5 46 36.2763 46 36C46 35.7237 46.2237 35.5 46.5 35.5H47.5Z" fill="white"/>
<path d="M47.0768 25.1569C53.0974 31.2419 53.0449 41.0563 46.9599 47.0769C40.8749 53.0975 31.0605 53.045 25.0399 46.96C25.0005 46.9213 24.9618 46.8825 24.923 46.8432C18.9024 40.7582 18.9549 30.9438 25.0399 24.9232C31.1249 18.9025 40.9393 18.955 46.9599 25.04C46.9993 25.0788 47.038 25.1175 47.0768 25.1569ZM46.253 46.2532C51.9155 40.5907 51.9155 31.4094 46.253 25.7469C40.5905 20.0844 31.4093 20.0844 25.7468 25.7469C20.0843 31.4094 20.0843 40.5907 25.7468 46.2532C31.4093 51.9157 40.5905 51.9157 46.253 46.2532Z" fill="white"/>
<path d="M45.5462 26.4543C50.818 31.7268 50.818 40.2743 45.5455 45.5462C40.2737 50.8187 31.7255 50.8187 26.4537 45.5462C21.1818 40.2737 21.1818 31.7262 26.4537 26.4537C31.7262 21.1818 40.2743 21.1818 45.5462 26.4543ZM48.4999 36C48.4999 29.1075 42.8924 23.5 35.9999 23.5C29.1074 23.5 23.4999 29.1075 23.4999 36C23.4999 42.8925 29.1074 48.5 35.9999 48.5C42.8924 48.5 48.4999 42.8925 48.4999 36Z" fill="white"/>
<path d="M44.4849 27.5145C44.6805 27.7101 44.6805 28.0263 44.4855 28.222L43.778 28.9288C43.583 29.1245 43.2662 29.1245 43.0712 28.9288C42.8755 28.7338 42.8755 28.417 43.0712 28.222L43.778 27.5151C43.973 27.3195 44.2899 27.3195 44.4849 27.5145Z" fill="white"/>
<path d="M44.4849 43.7782C44.6805 43.9731 44.6805 44.29 44.4849 44.485C44.2899 44.6806 43.973 44.6806 43.778 44.485L43.0712 43.7782C42.8755 43.5832 42.8755 43.2663 43.0712 43.0713C43.2662 42.8757 43.583 42.8757 43.778 43.0713L44.4849 43.7782Z" fill="white"/>
<path d="M37.9006 29.2007C38.0662 29.4219 38.0212 29.735 37.7999 29.9007C37.5787 30.0663 37.2656 30.0213 37.0999 29.8L36.4999 29V34C36.4999 34.0207 36.4981 34.0419 36.4956 34.0625H36.4962C36.6781 34.1094 36.8531 34.1813 37.0149 34.2769C37.9668 34.8369 38.2837 36.0625 37.7237 37.0144C37.1631 37.9657 35.9374 38.2832 34.9856 37.7225C34.0343 37.1625 33.7168 35.9369 34.2774 34.985L33.1462 33.8538C32.9505 33.6582 32.9505 33.3419 33.1462 33.1463C33.3418 32.9507 33.658 32.9507 33.8537 33.1463L34.9849 34.2775C35.1468 34.1813 35.3212 34.1088 35.5037 34.0625H35.5043C35.5018 34.0419 35.4999 34.0207 35.4999 34V29L34.8999 29.8C34.7343 30.0207 34.4205 30.0657 34.1999 29.9C33.9793 29.7344 33.9343 29.4207 34.0999 29.2L35.5999 27.2C35.6281 27.1619 35.6618 27.1282 35.6999 27.1C35.9206 26.9344 36.2343 26.9794 36.3999 27.2L37.8999 29.2L37.9006 29.2007ZM36.5231 36.8525C36.9937 36.5638 37.1412 35.9482 36.8524 35.4775C36.5637 35.0063 35.9481 34.8588 35.4774 35.1475L35.4768 35.1482C35.3431 35.2307 35.2306 35.3432 35.1481 35.4769L35.1474 35.4775C35.0512 35.635 34.9999 35.8157 34.9999 36C34.9999 36.5519 35.4474 37 35.9999 37C36.1843 37 36.3656 36.9488 36.5231 36.8525Z" fill="white"/>
<path d="M36.5 46.5V47.5C36.5 47.7763 36.2763 48 36 48C35.7237 48 35.5 47.7763 35.5 47.5V46.5C35.5 46.2237 35.7237 46 36 46C36.2763 46 36.5 46.2237 36.5 46.5Z" fill="white"/>
<path d="M36.5 24.5V25.5C36.5 25.7763 36.2763 26 36 26C35.7237 26 35.5 25.7763 35.5 25.5V24.5C35.5 24.2237 35.7237 24 36 24C36.2763 24 36.5 24.2237 36.5 24.5Z" fill="white"/>
<path d="M28.9286 28.222C29.1243 28.417 29.1243 28.7338 28.9286 28.9288C28.7336 29.1245 28.4168 29.1245 28.2218 28.9288L27.5149 28.222C27.3193 28.0263 27.3193 27.7101 27.5149 27.5145C27.7099 27.3195 28.0268 27.3195 28.2218 27.5151L28.9286 28.222Z" fill="white"/>
<path d="M28.9286 43.0713C29.1243 43.2663 29.1243 43.5832 28.9286 43.7782L28.2218 44.4857C28.0268 44.6807 27.7099 44.6807 27.5149 44.4857C27.3193 44.29 27.3193 43.9732 27.5149 43.7782L28.2218 43.0713C28.4168 42.8757 28.7336 42.8757 28.9286 43.0713Z" fill="white"/>
<path d="M25.5 35.5C25.7763 35.5 26 35.7237 26 36C26 36.2763 25.7763 36.5 25.5 36.5H24.5C24.2237 36.5 24 36.2763 24 36C24 35.7237 24.2237 35.5 24.5 35.5H25.5Z" fill="white"/>
<defs>
<linearGradient id="paint0_linear" x1="-4.51527e-07" y1="33.6" x2="125.859" y2="32.454" gradientUnits="userSpaceOnUse">
<stop stop-color="#6EE781" stop-opacity="0.84"/>
<stop offset="1" stop-color="#58D16F"/>
</linearGradient>
</defs>
</svg>
