<svg width="32" height="32" viewBox="0 0 32 32" fill="none" xmlns="http://www.w3.org/2000/svg">
<g clip-path="url(#clip0)">
<path d="M32 4.09941C32 2.21429 30.4663 0.680664 28.5812 0.680664H27.1644C26.9055 0.680664 26.6956 0.890539 26.6956 1.14941C26.6956 1.40829 26.9055 1.61816 27.1644 1.61816H28.5812C29.9494 1.61816 31.0625 2.73123 31.0625 4.09941V16.0125C31.0625 16.4695 30.9386 16.9089 30.7079 17.2915C29.6648 16.0231 28.084 15.2127 26.3174 15.2127C24.0415 15.2127 22.0742 16.5577 21.1676 18.4944H9.96125C8.59275 18.4944 7.47937 17.381 7.47937 16.0125V4.09941C7.47937 2.73123 8.59275 1.61816 9.96125 1.61816H25.2894C25.5483 1.61816 25.7581 1.40829 25.7581 1.14941C25.7581 0.890539 25.5483 0.680664 25.2894 0.680664H9.96125C8.07581 0.680664 6.54187 2.21429 6.54187 4.09941V4.3081H4.28C1.92 4.3081 0 6.2281 0 8.5881V21.4462C0 23.8062 1.92 25.7262 4.28 25.7262H8.30894V27.3255H7.57912C6.47806 27.3255 5.58231 28.2213 5.58231 29.3223C5.58231 30.4233 6.47813 31.3191 7.57912 31.3191H19.1832C20.2843 31.3191 21.1801 30.4233 21.1801 29.3223C21.1801 28.2213 20.2843 27.3255 19.1832 27.3255H18.4534V25.7262H22.4825C22.7329 25.7262 22.9819 25.7039 23.2257 25.6611C24.1161 26.2407 25.178 26.578 26.3173 26.578C29.4508 26.578 31.9999 24.0287 31.9999 20.8953C31.9999 19.8876 31.7359 18.9405 31.2739 18.1189C31.744 17.5195 31.9999 16.7843 31.9999 16.0125V4.09941H32ZM20.2426 29.3223C20.2426 29.9064 19.7673 30.3816 19.1832 30.3816H7.57919C6.99506 30.3816 6.51988 29.9063 6.51988 29.3223C6.51988 28.7382 6.99512 28.263 7.57919 28.263H8.77775H17.9847H19.1833C19.7673 28.263 20.2426 28.7382 20.2426 29.3223ZM9.24644 27.3255V25.7263H17.5159V27.3255H9.24644ZM0.9375 21.4462V8.5881C0.9375 6.74504 2.43694 5.2456 4.28 5.2456H6.54187V6.42691H4.28C3.08831 6.42691 2.11875 7.39648 2.11875 8.58816V21.4463C2.11875 22.638 3.08831 23.6075 4.28 23.6075H5.39937C5.65825 23.6075 5.86812 23.3977 5.86812 23.1388C5.86812 22.8799 5.65825 22.67 5.39937 22.67H4.28C3.60525 22.67 3.05625 22.121 3.05625 21.4463V8.58816C3.05625 7.91341 3.60525 7.36441 4.28 7.36441H6.54187V16.0125C6.54187 17.898 8.07581 19.4319 9.96125 19.4319H20.8261C20.7015 19.899 20.6348 20.3895 20.6348 20.8953C20.6348 21.5149 20.7347 22.1114 20.9189 22.6701H7.27437C7.0155 22.6701 6.80562 22.88 6.80562 23.1388C6.80562 23.3977 7.0155 23.6076 7.27437 23.6076H21.3248C21.5596 24.038 21.8485 24.4347 22.1821 24.7888H4.28C2.43694 24.7887 0.9375 23.2893 0.9375 21.4462ZM26.3174 25.6405C23.7009 25.6405 21.5723 23.5118 21.5723 20.8953C21.5723 18.2789 23.7009 16.1502 26.3174 16.1502C28.9338 16.1502 31.0625 18.2789 31.0625 20.8953C31.0625 23.5119 28.9338 25.6405 26.3174 25.6405Z" fill="url(#paint0_linear)"/>
<path d="M26.9272 20.4281C26.5197 20.2841 26.0693 20.1103 25.8178 19.913C25.743 19.8543 25.711 19.7178 25.7382 19.5735C25.7519 19.5008 25.8158 19.2579 26.0633 19.1833C26.5342 19.0415 26.8432 19.283 26.8769 19.3111C27.076 19.4766 27.3715 19.4495 27.537 19.2505C27.7026 19.0515 27.6754 18.7559 27.4764 18.5903C27.4052 18.5311 27.1485 18.3364 26.7583 18.2467V18.0774C26.7583 17.8185 26.5485 17.6086 26.2896 17.6086C26.0307 17.6086 25.8208 17.8185 25.8208 18.0774V18.2779C25.8115 18.2806 25.8023 18.2828 25.7928 18.2857C25.2919 18.4366 24.918 18.8635 24.8169 19.3999C24.7238 19.8941 24.8856 20.3733 25.2392 20.6507C25.5279 20.8772 25.9264 21.0688 26.6147 21.3121C27.0595 21.4693 27.0499 21.8289 27.0252 21.9761C26.9747 22.2766 26.7219 22.6012 26.2864 22.6041C25.8537 22.6068 25.7192 22.5856 25.3875 22.3687C25.1709 22.227 24.8803 22.2877 24.7387 22.5043C24.5969 22.721 24.6577 23.0115 24.8743 23.1532C25.2334 23.3881 25.4997 23.4855 25.8208 23.522V23.7132C25.8208 23.9721 26.0307 24.182 26.2895 24.182C26.5484 24.182 26.7583 23.9721 26.7583 23.7132V23.4753C27.426 23.2836 27.8535 22.7038 27.9497 22.1315C28.0772 21.3738 27.6662 20.6893 26.9272 20.4281Z" fill="url(#paint1_linear)"/>
<path d="M19.1652 6.51128C18.5794 6.17303 17.8799 6.17297 17.294 6.51128C16.7081 6.84953 16.3584 7.45534 16.3584 8.13184V11.9805C16.3584 12.657 16.7081 13.2628 17.294 13.601C17.587 13.7702 17.9083 13.8547 18.2296 13.8547C18.551 13.8547 18.8723 13.7702 19.1652 13.601L22.4982 11.6767C23.0841 11.3385 23.4338 10.7327 23.4338 10.0562C23.4338 9.37965 23.0841 8.7739 22.4982 8.43565L19.1652 6.51128ZM22.0295 10.8648L18.6965 12.7891C18.4041 12.9578 18.0551 12.9579 17.7628 12.7891C17.4705 12.6203 17.2959 12.318 17.2959 11.9805V8.13184C17.2959 7.79428 17.4704 7.49197 17.7628 7.32322C17.909 7.23884 18.0693 7.19665 18.2296 7.19665C18.39 7.19665 18.5503 7.23884 18.6965 7.32322L22.0295 9.24753C22.3218 9.41634 22.4964 9.71859 22.4964 10.0562C22.4963 10.3937 22.3218 10.696 22.0295 10.8648Z" fill="url(#paint2_linear)"/>
</g>
<defs>
<linearGradient id="paint0_linear" x1="-1.71563e-07" y1="14.9786" x2="31.233" y2="15.1242" gradientUnits="userSpaceOnUse">
<stop stop-color="#AA80FF"/>
<stop offset="1" stop-color="#A071FF" stop-opacity="0.65"/>
</linearGradient>
<linearGradient id="paint1_linear" x1="24.6621" y1="20.6762" x2="27.8934" y2="20.6835" gradientUnits="userSpaceOnUse">
<stop stop-color="#AA80FF"/>
<stop offset="1" stop-color="#A071FF" stop-opacity="0.65"/>
</linearGradient>
<linearGradient id="paint2_linear" x1="16.3584" y1="9.80291" x2="23.2643" y2="9.8316" gradientUnits="userSpaceOnUse">
<stop stop-color="#AA80FF"/>
<stop offset="1" stop-color="#A071FF" stop-opacity="0.65"/>
</linearGradient>
<clipPath id="clip0">
<rect width="32" height="32" fill="white"/>
</clipPath>
</defs>
</svg>
